<svg id="Layer_1" data-name="Layer 1" xmlns="http://www.w3.org/2000/svg" viewBox="0 0 300 124.09"><defs><style>.cls-1,.cls-7{fill:#96989a;}.cls-1{stroke:#96989a;stroke-miterlimit:10;stroke-width:0.5px;}.cls-2{fill:#f60;}.cls-2,.cls-3,.cls-4,.cls-5,.cls-6,.cls-7{fill-rule:evenodd;}.cls-3{fill:#f74343;}.cls-4{fill:#ed1515;}.cls-5{fill:#d2d3d5;}.cls-6{fill:#fefefe;}.cls-8{fill:#989c9c;}</style></defs><g id="Layer_1-2" data-name="Layer_1"><g id="_2061093947584" data-name=" 2061093947584"><path class="cls-1" d="M56.84,62.68a3.12,3.12,0,0,1-2.27-.9,3,3,0,0,1-.93-2.29,3.18,3.18,0,0,1,3.2-3.24,3.17,3.17,0,0,1,2.31.93,3.06,3.06,0,0,1,1,2.31,3,3,0,0,1-1,2.26A3.13,3.13,0,0,1,56.84,62.68Zm2.42,30.14c0,2.84,1.09,4.26,3.29,4.26a8.29,8.29,0,0,0,2.38-.33v4.47a16,16,0,0,1-3.53.42,8,8,0,0,1-2.78-.48,6,6,0,0,1-2.25-1.48,7.05,7.05,0,0,1-1.51-2.5,9.92,9.92,0,0,1-.56-3.48V70.54h5V92.82ZM96,101.46H91V83.82Q91,74,83.84,74a7.8,7.8,0,0,0-6.14,2.79,10.33,10.33,0,0,0-2.43,7v17.64h-5V70.54h5v5.13h.12a11.13,11.13,0,0,1,10.14-5.85q5.07,0,7.76,3.27T96,82.56v18.9Zm23.68-.3a9.61,9.61,0,0,1-4.62,1q-8.13,0-8.12-9.06V74.76H101.6V70.54h5.32V63l5-1.61v9.15h7.79v4.23h-7.79V92.19a7.17,7.17,0,0,0,1.06,4.43,4.18,4.18,0,0,0,3.5,1.33,5.18,5.18,0,0,0,3.23-1v4.24Zm31-13.93H128.8q.12,5.17,2.78,8a9.6,9.6,0,0,0,7.31,2.8,15.21,15.21,0,0,0,9.61-3.44v4.65q-4.08,3-10.78,3T127.42,98c-2.51-2.81-3.75-6.76-3.75-11.85q0-7.22,4.09-11.76a13.13,13.13,0,0,1,10.16-4.55q6.08,0,9.39,3.93t3.32,10.89v2.6ZM145.56,83a10.16,10.16,0,0,0-2.06-6.68A7.06,7.06,0,0,0,137.83,74a8,8,0,0,0-6,2.5,11.44,11.44,0,0,0-3,6.56Zm28.69-7.49a6.06,6.06,0,0,0-3.74-1,6.31,6.31,0,0,0-5.31,3q-2.12,3-2.12,8.15v15.76h-5V70.54h5v6.37h.12a10.67,10.67,0,0,1,3.23-5.09A7.36,7.36,0,0,1,171.29,70a8.12,8.12,0,0,1,3,.43v5.13ZM199.89,100a16,16,0,0,1-8.46,2.15,14,14,0,0,1-10.67-4.3,15.63,15.63,0,0,1-4.06-11.16q0-7.65,4.38-12.28t11.68-4.63A16.19,16.19,0,0,1,200,71.32v5.07A12.6,12.6,0,0,0,192.58,74a9.93,9.93,0,0,0-7.77,3.4,12.87,12.87,0,0,0-3,8.91c0,3.63,1,6.49,2.85,8.58A9.86,9.86,0,0,0,192.28,98a12.35,12.35,0,0,0,7.61-2.69V100ZM223.5,75.55a6.1,6.1,0,0,0-3.74-1,6.3,6.3,0,0,0-5.31,3,13.88,13.88,0,0,0-2.13,8.15v15.76h-4.95V70.54h4.95v6.37h.13a10.73,10.73,0,0,1,3.22-5.09A7.39,7.39,0,0,1,220.54,70a8.12,8.12,0,0,1,3,.43v5.13ZM251,101.46h-5V96.62h-.12a10.35,10.35,0,0,1-9.51,5.56,10.16,10.16,0,0,1-7.23-2.45,8.47,8.47,0,0,1-2.61-6.49q0-8.65,10.2-10.08l9.27-1.3q0-7.89-6.37-7.88a15.19,15.19,0,0,0-10.08,3.8V72.71a19.06,19.06,0,0,1,10.5-2.9Q251,69.81,251,81.34v20.11Zm-5-15.65-7.45,1a12,12,0,0,0-5.2,1.71c-1.16.81-1.75,2.26-1.75,4.33a4.7,4.7,0,0,0,1.62,3.7A6.18,6.18,0,0,0,237.56,98a8,8,0,0,0,6.09-2.57,9.27,9.27,0,0,0,2.4-6.55V85.81ZM275.62,60a6.75,6.75,0,0,0-3.3-.81c-3.45,0-5.19,2.19-5.19,6.55v4.78h7.25v4.22h-7.25v26.7h-4.92V74.76h-5.29V70.54h5.29v-5a10.47,10.47,0,0,1,2.8-7.69A9.48,9.48,0,0,1,272,55a9.78,9.78,0,0,1,3.6.54V60Zm19.53,41.14a9.61,9.61,0,0,1-4.62,1q-8.13,0-8.12-9.06V74.76h-5.32V70.54h5.32V63l4.95-1.61v9.15h7.79v4.23h-7.79V92.19a7.17,7.17,0,0,0,1.06,4.43,4.18,4.18,0,0,0,3.5,1.33,5.18,5.18,0,0,0,3.23-1v4.24Z"/><path class="cls-2" d="M9.09,4.61,30.38,56.94,45.55,19.58S9,4.75,9.09,4.61Z"/><path class="cls-3" d="M30.69,57.23l-25.84-44L14,16.66S30.43,57.12,30.69,57.23Z"/><path class="cls-4" d="M45.55,19.58,18.29,86l48-27.3S45.66,19.32,45.56,19.58Z"/><path class="cls-3" d="M70.76,47.79l-9.18,2,4.71,9s4.43-10.82,4.46-10.91Z"/><path class="cls-2" d="M70.76,47.79l5.36,9.29-8-3Z"/><path class="cls-5" d="M30.39,56.5l.34,30.21L14.52,95.3S30.26,56.34,30.39,56.5Z"/><path class="cls-6" d="M57,59.81a4.2,4.2,0,1,1-4.2,4.2A4.2,4.2,0,0,1,57,59.81Z"/><path class="cls-7" d="M57,61.06a3,3,0,1,1-3,3A3,3,0,0,1,57,61.06Z"/><path class="cls-2" d="M9.09,4.61,30.38,56.94,45.55,19.58S9,4.75,9.09,4.61Z"/><path class="cls-3" d="M30.69,57.23l-25.84-44L14,16.66S30.43,57.12,30.69,57.23Z"/><path class="cls-4" d="M45.55,19.58,18.29,86l48-27.3S45.66,19.32,45.56,19.58Z"/><path class="cls-3" d="M70.76,47.79l-9.18,2,4.71,9s4.43-10.82,4.46-10.91Z"/><path class="cls-2" d="M70.76,47.79l5.36,9.29-8-3Z"/><path class="cls-5" d="M30.39,56.5l.34,30.21L14.52,95.3S30.26,56.34,30.39,56.5Z"/><path class="cls-6" d="M57,59.81a4.2,4.2,0,1,1-4.2,4.2A4.2,4.2,0,0,1,57,59.81Z"/><path class="cls-7" d="M57,61.06a3,3,0,1,1-3,3A3,3,0,0,1,57,61.06Z"/><path class="cls-8" d="M146.41,112.81a.83.83,0,0,1,.7.34,1.69,1.69,0,0,1,.24,1v2.44a1.48,1.48,0,0,0,.33,1,1,1,0,0,0,.75.32h.86c.15,0,.23-.11.23-.33s-.09-.32-.26-.32h-.56a.56.56,0,0,1-.51-.21,1.06,1.06,0,0,1-.13-.62V114a1.34,1.34,0,0,0-.34-1,1.68,1.68,0,0,0-.84-.44v0a1.7,1.7,0,0,0,.84-.45,1.42,1.42,0,0,0,.34-1v-2.49a1,1,0,0,1,.13-.61.56.56,0,0,1,.51-.22h.6c.15,0,.23-.11.23-.32s-.09-.33-.24-.33h-.87a.92.92,0,0,0-.74.38,1.5,1.5,0,0,0-.34,1v2.42a1.63,1.63,0,0,1-.24,1,.77.77,0,0,1-.69.34h-.47c-.18,0-.26.1-.26.31s.08.32.26.32Zm148,0h.46c.17,0,.25-.11.25-.32s-.08-.31-.25-.31h-.46a.82.82,0,0,1-.71-.34,1.71,1.71,0,0,1-.23-1v-2.42a1.49,1.49,0,0,0-.33-1,1,1,0,0,0-.75-.38h-.86c-.16,0-.25.11-.25.33s.08.32.24.32h.59a.56.56,0,0,1,.51.22,1,1,0,0,1,.14.61v2.49a1.46,1.46,0,0,0,.33,1,1.65,1.65,0,0,0,.84.45v0a1.68,1.68,0,0,0-.84.44,1.38,1.38,0,0,0-.33,1v2.5a1,1,0,0,1-.14.62.56.56,0,0,1-.51.21h-.56c-.17,0-.26.11-.26.32s.08.33.24.33h.86a1,1,0,0,0,.75-.32,1.48,1.48,0,0,0,.33-1v-2.44a1.75,1.75,0,0,1,.23-1,.83.83,0,0,1,.71-.34Zm-142.79,3.58v-1.14a2,2,0,0,0,.47.31,3.57,3.57,0,0,0,.57.23,4.39,4.39,0,0,0,.6.15,4.13,4.13,0,0,0,.56,0,2.19,2.19,0,0,0,1.33-.33,1.23,1.23,0,0,0,.29-1.53,1.66,1.66,0,0,0-.4-.45,5.4,5.4,0,0,0-.61-.39l-.76-.39-.8-.44a3.38,3.38,0,0,1-.65-.5,1.83,1.83,0,0,1-.43-.61,1.78,1.78,0,0,1-.16-.8,1.89,1.89,0,0,1,.24-1,2.26,2.26,0,0,1,.65-.69,3.06,3.06,0,0,1,.92-.4,4.06,4.06,0,0,1,1-.13,4.13,4.13,0,0,1,1.78.29v1.08a3.27,3.27,0,0,0-1.87-.5,3.36,3.36,0,0,0-.63.06,1.87,1.87,0,0,0-.56.22,1.15,1.15,0,0,0-.4.39.94.94,0,0,0-.16.57,1.13,1.13,0,0,0,.12.54,1.16,1.16,0,0,0,.35.42,3.2,3.2,0,0,0,.56.37l.76.39a9.37,9.37,0,0,1,.83.46,3.48,3.48,0,0,1,.7.53,2.51,2.51,0,0,1,.47.65,1.89,1.89,0,0,1,.17.81,2.15,2.15,0,0,1-.23,1,2.12,2.12,0,0,1-.64.69,3,3,0,0,1-.94.38,5,5,0,0,1-1.11.12,3.08,3.08,0,0,1-.48,0l-.59-.09a5.12,5.12,0,0,1-.56-.15,1.58,1.58,0,0,1-.43-.19Zm6.91-7a.61.61,0,0,1-.43-.17.58.58,0,0,1-.17-.44.56.56,0,0,1,.17-.43.58.58,0,0,1,.43-.18.6.6,0,0,1,.44.18.6.6,0,0,1,0,.86A.6.6,0,0,1,158.52,109.36Zm.46,5.72c0,.54.21.81.62.81a1.65,1.65,0,0,0,.46-.06v.85l-.29,0a2.34,2.34,0,0,1-.38,0,1.56,1.56,0,0,1-.53-.1,1.11,1.11,0,0,1-.43-.28,1.28,1.28,0,0,1-.28-.47,1.9,1.9,0,0,1-.11-.66v-4.4H159v4.23Zm10.43,1.64h-.94v-3.37a2.55,2.55,0,0,0-.3-1.41,1.13,1.13,0,0,0-1-.44,1.27,1.27,0,0,0-1,.55,2.12,2.12,0,0,0-.42,1.32v3.35h-.94v-3.48c0-1.16-.45-1.74-1.34-1.74a1.26,1.26,0,0,0-1,.52,2.15,2.15,0,0,0-.4,1.35v3.35h-.94v-5.87H162v.93h0a2,2,0,0,1,1.83-1.07,1.68,1.68,0,0,1,1,.34,1.64,1.64,0,0,1,.62.88,2.09,2.09,0,0,1,1.95-1.22c1.29,0,1.93.8,1.93,2.39v3.62Zm2.74-.85h0v3.55h-.94v-8.57h.94v1h0a2.23,2.23,0,0,1,2-1.16,2.16,2.16,0,0,1,1.77.78,3.31,3.31,0,0,1,.64,2.12,3.65,3.65,0,0,1-.72,2.36,2.38,2.38,0,0,1-2,.88,2,2,0,0,1-1.76-1Zm0-2.37v.82a1.77,1.77,0,0,0,.47,1.24,1.68,1.68,0,0,0,2.54-.15,3,3,0,0,0,.48-1.82,2.36,2.36,0,0,0-.45-1.53,1.5,1.5,0,0,0-1.22-.56,1.66,1.66,0,0,0-1.32.57,2.08,2.08,0,0,0-.5,1.43Zm6.84,1.58c0,.54.2.81.62.81a1.53,1.53,0,0,0,.45-.06v.85l-.29,0a2.17,2.17,0,0,1-.38,0,1.5,1.5,0,0,1-.52-.1,1,1,0,0,1-.43-.28,1.29,1.29,0,0,1-.29-.47,1.91,1.91,0,0,1-.1-.66V108H179v7Zm6.81-1.06h-4.14a2.23,2.23,0,0,0,.52,1.52,1.85,1.85,0,0,0,1.39.53,2.88,2.88,0,0,0,1.83-.66v.89a3.45,3.45,0,0,1-2,.56,2.51,2.51,0,0,1-2-.8,3.32,3.32,0,0,1-.71-2.25,3.22,3.22,0,0,1,.78-2.24,2.51,2.51,0,0,1,1.93-.86,2.22,2.22,0,0,1,1.78.74,3.12,3.12,0,0,1,.63,2.07V114Zm-1-.79a1.93,1.93,0,0,0-.39-1.27,1.36,1.36,0,0,0-1.08-.46,1.52,1.52,0,0,0-1.13.48,2.14,2.14,0,0,0-.57,1.25Zm9.91,3.49h-1V108.5h1Zm6.9,0h-.94v-3.35c0-1.24-.45-1.87-1.36-1.87a1.5,1.5,0,0,0-1.17.53,2,2,0,0,0-.46,1.34v3.35h-.94v-5.87h.94v1h0a2.13,2.13,0,0,1,1.93-1.11,1.78,1.78,0,0,1,1.47.63,2.75,2.75,0,0,1,.51,1.79v3.59Zm6.65,0h-.94v-3.35c0-1.24-.46-1.87-1.37-1.87a1.5,1.5,0,0,0-1.17.53,2,2,0,0,0-.46,1.34v3.35h-.94v-5.87h.94v1h0a2.11,2.11,0,0,1,1.92-1.11,1.78,1.78,0,0,1,1.47.63,2.69,2.69,0,0,1,.52,1.79v3.59Zm4.22.14a2.76,2.76,0,0,1-2.08-.82,3.1,3.1,0,0,1-.77-2.19,3.23,3.23,0,0,1,.8-2.31,2.93,2.93,0,0,1,2.19-.83,2.64,2.64,0,0,1,2.05.81,3.21,3.21,0,0,1,.73,2.24,3.14,3.14,0,0,1-.79,2.25,2.77,2.77,0,0,1-2.13.85Zm.07-5.36a1.79,1.79,0,0,0-1.43.62,2.49,2.49,0,0,0-.53,1.7,2.39,2.39,0,0,0,.53,1.64,1.81,1.81,0,0,0,1.43.61,1.71,1.71,0,0,0,1.4-.59,3.16,3.16,0,0,0,0-3.38A1.69,1.69,0,0,0,212.57,111.5Zm9-.65-2.34,5.87h-.92l-2.23-5.87h1l1.49,4.27a3.34,3.34,0,0,1,.2.82h0a3.61,3.61,0,0,1,.19-.8l1.56-4.29Zm5,5.87h-.94v-.92h0a2,2,0,0,1-1.81,1.06,1.91,1.91,0,0,1-1.37-.47,1.61,1.61,0,0,1-.5-1.23c0-1.1.65-1.74,1.94-1.91l1.76-.25c0-1-.41-1.5-1.21-1.5a2.9,2.9,0,0,0-1.92.72v-1a3.64,3.64,0,0,1,2-.55q2.07,0,2.07,2.19v3.82Zm-.94-3-1.42.2a2.21,2.21,0,0,0-1,.32.92.92,0,0,0-.34.82.94.94,0,0,0,.31.71,1.21,1.21,0,0,0,.82.27,1.53,1.53,0,0,0,1.15-.49,1.71,1.71,0,0,0,.46-1.24v-.59Zm5.43,2.91a1.81,1.81,0,0,1-.87.19c-1,0-1.55-.58-1.55-1.72v-3.48h-1v-.8h1v-1.43l.94-.31v1.74H231v.8h-1.48V115a1.38,1.38,0,0,0,.2.84.82.82,0,0,0,.67.26,1,1,0,0,0,.61-.2v.8Zm1.68-7.3a.6.6,0,0,1-.43-.17.59.59,0,0,1-.18-.44.61.61,0,0,1,.61-.61.58.58,0,0,1,.43.18.58.58,0,0,1,0,.86A.58.58,0,0,1,232.71,109.36Zm.45,5.72q0,.81.63.81a1.53,1.53,0,0,0,.45-.06v.85l-.29,0a2.25,2.25,0,0,1-.38,0,1.5,1.5,0,0,1-.52-.1,1,1,0,0,1-.43-.28,1.29,1.29,0,0,1-.29-.47,1.9,1.9,0,0,1-.11-.66v-4.4h.94v4.23Zm6.72-4.23-2.34,5.87h-.92l-2.23-5.87h1l1.49,4.27a4,4,0,0,1,.21.82h0a3.61,3.61,0,0,1,.19-.8l1.55-4.29Zm5.65,3.17h-4.14a2.23,2.23,0,0,0,.52,1.52,1.85,1.85,0,0,0,1.39.53,2.88,2.88,0,0,0,1.83-.66v.89a3.45,3.45,0,0,1-2,.56,2.51,2.51,0,0,1-2-.8,3.32,3.32,0,0,1-.71-2.25,3.22,3.22,0,0,1,.78-2.24,2.51,2.51,0,0,1,1.93-.86,2.22,2.22,0,0,1,1.78.74,3.12,3.12,0,0,1,.63,2.07V114Zm-1-.79a2,2,0,0,0-.39-1.27,1.36,1.36,0,0,0-1.08-.46A1.52,1.52,0,0,0,242,112a2.14,2.14,0,0,0-.57,1.25Zm15,.17c0,2.3-1,3.46-3.13,3.46s-3-1.11-3-3.33v-5h1v5c0,1.68.72,2.52,2.14,2.52s2.05-.81,2.05-2.44v-5h1v4.9Zm6.79,3.32h-.94v-3.35c0-1.24-.45-1.87-1.36-1.87a1.5,1.5,0,0,0-1.17.53,2,2,0,0,0-.46,1.34v3.35h-.94v-5.87h.94v1h0a2.12,2.12,0,0,1,1.93-1.11,1.78,1.78,0,0,1,1.47.63,2.75,2.75,0,0,1,.51,1.79v3.59Zm2.19-7.36a.61.61,0,0,1-.43-.17.62.62,0,0,1-.17-.44.6.6,0,0,1,.17-.43.58.58,0,0,1,.43-.18.59.59,0,0,1,.44.18.6.6,0,0,1,0,.86A.59.59,0,0,1,268.51,109.36Zm.46,5.72q0,.81.63.81a1.58,1.58,0,0,0,.45-.06v.85l-.29,0a2.34,2.34,0,0,1-.38,0,1.56,1.56,0,0,1-.53-.1,1.07,1.07,0,0,1-.42-.28,1.29,1.29,0,0,1-.29-.47,1.9,1.9,0,0,1-.11-.66v-4.4H269v4.23Zm5-6.22a1.18,1.18,0,0,0-.63-.16c-.65,0-1,.42-1,1.25v.9h1.38v.81h-1.38v5.06h-.94v-5.06h-1v-.81h1v-.95a2,2,0,0,1,.53-1.46,1.81,1.81,0,0,1,1.33-.53,1.86,1.86,0,0,1,.69.1v.85Zm1.27.5a.61.61,0,0,1-.43-.17.62.62,0,0,1-.17-.44.56.56,0,0,1,.17-.43.58.58,0,0,1,.43-.18.6.6,0,0,1,.44.18.6.6,0,0,1,0,.86A.6.6,0,0,1,275.24,109.36Zm.46,5.72q0,.81.63.81a1.58,1.58,0,0,0,.45-.06v.85l-.29,0a2.34,2.34,0,0,1-.38,0,1.56,1.56,0,0,1-.53-.1,1.18,1.18,0,0,1-.43-.28,1.28,1.28,0,0,1-.28-.47,1.9,1.9,0,0,1-.11-.66v-4.4h.94v4.23Zm6.81-1.06h-4.14a2.19,2.19,0,0,0,.53,1.52,1.83,1.83,0,0,0,1.39.53,2.87,2.87,0,0,0,1.82-.66v.89a3.45,3.45,0,0,1-2.05.56,2.47,2.47,0,0,1-1.95-.8,3.27,3.27,0,0,1-.72-2.25,3.22,3.22,0,0,1,.78-2.24,2.51,2.51,0,0,1,1.93-.86,2.22,2.22,0,0,1,1.78.74,3.12,3.12,0,0,1,.63,2.07V114Zm-1-.79a1.87,1.87,0,0,0-.39-1.27,1.36,1.36,0,0,0-1.08-.46A1.52,1.52,0,0,0,279,112a2.14,2.14,0,0,0-.57,1.25Zm7.4,3.49H288v-1h0a2.36,2.36,0,0,1-3.78.35,3.25,3.25,0,0,1-.66-2.15,3.51,3.51,0,0,1,.73-2.33,2.4,2.4,0,0,1,2-.88,1.88,1.88,0,0,1,1.76,1h0V108H289Zm-.95-2.65v-.87a1.68,1.68,0,0,0-.46-1.2,1.59,1.59,0,0,0-1.2-.5,1.62,1.62,0,0,0-1.35.63,2.78,2.78,0,0,0-.49,1.75,2.54,2.54,0,0,0,.47,1.6,1.56,1.56,0,0,0,1.27.59,1.61,1.61,0,0,0,1.28-.57,2.16,2.16,0,0,0,.49-1.43Z"/><path class="cls-2" d="M189.33,112.18a1.08,1.08,0,1,1-1.08,1.07A1.07,1.07,0,0,1,189.33,112.18Z"/><path class="cls-2" d="M249.36,112.18a1.08,1.08,0,1,1-1.08,1.07A1.07,1.07,0,0,1,249.36,112.18Z"/><path class="cls-2" d="M189.33,112.18a1.08,1.08,0,1,1-1.08,1.07A1.07,1.07,0,0,1,189.33,112.18Z"/><path class="cls-2" d="M249.36,112.18a1.08,1.08,0,1,1-1.08,1.07A1.07,1.07,0,0,1,249.36,112.18Z"/></g></g></svg>