<svg id="Layer_1" data-name="Layer 1" xmlns="http://www.w3.org/2000/svg" viewBox="0 0 498.68 271.5"><defs><style>.cls-1{fill:#ffffff;}.cls-2{fill:#f7b319;}</style></defs><path class="cls-1" d="M129.65,230.68a6.93,6.93,0,0,1-1.89-5.11v-15a6.88,6.88,0,0,1,1.89-5.07,6.75,6.75,0,0,1,5-1.91,6.51,6.51,0,0,1,7,7v.69a.36.36,0,0,1-.41.4l-2.11.12a.36.36,0,0,1-.41-.4v-1a4.31,4.31,0,0,0-1.1-3.08,4.22,4.22,0,0,0-5.83,0,4.32,4.32,0,0,0-1.12,3.08v15.5a4.3,4.3,0,0,0,1.12,3.08,4.19,4.19,0,0,0,5.83,0,4.29,4.29,0,0,0,1.1-3.08v-1a.36.36,0,0,1,.41-.4l2.11.12a.37.37,0,0,1,.41.41v.64a6.9,6.9,0,0,1-1.91,5.11,6.81,6.81,0,0,1-5,1.91A6.72,6.72,0,0,1,129.65,230.68Z" transform="translate(-59.73 -23.37)"/><path class="cls-1" d="M146.92,230.89a6.06,6.06,0,0,1-1.73-4.5v-8.72a6.14,6.14,0,0,1,1.75-4.51,7.1,7.1,0,0,1,9.31,0,6.1,6.1,0,0,1,1.75,4.51v8.72a6,6,0,0,1-1.75,4.5,7.25,7.25,0,0,1-9.33,0Zm7.2-1.91a3.91,3.91,0,0,0,1-2.8v-8.35a4,4,0,0,0-1-2.82,3.31,3.31,0,0,0-2.54-1.08,3.24,3.24,0,0,0-2.52,1.08,4,4,0,0,0-1,2.82v8.35a4,4,0,0,0,1,2.8,3.29,3.29,0,0,0,2.52,1.06A3.36,3.36,0,0,0,154.12,229Z" transform="translate(-59.73 -23.37)"/><path class="cls-1" d="M173.67,213.16a7.48,7.48,0,0,1,1.36,4.75v14a.37.37,0,0,1-.41.41h-2.07a.37.37,0,0,1-.41-.41V218.15a4.85,4.85,0,0,0-.87-3.08,2.93,2.93,0,0,0-2.42-1.1,3.06,3.06,0,0,0-2.54,1.18,5.07,5.07,0,0,0-.91,3.2v13.51a.37.37,0,0,1-.41.41h-2.07a.37.37,0,0,1-.41-.41V212.15a.37.37,0,0,1,.41-.41H165a.37.37,0,0,1,.41.41v1.3a.12.12,0,0,0,.08.12c.05,0,.09,0,.12-.08a4.47,4.47,0,0,1,1.85-1.52,5.65,5.65,0,0,1,2.38-.51A4.65,4.65,0,0,1,173.67,213.16Z" transform="translate(-59.73 -23.37)"/><path class="cls-1" d="M180.62,231a4.77,4.77,0,0,1-1.69-3.83v-.29a.36.36,0,0,1,.41-.4h1.95a.35.35,0,0,1,.4.4v.25a2.89,2.89,0,0,0,1,2.19,3.54,3.54,0,0,0,2.5.89,3.23,3.23,0,0,0,2.36-.89,3.12,3.12,0,0,0,.89-2.28,2.72,2.72,0,0,0-.57-1.76,4.35,4.35,0,0,0-1.32-1.11c-.5-.27-1.25-.63-2.25-1.06a18.54,18.54,0,0,1-2.63-1.28,5.6,5.6,0,0,1-1.78-1.78,5.22,5.22,0,0,1-.76-2.94,5.35,5.35,0,0,1,1.61-4.1,7,7,0,0,1,8.72,0,5.41,5.41,0,0,1,1.62,4.1v.12a.36.36,0,0,1-.4.41h-1.87a.37.37,0,0,1-.41-.41v-.24a3,3,0,0,0-.91-2.27,3.26,3.26,0,0,0-2.38-.9,3.06,3.06,0,0,0-3.21,3.17,2.52,2.52,0,0,0,.53,1.64,4.05,4.05,0,0,0,1.3,1.09c.51.29,1.23.63,2.15,1a24.64,24.64,0,0,1,2.74,1.38,6.15,6.15,0,0,1,1.89,1.82,5,5,0,0,1,.82,2.92,5.15,5.15,0,0,1-1.67,4,6.48,6.48,0,0,1-4.51,1.5A6.67,6.67,0,0,1,180.62,231Z" transform="translate(-59.73 -23.37)"/><path class="cls-1" d="M201.77,213.89h-3.09a.15.15,0,0,0-.16.17v12.41a3.86,3.86,0,0,0,.65,2.57,2.44,2.44,0,0,0,2,.67h.41a.37.37,0,0,1,.41.41v1.74a.37.37,0,0,1-.41.41h-1a5.53,5.53,0,0,1-3.63-1c-.83-.69-1.24-2-1.24-3.91V214.06a.15.15,0,0,0-.17-.17h-1.58a.36.36,0,0,1-.41-.4v-1.34a.37.37,0,0,1,.41-.41h1.58c.11,0,.17-.05.17-.16V207a.36.36,0,0,1,.4-.41h2a.36.36,0,0,1,.4.41v4.54a.14.14,0,0,0,.16.16h3.09a.37.37,0,0,1,.41.41v1.34A.36.36,0,0,1,201.77,213.89Z" transform="translate(-59.73 -23.37)"/><path class="cls-1" d="M214.5,212a.44.44,0,0,1,.2.52l-.49,2.11c0,.25-.19.33-.49.25a3,3,0,0,0-1.7-.21,3,3,0,0,0-2.4,1.52,6.26,6.26,0,0,0-.94,3.51v12.17a.36.36,0,0,1-.4.41H206.2a.36.36,0,0,1-.4-.41V212.15a.36.36,0,0,1,.4-.41h2.08a.36.36,0,0,1,.4.41v2.43q0,.12.06.12a.22.22,0,0,0,.15-.08q1.17-3.08,3.86-3.08A3.3,3.3,0,0,1,214.5,212Z" transform="translate(-59.73 -23.37)"/><path class="cls-1" d="M227.46,211.74h2.07a.37.37,0,0,1,.41.41v19.71a.37.37,0,0,1-.41.41h-2.07a.37.37,0,0,1-.41-.41v-1.38q0-.12-.06-.12s-.08,0-.14.08a4.36,4.36,0,0,1-4.06,2.11,5.15,5.15,0,0,1-3.88-1.48,6.16,6.16,0,0,1-1.45-4.48V212.15a.37.37,0,0,1,.41-.41h2.07a.37.37,0,0,1,.41.41v13.79a4.83,4.83,0,0,0,.83,3.06,2.93,2.93,0,0,0,2.42,1,3.06,3.06,0,0,0,2.54-1.18,5.07,5.07,0,0,0,.91-3.2V212.15A.37.37,0,0,1,227.46,211.74Z" transform="translate(-59.73 -23.37)"/><path class="cls-1" d="M236.18,230.89a6.06,6.06,0,0,1-1.73-4.5v-8.77a6,6,0,0,1,1.75-4.48,6.25,6.25,0,0,1,4.59-1.72,7.2,7.2,0,0,1,3.38.77,5.74,5.74,0,0,1,2.25,2.05,5.23,5.23,0,0,1,.8,2.82v.4a.37.37,0,0,1-.41.41l-2.07.08a.36.36,0,0,1-.41-.41v-.28a3.17,3.17,0,0,0-1-2.33,3.41,3.41,0,0,0-2.54-1,3.18,3.18,0,0,0-2.5,1.08,4.11,4.11,0,0,0-.95,2.82v8.35a4.09,4.09,0,0,0,.95,2.82,3.18,3.18,0,0,0,2.5,1.08,3.41,3.41,0,0,0,2.54-1,3.17,3.17,0,0,0,1-2.33v-.28a.36.36,0,0,1,.41-.41l2.07,0a.37.37,0,0,1,.41.41V227a5.21,5.21,0,0,1-1.77,4,6.66,6.66,0,0,1-4.66,1.6A6.3,6.3,0,0,1,236.18,230.89Z" transform="translate(-59.73 -23.37)"/><path class="cls-1" d="M258,213.89h-3.09a.15.15,0,0,0-.17.17v12.41a3.86,3.86,0,0,0,.65,2.57,2.45,2.45,0,0,0,2,.67h.4a.37.37,0,0,1,.41.41v1.74a.37.37,0,0,1-.41.41h-1a5.56,5.56,0,0,1-3.64-1c-.83-.69-1.24-2-1.24-3.91V214.06a.15.15,0,0,0-.16-.17H250.1a.36.36,0,0,1-.41-.4v-1.34a.37.37,0,0,1,.41-.41h1.59a.14.14,0,0,0,.16-.16V207a.36.36,0,0,1,.41-.41h2a.36.36,0,0,1,.4.41v4.54c0,.11.06.16.17.16H258a.36.36,0,0,1,.4.41v1.34A.35.35,0,0,1,258,213.89Z" transform="translate(-59.73 -23.37)"/><path class="cls-1" d="M262.07,207.36a2.26,2.26,0,0,1,1.65-3.89,2.16,2.16,0,0,1,1.6.63,2.42,2.42,0,0,1,0,3.26,2.1,2.1,0,0,1-1.6.65A2.17,2.17,0,0,1,262.07,207.36Zm.22,24.5V212.15a.37.37,0,0,1,.41-.41h2.07a.37.37,0,0,1,.41.41v19.71a.37.37,0,0,1-.41.41H262.7A.37.37,0,0,1,262.29,231.86Z" transform="translate(-59.73 -23.37)"/><path class="cls-1" d="M271.7,230.89a6.05,6.05,0,0,1-1.72-4.5v-8.72a6.13,6.13,0,0,1,1.74-4.51,7.1,7.1,0,0,1,9.31,0,6.1,6.1,0,0,1,1.75,4.51v8.72a6,6,0,0,1-1.75,4.5,7.25,7.25,0,0,1-9.33,0Zm7.2-1.91a3.91,3.91,0,0,0,1-2.8v-8.35a4,4,0,0,0-1-2.82,3.31,3.31,0,0,0-2.54-1.08,3.24,3.24,0,0,0-2.52,1.08,4,4,0,0,0-1,2.82v8.35a4,4,0,0,0,1,2.8,3.29,3.29,0,0,0,2.52,1.06A3.36,3.36,0,0,0,278.9,229Z" transform="translate(-59.73 -23.37)"/><path class="cls-1" d="M298.45,213.16a7.42,7.42,0,0,1,1.36,4.75v14a.37.37,0,0,1-.41.41h-2.07a.37.37,0,0,1-.41-.41V218.15a4.85,4.85,0,0,0-.87-3.08,2.93,2.93,0,0,0-2.42-1.1,3.06,3.06,0,0,0-2.54,1.18,5.07,5.07,0,0,0-.91,3.2v13.51a.37.37,0,0,1-.41.41H287.7a.37.37,0,0,1-.41-.41V212.15a.37.37,0,0,1,.41-.41h2.07a.37.37,0,0,1,.41.41v1.3a.12.12,0,0,0,.08.12c.05,0,.09,0,.12-.08a4.47,4.47,0,0,1,1.85-1.52,5.69,5.69,0,0,1,2.38-.51A4.65,4.65,0,0,1,298.45,213.16Z" transform="translate(-59.73 -23.37)"/><path class="cls-1" d="M324,213.14a6.48,6.48,0,0,1,1.55,4.48v8.77a6.43,6.43,0,0,1-1.55,4.52,5.29,5.29,0,0,1-4.1,1.68,5.53,5.53,0,0,1-2.15-.42,4.88,4.88,0,0,1-1.79-1.32c-.06-.06-.11-.07-.15,0a.12.12,0,0,0-.06.12v8.8a.35.35,0,0,1-.4.4h-2.08a.35.35,0,0,1-.4-.4V212.15a.36.36,0,0,1,.4-.41h2.08a.36.36,0,0,1,.4.41v.93a.09.09,0,0,0,.08.1c.06,0,.11,0,.17-.06a4.61,4.61,0,0,1,1.77-1.28,5.62,5.62,0,0,1,2.13-.42A5.22,5.22,0,0,1,324,213.14ZM321.7,215a3.31,3.31,0,0,0-2.54-1.08A3.14,3.14,0,0,0,316.7,215a4.07,4.07,0,0,0-1,2.82v8.35a4.05,4.05,0,0,0,1,2.82,3.14,3.14,0,0,0,2.46,1.08A3.31,3.31,0,0,0,321.7,229a4,4,0,0,0,1-2.82v-8.35A4,4,0,0,0,321.7,215Z" transform="translate(-59.73 -23.37)"/><path class="cls-1" d="M338.75,212a.42.42,0,0,1,.2.52l-.49,2.11c0,.25-.19.33-.48.25a2.63,2.63,0,0,0-1.22-.25,2.72,2.72,0,0,0-.49,0,3,3,0,0,0-2.4,1.52,6.33,6.33,0,0,0-.93,3.51v12.17a.37.37,0,0,1-.41.41h-2.07a.37.37,0,0,1-.41-.41V212.15a.37.37,0,0,1,.41-.41h2.07a.37.37,0,0,1,.41.41v2.43q0,.12.06.12a.19.19,0,0,0,.14-.08c.79-2.05,2.07-3.08,3.86-3.08A3.28,3.28,0,0,1,338.75,212Z" transform="translate(-59.73 -23.37)"/><path class="cls-1" d="M343,230.89a6,6,0,0,1-1.73-4.5v-8.72a6.1,6.1,0,0,1,1.75-4.51,7.08,7.08,0,0,1,9.3,0,6.1,6.1,0,0,1,1.75,4.51v8.72a6,6,0,0,1-1.75,4.5,6.41,6.41,0,0,1-4.67,1.7A6.35,6.35,0,0,1,343,230.89Zm7.19-1.91a3.91,3.91,0,0,0,1-2.8v-8.35a4,4,0,0,0-1-2.82,3.3,3.3,0,0,0-2.54-1.08,3.24,3.24,0,0,0-2.52,1.08,4,4,0,0,0-1,2.82v8.35a3.94,3.94,0,0,0,1,2.8,3.29,3.29,0,0,0,2.52,1.06A3.35,3.35,0,0,0,350.23,229Z" transform="translate(-59.73 -23.37)"/><path class="cls-1" d="M369.74,213.1a6.39,6.39,0,0,1,1.57,4.52v8.77a6.48,6.48,0,0,1-1.55,4.48,5.28,5.28,0,0,1-4.14,1.72,5.49,5.49,0,0,1-2.12-.42,5.09,5.09,0,0,1-1.79-1.28c0-.06-.1-.07-.14,0a.12.12,0,0,0-.06.12v.89a.37.37,0,0,1-.41.41H359a.37.37,0,0,1-.41-.41V204.28a.36.36,0,0,1,.41-.4h2.07a.36.36,0,0,1,.41.4V213a.12.12,0,0,0,.08.12c.06,0,.11,0,.16-.08a4.94,4.94,0,0,1,1.75-1.24,5.49,5.49,0,0,1,2.12-.42A5.37,5.37,0,0,1,369.74,213.1Zm-2.3,1.91a3.28,3.28,0,0,0-2.56-1.08,3.05,3.05,0,0,0-2.43,1.08,4.11,4.11,0,0,0-.94,2.82v8.39a4,4,0,0,0,.94,2.78,3.05,3.05,0,0,0,2.43,1.08,3.28,3.28,0,0,0,2.56-1.08,4,4,0,0,0,1-2.78v-8.39A4,4,0,0,0,367.44,215Z" transform="translate(-59.73 -23.37)"/><path class="cls-1" d="M387.69,223.1h-9.27a.14.14,0,0,0-.16.16v3a4,4,0,0,0,.95,2.78,3.18,3.18,0,0,0,2.5,1.08,3.31,3.31,0,0,0,2.22-.79,3.71,3.71,0,0,0,1.19-2c.09-.25.23-.37.45-.37l2,.08a.4.4,0,0,1,.29.12.35.35,0,0,1,.08.33,5.78,5.78,0,0,1-2,3.79,6.42,6.42,0,0,1-4.29,1.4,6.3,6.3,0,0,1-4.61-1.7,6.06,6.06,0,0,1-1.73-4.5v-8.77a6.07,6.07,0,0,1,1.73-4.48,7.09,7.09,0,0,1,9.26,0,6,6,0,0,1,1.73,4.48v5.07C388.09,223,388,223.1,387.69,223.1ZM379.21,215a4.06,4.06,0,0,0-.95,2.82v2.71c0,.11.05.17.16.17h6.66a.15.15,0,0,0,.17-.17v-2.71a4,4,0,0,0-1-2.82,3.28,3.28,0,0,0-2.56-1.08A3.18,3.18,0,0,0,379.21,215Z" transform="translate(-59.73 -23.37)"/><path class="cls-1" d="M401.77,230.89a6.06,6.06,0,0,1-1.73-4.5v-8.77a6,6,0,0,1,1.75-4.48,6.25,6.25,0,0,1,4.59-1.72,7.2,7.2,0,0,1,3.38.77,5.74,5.74,0,0,1,2.25,2.05,5.22,5.22,0,0,1,.79,2.82v.4a.36.36,0,0,1-.4.41l-2.07.08a.36.36,0,0,1-.41-.41v-.28a3.17,3.17,0,0,0-1-2.33,3.41,3.41,0,0,0-2.54-1,3.18,3.18,0,0,0-2.5,1.08,4.11,4.11,0,0,0-.95,2.82v8.35a4.09,4.09,0,0,0,.95,2.82,3.18,3.18,0,0,0,2.5,1.08,3.41,3.41,0,0,0,2.54-1,3.17,3.17,0,0,0,1-2.33v-.28a.36.36,0,0,1,.41-.41l2.07,0a.36.36,0,0,1,.4.41V227a5.2,5.2,0,0,1-1.76,4,6.66,6.66,0,0,1-4.66,1.6A6.3,6.3,0,0,1,401.77,230.89Z" transform="translate(-59.73 -23.37)"/><path class="cls-1" d="M418.11,230.89a6.06,6.06,0,0,1-1.73-4.5v-8.72a6.1,6.1,0,0,1,1.75-4.51,6.27,6.27,0,0,1,4.63-1.74,6.36,6.36,0,0,1,4.68,1.74,6.13,6.13,0,0,1,1.74,4.51v8.72a6,6,0,0,1-1.74,4.5,6.45,6.45,0,0,1-4.68,1.7A6.35,6.35,0,0,1,418.11,230.89ZM425.3,229a3.87,3.87,0,0,0,1-2.8v-8.35a4,4,0,0,0-1-2.82,3.3,3.3,0,0,0-2.54-1.08,3.24,3.24,0,0,0-2.52,1.08,4,4,0,0,0-1,2.82v8.35a3.94,3.94,0,0,0,1,2.8,3.29,3.29,0,0,0,2.52,1.06A3.35,3.35,0,0,0,425.3,229Z" transform="translate(-59.73 -23.37)"/><path class="cls-1" d="M444.85,213.16a7.42,7.42,0,0,1,1.36,4.75v14a.36.36,0,0,1-.4.41h-2.07a.36.36,0,0,1-.41-.41V218.15a4.85,4.85,0,0,0-.87-3.08A2.94,2.94,0,0,0,440,214a3,3,0,0,0-2.54,1.18,5.07,5.07,0,0,0-.92,3.2v13.51a.36.36,0,0,1-.4.41H434.1a.36.36,0,0,1-.4-.41V212.15a.36.36,0,0,1,.4-.41h2.08a.36.36,0,0,1,.4.41v1.3a.14.14,0,0,0,.08.12c.06,0,.1,0,.12-.08a4.53,4.53,0,0,1,1.85-1.52,5.69,5.69,0,0,1,2.38-.51A4.64,4.64,0,0,1,444.85,213.16Z" transform="translate(-59.73 -23.37)"/><path class="cls-1" d="M457.76,213.89h-3.09c-.11,0-.16.06-.16.17v12.41a3.81,3.81,0,0,0,.65,2.57,2.42,2.42,0,0,0,2,.67h.41a.36.36,0,0,1,.4.41v1.74a.36.36,0,0,1-.4.41h-1a5.56,5.56,0,0,1-3.64-1c-.83-.69-1.24-2-1.24-3.91V214.06c0-.11-.05-.17-.16-.17h-1.59a.35.35,0,0,1-.4-.4v-1.34a.36.36,0,0,1,.4-.41h1.59a.14.14,0,0,0,.16-.16V207a.37.37,0,0,1,.41-.41h2a.37.37,0,0,1,.41.41v4.54a.14.14,0,0,0,.16.16h3.09a.36.36,0,0,1,.4.41v1.34A.35.35,0,0,1,457.76,213.89Z" transform="translate(-59.73 -23.37)"/><path class="cls-1" d="M470.48,212a.42.42,0,0,1,.2.52l-.48,2.11c0,.25-.19.33-.49.25a2.63,2.63,0,0,0-1.22-.25,2.72,2.72,0,0,0-.49,0,3,3,0,0,0-2.4,1.52,6.33,6.33,0,0,0-.93,3.51v12.17a.37.37,0,0,1-.41.41h-2.07a.37.37,0,0,1-.41-.41V212.15a.37.37,0,0,1,.41-.41h2.07a.37.37,0,0,1,.41.41v2.43q0,.12.06.12a.19.19,0,0,0,.14-.08c.79-2.05,2.07-3.08,3.86-3.08A3.28,3.28,0,0,1,470.48,212Z" transform="translate(-59.73 -23.37)"/><path class="cls-1" d="M484.14,213.26a7,7,0,0,1,1.7,4.93v13.67a.36.36,0,0,1-.4.41h-2.08a.36.36,0,0,1-.4-.41v-1.22a.1.1,0,0,0-.06-.1.16.16,0,0,0-.14.06,5.31,5.31,0,0,1-4.52,2,6.1,6.1,0,0,1-3.88-1.28c-1.1-.85-1.64-2.36-1.64-4.52s.66-4,2-5a8.07,8.07,0,0,1,5.24-1.6h2.85A.14.14,0,0,0,483,220V218.4a5.15,5.15,0,0,0-.94-3.25,3,3,0,0,0-2.52-1.22,2.93,2.93,0,0,0-2.09.82,3.33,3.33,0,0,0-1,2.06.36.36,0,0,1-.4.41l-2.28,0a.36.36,0,0,1-.3-.12.3.3,0,0,1-.06-.29,5.45,5.45,0,0,1,1.95-3.87,6.41,6.41,0,0,1,4.31-1.48A5.91,5.91,0,0,1,484.14,213.26ZM481.74,229a3.77,3.77,0,0,0,1.22-3v-3.41a.15.15,0,0,0-.16-.16h-2.89a4.43,4.43,0,0,0-3.09,1,3.91,3.91,0,0,0-1.14,3.06,3.56,3.56,0,0,0,.88,2.65,3.06,3.06,0,0,0,2.29.88A4.22,4.22,0,0,0,481.74,229Z" transform="translate(-59.73 -23.37)"/><path class="cls-1" d="M491.64,230.89a6,6,0,0,1-1.73-4.5v-8.77a6,6,0,0,1,1.75-4.48,6.23,6.23,0,0,1,4.59-1.72,7.16,7.16,0,0,1,3.37.77,5.7,5.7,0,0,1,2.26,2.05,5.22,5.22,0,0,1,.79,2.82v.4a.36.36,0,0,1-.4.41l-2.08.08a.36.36,0,0,1-.4-.41v-.28a3.2,3.2,0,0,0-1-2.33,3.41,3.41,0,0,0-2.54-1,3.18,3.18,0,0,0-2.5,1.08,4.07,4.07,0,0,0-1,2.82v8.35a4.05,4.05,0,0,0,1,2.82,3.18,3.18,0,0,0,2.5,1.08,3.41,3.41,0,0,0,2.54-1,3.2,3.2,0,0,0,1-2.33v-.28a.36.36,0,0,1,.4-.41l2.08,0a.36.36,0,0,1,.4.41V227a5.21,5.21,0,0,1-1.77,4,6.65,6.65,0,0,1-4.65,1.6A6.3,6.3,0,0,1,491.64,230.89Z" transform="translate(-59.73 -23.37)"/><path class="cls-1" d="M513.4,213.89h-3.09c-.11,0-.16.06-.16.17v12.41a3.86,3.86,0,0,0,.65,2.57,2.43,2.43,0,0,0,2,.67h.41a.37.37,0,0,1,.41.41v1.74a.37.37,0,0,1-.41.41h-1a5.56,5.56,0,0,1-3.64-1c-.82-.69-1.23-2-1.23-3.91V214.06a.15.15,0,0,0-.17-.17h-1.58a.36.36,0,0,1-.41-.4v-1.34a.37.37,0,0,1,.41-.41h1.58c.11,0,.17-.05.17-.16V207a.36.36,0,0,1,.4-.41h2a.37.37,0,0,1,.41.41v4.54a.14.14,0,0,0,.16.16h3.09a.37.37,0,0,1,.41.41v1.34A.36.36,0,0,1,513.4,213.89Z" transform="translate(-59.73 -23.37)"/><path class="cls-1" d="M517.53,207.36a2.26,2.26,0,0,1,1.64-3.89,2.19,2.19,0,0,1,1.61.63,2.42,2.42,0,0,1,0,3.26,2.13,2.13,0,0,1-1.61.65A2.16,2.16,0,0,1,517.53,207.36Zm.22,24.5V212.15a.37.37,0,0,1,.41-.41h2.07a.37.37,0,0,1,.41.41v19.71a.37.37,0,0,1-.41.41h-2.07A.37.37,0,0,1,517.75,231.86Z" transform="translate(-59.73 -23.37)"/><path class="cls-1" d="M537,213.16a7.48,7.48,0,0,1,1.36,4.75v14a.37.37,0,0,1-.41.41h-2.07a.37.37,0,0,1-.41-.41V218.15a4.85,4.85,0,0,0-.87-3.08,2.93,2.93,0,0,0-2.42-1.1,3.06,3.06,0,0,0-2.54,1.18,5.07,5.07,0,0,0-.91,3.2v13.51a.37.37,0,0,1-.41.41h-2.07a.37.37,0,0,1-.41-.41V212.15a.37.37,0,0,1,.41-.41h2.07a.37.37,0,0,1,.41.41v1.3a.12.12,0,0,0,.08.12s.09,0,.12-.08a4.47,4.47,0,0,1,1.85-1.52,5.65,5.65,0,0,1,2.38-.51A4.65,4.65,0,0,1,537,213.16Z" transform="translate(-59.73 -23.37)"/><path class="cls-1" d="M552.87,211.74h2.07a.37.37,0,0,1,.41.41v19.71q0,4.33-2,6.59t-6.73,2.05a.41.41,0,0,1-.41-.45v-1.74a.37.37,0,0,1,.41-.41c2.17.06,3.68-.44,4.55-1.48a7.38,7.38,0,0,0,1.3-4.8V230.4a.14.14,0,0,0-.06-.12s-.09,0-.14,0a4.45,4.45,0,0,1-1.77,1.54,5.18,5.18,0,0,1-2.3.53,5.08,5.08,0,0,1-4-1.71,6.58,6.58,0,0,1-1.48-4.5v-8.56a6.58,6.58,0,0,1,1.48-4.52,5.12,5.12,0,0,1,4-1.68,5.3,5.3,0,0,1,2.3.51,4.25,4.25,0,0,1,1.77,1.52c0,.08.1.11.14.1s.06-.06.06-.14v-1.26A.37.37,0,0,1,552.87,211.74Zm-1.36,17.06a4.06,4.06,0,0,0,1-2.78v-8.19a4.11,4.11,0,0,0-1-2.82,3.14,3.14,0,0,0-2.46-1.08,3.24,3.24,0,0,0-2.52,1.08,4,4,0,0,0-1,2.82V226a4,4,0,0,0,1,2.78,3.23,3.23,0,0,0,2.52,1.07A3.13,3.13,0,0,0,551.51,228.8Z" transform="translate(-59.73 -23.37)"/><path class="cls-2" d="M270.87,148.34v27.44h27.25v-9.31l10.09,2.1v5.11c0,8.14-2.61,10.24-10.76,10.24h-25.9c-8.16,0-10.77-2.1-10.77-10.24V150.86c0-8.14,2.61-10.24,10.77-10.24h25.9c8.15,0,10.76,2.1,10.76,10.24V155l-10.09,1.6v-8.23Z" transform="translate(-59.73 -23.37)"/><path class="cls-2" d="M321.33,140.62H358.5c6.64,0,9.75,2.35,9.75,8.39v9.65c0,6.05-3.11,8.39-9.75,8.39H331.25v16.87h-9.92Zm9.92,7.47v11.5H354c3.11,0,4.54-.59,4.54-3.44v-4.62c0-2.85-1.43-3.44-4.54-3.44Z" transform="translate(-59.73 -23.37)"/><path class="cls-2" d="M385.24,148.34v27.44h27.25v-9.31l10.09,2.1v5.11c0,8.14-2.61,10.24-10.76,10.24h-25.9c-8.16,0-10.77-2.1-10.77-10.24V150.86c0-8.14,2.61-10.24,10.77-10.24h25.9c8.15,0,10.76,2.1,10.76,10.24V155l-10.09,1.6v-8.23Z" transform="translate(-59.73 -23.37)"/><polygon class="cls-1" points="39.27 217.32 0 217.32 0 0 69.43 0 69.43 55.51 60.32 55.51 60.32 9.09 9.11 9.09 9.11 208.23 30.16 208.23 30.16 106.45 113.65 40.99 165.28 81.55 498.68 81.55 498.68 90.64 162.12 90.64 113.64 52.56 39.27 110.87 39.27 217.32"/><path class="cls-1" d="M170.45,279.78c0,.78,0,1.53.1,2.24a4.41,4.41,0,0,0,.63,1.91,2.72,2.72,0,0,0,.62.76,3,3,0,0,0,.85.51,5,5,0,0,0,1.15.28,10.88,10.88,0,0,0,1.48.09h8.08a10.88,10.88,0,0,0,1.48-.09,5.28,5.28,0,0,0,1.14-.28,2.92,2.92,0,0,0,.86-.51,2.72,2.72,0,0,0,.62-.76,4.54,4.54,0,0,0,.63-1.94c.07-.72.11-1.48.11-2.29v-9.38h4.21l0,9.46c0,.61,0,1.2,0,1.76a11.27,11.27,0,0,1-.2,1.65,9,9,0,0,1-.47,1.53,7.39,7.39,0,0,1-.81,1.47,5.65,5.65,0,0,1-1.41,1.4,6.31,6.31,0,0,1-1.53.74,6,6,0,0,1-1.54.29c-.5,0-1,.06-1.42.06H173.69c-.43,0-.9,0-1.4-.06a6.14,6.14,0,0,1-1.54-.29,6.37,6.37,0,0,1-1.54-.74,5.43,5.43,0,0,1-1.44-1.4,6,6,0,0,1-.81-1.44,8.84,8.84,0,0,1-.45-1.6,11.79,11.79,0,0,1-.2-1.7c0-.58,0-1.17,0-1.75v-5.39h4.2Zm5.14-12.19v-3.22h4v3.22Zm5.45,0v-3.22h4.05v3.22Z" transform="translate(-59.73 -23.37)"/><path class="cls-1" d="M194.56,288.66v-3.11H200l-4.82-21.12h4.07l4.81,21.12H205a5.5,5.5,0,0,0,1.81-.25,2.53,2.53,0,0,0,1.12-.85,3.22,3.22,0,0,0,.62-1.51,10,10,0,0,0,.14-1.76V264.45h4.05V282.4a7.81,7.81,0,0,1-.15,1.69,6.54,6.54,0,0,1-.38,1.33,5,5,0,0,1-.58,1,6.41,6.41,0,0,1-.68.76,5,5,0,0,1-1.17.79,5.58,5.58,0,0,1-1.24.45,7.25,7.25,0,0,1-1.32.2c-.45,0-.92,0-1.41,0Z" transform="translate(-59.73 -23.37)"/><path class="cls-1" d="M216.15,291.62h7.73l.76,0c.27,0,.58,0,.9-.09a3.3,3.3,0,0,0,1.73-.71,3.26,3.26,0,0,0,1.09-2.11h-6.52c-.47,0-1,0-1.46-.06a6.44,6.44,0,0,1-1.5-.3,5.46,5.46,0,0,1-1.41-.7,4.43,4.43,0,0,1-1.19-1.3c-.95-1.46-1.42-3.82-1.42-7.1a18.91,18.91,0,0,1,.35-3.87,6.55,6.55,0,0,1,1.59-3,5.64,5.64,0,0,1,1.35-1.11,6.09,6.09,0,0,1,1.43-.61,7.51,7.51,0,0,1,1.46-.23c.49,0,1,0,1.42,0h5.93a11.52,11.52,0,0,1,1.57.09,2.89,2.89,0,0,1,1.41.63,2.51,2.51,0,0,1,.88,1.32,4.94,4.94,0,0,1,.21,1.34v12.87a17,17,0,0,1-.3,3.3,5.88,5.88,0,0,1-1.19,2.63,4.91,4.91,0,0,1-1.5,1.19,7.49,7.49,0,0,1-1.73.66,10.62,10.62,0,0,1-1.65.29c-.52,0-1,.07-1.27.07h-8.67Zm12.24-16.72a2.48,2.48,0,0,0-.08-.66,1,1,0,0,0-.44-.52,1.37,1.37,0,0,0-.54-.22,2.32,2.32,0,0,0-.53-.05h-3.47a5.4,5.4,0,0,0-1.85.29,3,3,0,0,0-1.3.84,3.34,3.34,0,0,0-.66,1.19,9.34,9.34,0,0,0-.33,1.44c-.06.49-.1.94-.12,1.36s0,.75,0,1a17.52,17.52,0,0,0,.1,2.08,12.27,12.27,0,0,0,.25,1.45,4.55,4.55,0,0,0,.33.92,2.24,2.24,0,0,0,.35.5,2.73,2.73,0,0,0,1.63.95c.31.05.63.08.94.1s.61,0,.91,0h4.82Z" transform="translate(-59.73 -23.37)"/><path class="cls-1" d="M242.1,288.66c-.49,0-1,0-1.41,0a7.25,7.25,0,0,1-1.32-.2,5.85,5.85,0,0,1-1.25-.45,5.19,5.19,0,0,1-1.16-.79,6.41,6.41,0,0,1-.68-.76,4.6,4.6,0,0,1-.58-1,7.23,7.23,0,0,1-.39-1.33,8.54,8.54,0,0,1-.14-1.69v-18h4.05v16.75a10,10,0,0,0,.14,1.76,3.22,3.22,0,0,0,.62,1.51,2.53,2.53,0,0,0,1.12.85,5.5,5.5,0,0,0,1.81.25h2v3.11Z" transform="translate(-59.73 -23.37)"/><path class="cls-1" d="M244.55,285.57h3a6.2,6.2,0,0,1-.76-1.55,10.94,10.94,0,0,1-.59-3.13c0-.49,0-.93,0-1.33s0-1.09.07-1.76a12.34,12.34,0,0,1,.31-2,9.94,9.94,0,0,1,.71-2,5.41,5.41,0,0,1,1.28-1.72,5.67,5.67,0,0,1,1.7-1.09,10.07,10.07,0,0,1,1.94-.58,14.69,14.69,0,0,1,2-.23c.66,0,1.26,0,1.81,0s1.16,0,1.81,0a14.73,14.73,0,0,1,2,.23,10.29,10.29,0,0,1,1.94.58,5.48,5.48,0,0,1,1.71,1.09,5.27,5.27,0,0,1,1.28,1.72,9.14,9.14,0,0,1,.7,2,10.94,10.94,0,0,1,.31,2c.05.64.07,1.19.07,1.67a14.12,14.12,0,0,1-.4,3.67,9,9,0,0,1-1,2.47h3v3.11h-22.7Zm5.78-6c0,.38,0,.77,0,1.16a7.63,7.63,0,0,0,.13,1.16,7,7,0,0,0,.35,1.13,3.78,3.78,0,0,0,.67,1.06,3.66,3.66,0,0,0,.9.78,4.87,4.87,0,0,0,1,.45,6.16,6.16,0,0,0,1.07.23,8,8,0,0,0,1.08.07h.33a11.12,11.12,0,0,0,1.16-.06,5.42,5.42,0,0,0,1.15-.2,4.41,4.41,0,0,0,1.08-.45,4.15,4.15,0,0,0,1-.82,4.23,4.23,0,0,0,.72-1,4.5,4.5,0,0,0,.36-1.11,7.5,7.5,0,0,0,.14-1.16c0-.39,0-.79,0-1.2v-1.1c0-.3,0-.62-.06-.95a5.84,5.84,0,0,0-.18-1,6.56,6.56,0,0,0-.37-1,3.36,3.36,0,0,0-.58-.83,4,4,0,0,0-1-.77,5,5,0,0,0-1.1-.44,5.83,5.83,0,0,0-1.17-.19c-.38,0-.76,0-1.14,0s-.69,0-1.09,0a6.24,6.24,0,0,0-1.2.19,5.43,5.43,0,0,0-1.16.44,3.19,3.19,0,0,0-1,.77,3.25,3.25,0,0,0-.68,1.15,7.39,7.39,0,0,0-.33,1.33,8.42,8.42,0,0,0-.13,1.3C250.34,278.88,250.33,279.24,250.33,279.53Zm.85-11.94v-3.22h4v3.22Zm5.46,0v-3.22h4v3.22Z" transform="translate(-59.73 -23.37)"/><path class="cls-1" d="M281.72,288.88c-.55,0-1.16,0-1.81-.05a13.74,13.74,0,0,1-2-.25A10.42,10.42,0,0,1,276,288a6,6,0,0,1-1.7-1.08l-.15-.14a4.87,4.87,0,0,1-1.26,1,7.11,7.11,0,0,1-1.41.58,9,9,0,0,1-1.45.27,13.47,13.47,0,0,1-1.39.07h-1.81v-3.11h.68c.27,0,.59,0,.93,0a4,4,0,0,0,1.06-.21,3.36,3.36,0,0,0,1-.56,3,3,0,0,0,.82-1.07,5.31,5.31,0,0,0,.34-1,9.38,9.38,0,0,0,.26-2c0-.23,0-.44,0-.63v-.56c0-.5,0-1.09.07-1.76a13.5,13.5,0,0,1,.31-2,11.35,11.35,0,0,1,.71-2,5.41,5.41,0,0,1,1.28-1.72A5.8,5.8,0,0,1,276,271a10.42,10.42,0,0,1,1.93-.58,15.22,15.22,0,0,1,2-.23c.65,0,1.26,0,1.81,0s1.16,0,1.81,0a14.73,14.73,0,0,1,2,.23,10.39,10.39,0,0,1,1.95.58,5.55,5.55,0,0,1,1.7,1.09,5.27,5.27,0,0,1,1.28,1.72,9.18,9.18,0,0,1,.71,2,11.84,11.84,0,0,1,.3,2c0,.64.07,1.19.07,1.67a15.8,15.8,0,0,1-.36,3.62,8.9,8.9,0,0,1-.95,2.52h3.26v3.11H287.1Zm-4.44-14.19a4.27,4.27,0,0,0-.75,1.41,7.51,7.51,0,0,0-.3,1.57,12.45,12.45,0,0,0-.06,1.61c0,.52,0,1,0,1.5a9.23,9.23,0,0,0,.29,1.81,4.24,4.24,0,0,0,.88,1.66,3.92,3.92,0,0,0,1,.81,4.32,4.32,0,0,0,1.1.45,5.13,5.13,0,0,0,1.16.2,9.14,9.14,0,0,0,1.15.06,8.92,8.92,0,0,0,1.16-.06,5,5,0,0,0,1.15-.2,4.06,4.06,0,0,0,1.08-.45,3.88,3.88,0,0,0,1-.81,3.8,3.8,0,0,0,.71-1.08,6.08,6.08,0,0,0,.36-1.17,7.36,7.36,0,0,0,.14-1.24c0-.41,0-.82,0-1.23v-1.1c0-.3,0-.62,0-.95a7,7,0,0,0-.19-1,4.88,4.88,0,0,0-.37-1,3.36,3.36,0,0,0-.58-.83,4.14,4.14,0,0,0-1-.77,5.24,5.24,0,0,0-1.11-.44,5.85,5.85,0,0,0-1.16-.19c-.39,0-.77,0-1.15,0s-.69,0-1.09,0a6.24,6.24,0,0,0-1.2.19,5.43,5.43,0,0,0-1.16.44A3.35,3.35,0,0,0,277.28,274.69Z" transform="translate(-59.73 -23.37)"/><path class="cls-1" d="M293.16,288.66v-3.11h.41a5.54,5.54,0,0,0,1.81-.25,2.53,2.53,0,0,0,1.12-.85,3.68,3.68,0,0,0,.6-1.44,11,11,0,0,0,.16-1.67,1.36,1.36,0,0,0,0-.16c0-.07,0-.27,0-.6v-4.41c0-1.24,0-2.82,0-4.72s0-4.24,0-7h4.05v16.44l.09,2.5a2.44,2.44,0,0,0,.64,1.15,2.91,2.91,0,0,0,1,.66,4.26,4.26,0,0,0,1.18.3,10,10,0,0,0,1.19.07h.44v3.11h-1.66c-.4,0-.8,0-1.22,0a9.27,9.27,0,0,1-1.24-.18,5.77,5.77,0,0,1-1.23-.42,4.23,4.23,0,0,1-1.12-.75,4.57,4.57,0,0,1-1.13.74,5.78,5.78,0,0,1-1.21.42,7.71,7.71,0,0,1-1.29.17c-.44,0-.89,0-1.37,0Z" transform="translate(-59.73 -23.37)"/><path class="cls-1" d="M305.5,288.66v-3.11h2a5.57,5.57,0,0,0,1.82-.25,2.53,2.53,0,0,0,1.12-.85,3.44,3.44,0,0,0,.62-1.51,10,10,0,0,0,.14-1.76V264.43h4.05v18a9.37,9.37,0,0,1-.14,1.69,6.52,6.52,0,0,1-.4,1.33,4.58,4.58,0,0,1-.57,1,5.68,5.68,0,0,1-.69.76,4.92,4.92,0,0,1-1.15.79,5.85,5.85,0,0,1-1.25.45,7.39,7.39,0,0,1-1.32.2c-.46,0-.92,0-1.41,0Z" transform="translate(-59.73 -23.37)"/><path class="cls-1" d="M324.94,291.72c.55,0,1,0,1.44,0a7.72,7.72,0,0,0,1.08-.12,3.69,3.69,0,0,0,.83-.25,3.84,3.84,0,0,0,.72-.42,3.3,3.3,0,0,0,.62-.55,3,3,0,0,0,.44-.72,4.67,4.67,0,0,0,.27-1,8,8,0,0,0,.09-1.29V270.34h4.05v17.88a7.78,7.78,0,0,1-.25,2.11,6.6,6.6,0,0,1-.63,1.51,5.12,5.12,0,0,1-.77,1,6.91,6.91,0,0,1-.7.63,7.1,7.1,0,0,1-2.85,1.13,19.57,19.57,0,0,1-4.34.22Z" transform="translate(-59.73 -23.37)"/><path class="cls-1" d="M343.78,288.66c-.48,0-.95,0-1.41,0a7.53,7.53,0,0,1-1.32-.2,5.77,5.77,0,0,1-1.24-.45,5,5,0,0,1-1.16-.79,5.68,5.68,0,0,1-.69-.76,4.58,4.58,0,0,1-.57-1,7.21,7.21,0,0,1-.4-1.33,9.37,9.37,0,0,1-.14-1.69v-18h4v16.75a10,10,0,0,0,.14,1.76,3.44,3.44,0,0,0,.62,1.51,2.53,2.53,0,0,0,1.12.85,5.61,5.61,0,0,0,1.82.25h2v3.11Z" transform="translate(-59.73 -23.37)"/><path class="cls-1" d="M361,288.88c-.54,0-1.15,0-1.8-.05a13.4,13.4,0,0,1-2-.25,10.51,10.51,0,0,1-1.94-.58,6,6,0,0,1-1.7-1.08l-.15-.14a4.87,4.87,0,0,1-1.26,1,6.87,6.87,0,0,1-1.41.58,9,9,0,0,1-1.45.27,13.29,13.29,0,0,1-1.38.07h-1.81v-3.11h.67c.27,0,.59,0,.93,0a4,4,0,0,0,1.06-.21,3.36,3.36,0,0,0,1-.56,3.09,3.09,0,0,0,.83-1.07,6.38,6.38,0,0,0,.33-1,9.38,9.38,0,0,0,.26-2c0-.23,0-.44,0-.63v-.56c0-.5,0-1.09.07-1.76a13.5,13.5,0,0,1,.31-2,11.35,11.35,0,0,1,.71-2,5.41,5.41,0,0,1,1.28-1.72,5.8,5.8,0,0,1,1.7-1.09,10.51,10.51,0,0,1,1.94-.58,14.83,14.83,0,0,1,2-.23c.65,0,1.26,0,1.8,0s1.16,0,1.81,0a14.73,14.73,0,0,1,2,.23,10.39,10.39,0,0,1,1.95.58,5.55,5.55,0,0,1,1.7,1.09,5.44,5.44,0,0,1,1.29,1.72,9.7,9.7,0,0,1,.7,2,13,13,0,0,1,.31,2c0,.64.06,1.19.06,1.67a15.8,15.8,0,0,1-.36,3.62,8.91,8.91,0,0,1-.94,2.52h3.25v3.11h-6.35Zm-4.43-14.19a4.13,4.13,0,0,0-.76,1.41,8.22,8.22,0,0,0-.3,1.57,12.45,12.45,0,0,0-.06,1.61c0,.52,0,1,0,1.5a9.23,9.23,0,0,0,.29,1.81,4.24,4.24,0,0,0,.88,1.66,3.92,3.92,0,0,0,1,.81,4.32,4.32,0,0,0,1.1.45,5.13,5.13,0,0,0,1.16.2,9.14,9.14,0,0,0,1.15.06,8.92,8.92,0,0,0,1.16-.06,4.86,4.86,0,0,0,1.15-.2,4.06,4.06,0,0,0,1.08-.45,3.92,3.92,0,0,0,1-.81,4,4,0,0,0,.7-1.08,6.91,6.91,0,0,0,.37-1.17,8.55,8.55,0,0,0,.13-1.24c0-.41,0-.82,0-1.23v-1.1c0-.3,0-.62-.05-.95a7,7,0,0,0-.19-1,4.88,4.88,0,0,0-.37-1,3.36,3.36,0,0,0-.58-.83,4.14,4.14,0,0,0-1-.77,5.24,5.24,0,0,0-1.11-.44,5.73,5.73,0,0,0-1.16-.19c-.39,0-.77,0-1.15,0s-.69,0-1.09,0a6.24,6.24,0,0,0-1.2.19,5.43,5.43,0,0,0-1.16.44A3.31,3.31,0,0,0,356.61,274.69Z" transform="translate(-59.73 -23.37)"/><path class="cls-1" d="M372.38,285.57h3.3a6.75,6.75,0,0,1-.57-1.29,12.1,12.1,0,0,1-.32-1.41,14.15,14.15,0,0,1-.14-1.5c0-.52,0-1.06,0-1.62s0-1.15,0-1.8a11,11,0,0,1,.24-2,9.39,9.39,0,0,1,.62-1.95,5.72,5.72,0,0,1,1.91-2.35,5.35,5.35,0,0,1,1.13-.65,8.91,8.91,0,0,1,1.6-.5,10.08,10.08,0,0,1,2.17-.2h7.88v3.11h-6.56a6.15,6.15,0,0,0-1.8.23,4.56,4.56,0,0,0-1.31.63,3.6,3.6,0,0,0-.89.94,4,4,0,0,0-.52,1.11,7.22,7.22,0,0,0-.16.87c0,.34-.07.67-.09,1s0,.64,0,.93,0,.5,0,.65,0,.57,0,.91.05.68.09,1,.1.68.17,1a4.5,4.5,0,0,0,.31.84,3.08,3.08,0,0,0,.88,1,3.8,3.8,0,0,0,1.15.59,6.07,6.07,0,0,0,1.28.27c.44,0,.87.06,1.3.06h6.59v3.11H372.38Z" transform="translate(-59.73 -23.37)"/><path class="cls-1" d="M392.79,288.66v-3.11h5.44l-4.81-21.12h4.07l4.81,21.12h.92a5.54,5.54,0,0,0,1.81-.25,2.45,2.45,0,0,0,1.11-.85,3.23,3.23,0,0,0,.63-1.51,11.11,11.11,0,0,0,.14-1.76V264.45h4V282.4a8.54,8.54,0,0,1-.14,1.69,6.54,6.54,0,0,1-.38,1.33,5,5,0,0,1-.58,1,5.68,5.68,0,0,1-.69.76A5,5,0,0,1,408,288a5.49,5.49,0,0,1-1.25.45,7,7,0,0,1-1.32.2c-.45,0-.92,0-1.4,0Z" transform="translate(-59.73 -23.37)"/><path class="cls-1" d="M413.58,264.43h4.07v24.25h-4.07Z" transform="translate(-59.73 -23.37)"/><path class="cls-1" d="M427.12,291.72c.55,0,1,0,1.44,0a7.72,7.72,0,0,0,1.08-.12,3.76,3.76,0,0,0,.82-.25,3.3,3.3,0,0,0,.72-.42,3.36,3.36,0,0,0,.63-.55,3,3,0,0,0,.44-.72,5.39,5.39,0,0,0,.27-1,8,8,0,0,0,.09-1.29V270.34h4.05v17.88a7.75,7.75,0,0,1-.26,2.11,7.08,7.08,0,0,1-.62,1.51,5.53,5.53,0,0,1-.77,1,6.87,6.87,0,0,1-.71.63,7,7,0,0,1-2.85,1.13,19.47,19.47,0,0,1-4.33.22Z" transform="translate(-59.73 -23.37)"/><path class="cls-1" d="M446,288.66c-.48,0-1,0-1.41,0a7.25,7.25,0,0,1-1.32-.2A5.58,5.58,0,0,1,442,288a5,5,0,0,1-1.16-.79,5.68,5.68,0,0,1-.69-.76,4.58,4.58,0,0,1-.57-1,6.52,6.52,0,0,1-.4-1.33,9.37,9.37,0,0,1-.14-1.69v-18h4.05v16.75a11.12,11.12,0,0,0,.13,1.76,3.45,3.45,0,0,0,.63,1.51,2.47,2.47,0,0,0,1.12.85,5.54,5.54,0,0,0,1.81.25h2v3.11Z" transform="translate(-59.73 -23.37)"/><path class="cls-1" d="M448.43,288.66v-3.11h.41a5.5,5.5,0,0,0,1.81-.25,2.53,2.53,0,0,0,1.12-.85,3.54,3.54,0,0,0,.6-1.44,9.86,9.86,0,0,0,.16-1.67,1.77,1.77,0,0,1,0-.22v-.23h0V270.32h4.05v10.57l.08,2.5a2.63,2.63,0,0,0,.65,1.15,3.11,3.11,0,0,0,1,.66,4.24,4.24,0,0,0,1.19.3,9.8,9.8,0,0,0,1.18.07h.44v3.11h-1.66c-.4,0-.8,0-1.21,0a9.18,9.18,0,0,1-1.25-.18,5.69,5.69,0,0,1-1.22-.42,4.27,4.27,0,0,1-1.13-.75,4.93,4.93,0,0,1-1.12.74,6.07,6.07,0,0,1-1.22.42,7.73,7.73,0,0,1-1.28.17c-.45,0-.91,0-1.38,0Zm4,6v-3.23h4v3.23Z" transform="translate(-59.73 -23.37)"/><path class="cls-1" d="M460.68,288.69v-3.11h3V270.35h4.07v15.23h7V270.35h4.07v15.23h3.78l.59,0a3,3,0,0,0,.65-.12,2.18,2.18,0,0,0,.64-.25,1.93,1.93,0,0,0,.57-.47,2.21,2.21,0,0,0,.41-.6,4.23,4.23,0,0,0,.24-.68,4.18,4.18,0,0,0,.11-.68c0-.22,0-.44,0-.64V270.35h4.06v12.39a7.18,7.18,0,0,1-.55,2.83h2.61v3.11Z" transform="translate(-59.73 -23.37)"/><path class="cls-1" d="M491.52,288.68v-3.11h.67c.27,0,.59,0,.93,0a4,4,0,0,0,1.06-.21,3.36,3.36,0,0,0,1-.56,3.09,3.09,0,0,0,.83-1.07,7.43,7.43,0,0,0,.34-1,9.51,9.51,0,0,0,.25-2c0-.23,0-.44,0-.63v-.56c0-.5,0-1.09.07-1.76a13.5,13.5,0,0,1,.31-2,11.35,11.35,0,0,1,.71-2,5.56,5.56,0,0,1,1.28-1.72,5.72,5.72,0,0,1,1.71-1.09,10.19,10.19,0,0,1,1.93-.58,14.83,14.83,0,0,1,2-.23c.65,0,1.26,0,1.8,0s1.16,0,1.81,0a14.54,14.54,0,0,1,2,.23,10.39,10.39,0,0,1,1.95.58,5.72,5.72,0,0,1,1.71,1.09,5.56,5.56,0,0,1,1.28,1.72,9.7,9.7,0,0,1,.7,2,13,13,0,0,1,.31,2c0,.64.06,1.19.06,1.67a17.71,17.71,0,0,1-.18,2.65,11.16,11.16,0,0,1-.49,2.08,8.2,8.2,0,0,1-.74,1.6,6.24,6.24,0,0,1-.94,1.16,5.42,5.42,0,0,1-1.69,1.08,10.58,10.58,0,0,1-2,.58,14.19,14.19,0,0,1-2,.25c-.65,0-1.24.05-1.77.05s-1.15,0-1.8-.05a13.4,13.4,0,0,1-2-.25,10.19,10.19,0,0,1-1.93-.58,5.89,5.89,0,0,1-1.71-1.08l-.15-.14a4.87,4.87,0,0,1-1.26,1,6.87,6.87,0,0,1-1.41.58,9,9,0,0,1-1.45.27,13.29,13.29,0,0,1-1.38.07Zm10.45-14a4.13,4.13,0,0,0-.76,1.41,8.22,8.22,0,0,0-.3,1.57,12.45,12.45,0,0,0-.06,1.61c0,.52,0,1,0,1.5a9.23,9.23,0,0,0,.29,1.81,4.24,4.24,0,0,0,.88,1.66,3.92,3.92,0,0,0,1,.81,4.32,4.32,0,0,0,1.1.45,5.13,5.13,0,0,0,1.16.2,9.14,9.14,0,0,0,1.15.06,8.92,8.92,0,0,0,1.16-.06,4.86,4.86,0,0,0,1.15-.2,4.06,4.06,0,0,0,1.08-.45,3.92,3.92,0,0,0,1-.81,4,4,0,0,0,.7-1.08,6.91,6.91,0,0,0,.37-1.17,8.55,8.55,0,0,0,.13-1.24c0-.41,0-.82,0-1.23v-1.1c0-.3,0-.62-.05-.95a7,7,0,0,0-.19-1,4.88,4.88,0,0,0-.37-1,3.36,3.36,0,0,0-.58-.83,4.14,4.14,0,0,0-1-.77,5.24,5.24,0,0,0-1.11-.44,5.73,5.73,0,0,0-1.16-.19c-.39,0-.77,0-1.15,0s-.69,0-1.09,0a6.24,6.24,0,0,0-1.2.19,5.43,5.43,0,0,0-1.16.44A3.31,3.31,0,0,0,502,274.69Z" transform="translate(-59.73 -23.37)"/></svg>