<?xml version="1.0" encoding="UTF-8"?>
<svg xmlns="http://www.w3.org/2000/svg" xmlns:xlink="http://www.w3.org/1999/xlink" width="640pt" height="429.7pt" viewBox="0 0 640 429.7" version="1.1">
<defs>
<clipPath id="clip1">
  <path d="M 3 395 L 633 395 L 633 429.699219 L 3 429.699219 Z M 3 395 "/>
</clipPath>
</defs>
<g id="surface1">
<path style=" stroke:none;fill-rule:evenodd;fill:rgb(91.796875%,86.326599%,0%);fill-opacity:1;" d="M 213.773438 280.277344 C 211.046875 281.519531 208.28125 282.671875 205.484375 283.734375 C 206.855469 286.605469 208.304688 289.429688 209.835938 292.199219 C 212.742188 290.796875 215.613281 289.300781 218.445313 287.714844 C 216.808594 285.289063 215.253906 282.808594 213.773438 280.277344 Z M 213.773438 280.277344 "/>
<path style=" stroke:none;fill-rule:evenodd;fill:rgb(62.304688%,62.304688%,63.084412%);fill-opacity:1;" d="M 29.445313 182.824219 L 4.527344 162.746094 C 4.527344 162.746094 27.816406 125.53125 70.320313 129.523438 C 70.320313 129.523438 106.246094 131.402344 117.289063 160.289063 C 117.289063 160.289063 129.757813 198.824219 101.113281 224.3125 C 101.113281 224.3125 55.71875 264.121094 37.511719 274.074219 L 59.117188 264.851563 L 122.234375 264.851563 L 122.234375 295.921875 L 2.3125 295.921875 L 2.3125 266.550781 L 68.828125 212.902344 C 82.871094 201.574219 93.273438 178.792969 76.105469 164.761719 C 71.71875 161.179688 65.914063 159.40625 59.21875 160.59375 C 47.1875 162.738281 36.023438 175.324219 29.445313 182.824219 Z M 29.445313 182.824219 "/>
<path style=" stroke:none;fill-rule:evenodd;fill:rgb(62.304688%,62.304688%,63.084412%);fill-opacity:1;" d="M 343.121094 161.355469 L 343.09375 131.5 L 452.519531 131.5 L 452.519531 158.164063 L 411.414063 198.433594 C 411.414063 198.433594 445.804688 201.882813 454.171875 234.070313 C 463.597656 270.34375 431.472656 300.863281 393.078125 298.140625 C 393.078125 298.140625 360.0625 299.710938 334.121094 269.445313 L 356.914063 247.042969 C 356.914063 247.042969 373.820313 269.054688 398.1875 265.910156 C 398.1875 265.910156 419.492188 265.910156 420.5625 247.183594 C 421.96875 222.511719 392.660156 221.597656 373.820313 223.851563 L 368.316406 201.839844 L 420.984375 149.167969 L 400.152344 161.355469 Z M 343.121094 161.355469 "/>
<path style=" stroke:none;fill-rule:evenodd;fill:rgb(62.304688%,62.304688%,63.084412%);fill-opacity:1;" d="M 554.128906 127.640625 C 601.453125 127.640625 640.058594 166.007813 640.058594 213.046875 C 640.058594 260.082031 601.453125 298.449219 554.128906 298.449219 C 506.796875 298.449219 468.199219 260.082031 468.199219 213.046875 C 468.199219 166.007813 506.796875 127.640625 554.128906 127.640625 Z M 554.128906 160.226563 C 581.359375 160.226563 603.570313 183.953125 603.570313 213.046875 C 603.570313 242.136719 581.359375 265.863281 554.128906 265.863281 C 526.894531 265.863281 504.683594 242.136719 504.683594 213.046875 C 504.683594 183.953125 526.894531 160.226563 554.128906 160.226563 Z M 554.128906 160.226563 "/>
<path style=" stroke:none;fill-rule:evenodd;fill:rgb(91.796875%,86.326599%,0%);fill-opacity:1;" d="M 234.527344 141.949219 C 236.5625 139.964844 238.675781 138.046875 240.871094 136.195313 C 238.84375 133.855469 236.730469 131.582031 234.527344 129.386719 C 232.324219 131.582031 230.210938 133.855469 228.183594 136.195313 C 230.378906 138.046875 232.496094 139.96875 234.527344 141.949219 Z M 234.527344 141.949219 "/>
<path style=" stroke:none;fill-rule:evenodd;fill:rgb(58.006287%,74.804688%,4.315186%);fill-opacity:1;" d="M 234.734375 117.828125 C 237.523438 114.988281 240.441406 112.265625 243.46875 109.660156 C 240.6875 106.246094 237.773438 102.972656 234.734375 99.824219 C 231.695313 102.972656 228.777344 106.246094 225.996094 109.660156 C 229.027344 112.265625 231.945313 114.988281 234.734375 117.828125 Z M 234.734375 117.828125 "/>
<path style=" stroke:none;fill-rule:evenodd;fill:rgb(62.304688%,62.304688%,63.084412%);fill-opacity:1;" d="M 246.617188 131.632813 C 249.328125 129.609375 252.136719 127.679688 255.039063 125.851563 C 253.121094 122.789063 251.113281 119.800781 249.007813 116.886719 C 246.015625 119.121094 243.121094 121.460938 240.351563 123.914063 C 242.53125 126.414063 244.621094 128.988281 246.617188 131.632813 Z M 246.617188 131.632813 "/>
<path style=" stroke:none;fill-rule:evenodd;fill:rgb(35.693359%,76.5625%,80.46875%);fill-opacity:1;" d="M 263.648438 159.152344 C 262.664063 156.90625 261.613281 154.695313 260.515625 152.515625 C 263.078125 151.574219 265.675781 150.722656 268.304688 149.949219 C 269.316406 152.402344 270.269531 154.882813 271.164063 157.398438 C 268.628906 157.898438 266.121094 158.480469 263.648438 159.152344 Z M 263.648438 159.152344 "/>
<path style=" stroke:none;fill-rule:evenodd;fill:rgb(58.006287%,74.804688%,4.315186%);fill-opacity:1;" d="M 252.632813 162.78125 C 251.496094 160.953125 250.3125 159.15625 249.0625 157.394531 C 251.132813 156.382813 253.234375 155.421875 255.363281 154.53125 C 256.535156 156.523438 257.648438 158.554688 258.703125 160.613281 C 256.652344 161.273438 254.628906 161.996094 252.632813 162.78125 Z M 252.632813 162.78125 "/>
<path style=" stroke:none;fill-rule:evenodd;fill:rgb(58.006287%,74.804688%,4.315186%);fill-opacity:1;" d="M 256.808594 145.675781 C 255.308594 143.082031 253.726563 140.539063 252.066406 138.050781 C 254.847656 136.507813 257.664063 135.050781 260.519531 133.679688 C 262.074219 136.507813 263.539063 139.394531 264.929688 142.328125 C 262.191406 143.355469 259.484375 144.476563 256.808594 145.675781 Z M 256.808594 145.675781 "/>
<path style=" stroke:none;fill-rule:evenodd;fill:rgb(35.693359%,76.5625%,80.46875%);fill-opacity:1;" d="M 244.808594 151.789063 C 243.132813 149.722656 241.378906 147.710938 239.546875 145.75 C 241.800781 144.21875 244.085938 142.75 246.402344 141.339844 C 248.152344 143.585938 249.816406 145.894531 251.398438 148.25 C 249.171875 149.367188 246.972656 150.546875 244.808594 151.789063 Z M 244.808594 151.789063 "/>
<path style=" stroke:none;fill-rule:evenodd;fill:rgb(0%,24.705505%,54.101563%);fill-opacity:1;" d="M 222.699219 131.832031 C 224.6875 129.191406 226.765625 126.617188 228.9375 124.121094 C 226.171875 121.667969 223.296875 119.320313 220.316406 117.085938 C 218.222656 119.992188 216.21875 122.976563 214.3125 126.035156 C 217.203125 127.867188 220.003906 129.804688 222.699219 131.832031 Z M 222.699219 131.832031 "/>
<path style=" stroke:none;fill-rule:evenodd;fill:rgb(0%,69.726563%,90.625%);fill-opacity:1;" d="M 234.527344 283.929688 C 236.5625 285.914063 238.675781 287.832031 240.871094 289.683594 C 238.84375 292.023438 236.730469 294.296875 234.527344 296.492188 C 232.324219 294.296875 230.210938 292.023438 228.183594 289.683594 C 230.378906 287.832031 232.496094 285.910156 234.527344 283.929688 Z M 234.527344 283.929688 "/>
<path style=" stroke:none;fill-rule:evenodd;fill:rgb(91.796875%,86.326599%,0%);fill-opacity:1;" d="M 234.734375 308.050781 C 237.523438 310.890625 240.441406 313.613281 243.46875 316.21875 C 240.6875 319.632813 237.773438 322.90625 234.734375 326.054688 C 231.695313 322.90625 228.777344 319.632813 225.996094 316.21875 C 229.027344 313.613281 231.945313 310.890625 234.734375 308.050781 Z M 234.734375 308.050781 "/>
<path style=" stroke:none;fill-rule:evenodd;fill:rgb(35.693359%,76.5625%,80.46875%);fill-opacity:1;" d="M 246.617188 294.246094 C 249.328125 296.269531 252.136719 298.199219 255.039063 300.027344 C 253.121094 303.089844 251.113281 306.078125 249.007813 308.992188 C 246.015625 306.757813 243.121094 304.417969 240.351563 301.964844 C 242.53125 299.464844 244.621094 296.890625 246.617188 294.246094 Z M 246.617188 294.246094 "/>
<path style=" stroke:none;fill-rule:evenodd;fill:rgb(58.006287%,74.804688%,4.315186%);fill-opacity:1;" d="M 222.699219 294.046875 C 224.6875 296.6875 226.765625 299.261719 228.9375 301.757813 C 226.171875 304.210938 223.296875 306.558594 220.316406 308.792969 C 218.222656 305.886719 216.21875 302.902344 214.3125 299.84375 C 217.203125 298.011719 220.003906 296.074219 222.699219 294.046875 Z M 222.699219 294.046875 "/>
<path style=" stroke:none;fill-rule:evenodd;fill:rgb(91.796875%,86.326599%,0%);fill-opacity:1;" d="M 275.835938 154.742188 C 278.640625 154.304688 281.476563 153.972656 284.339844 153.734375 C 284.046875 150.652344 283.640625 147.574219 283.121094 144.507813 C 280.054688 145.019531 277.015625 145.644531 274.007813 146.375 C 274.71875 149.15625 275.328125 151.949219 275.835938 154.742188 Z M 275.835938 154.742188 "/>
<path style=" stroke:none;fill-rule:evenodd;fill:rgb(0%,69.726563%,90.625%);fill-opacity:1;" d="M 289.996094 135.214844 C 293.914063 134.519531 297.871094 133.996094 301.847656 133.628906 C 301.566406 129.238281 301.089844 124.875 300.441406 120.550781 C 296.140625 121.351563 291.863281 122.324219 287.621094 123.492188 C 288.574219 127.371094 289.371094 131.28125 289.996094 135.214844 Z M 289.996094 135.214844 "/>
<path style=" stroke:none;fill-rule:evenodd;fill:rgb(35.693359%,76.5625%,80.46875%);fill-opacity:1;" d="M 291.664063 153.355469 C 295.046875 153.277344 298.453125 153.335938 301.878906 153.53125 C 302.097656 149.925781 302.195313 146.324219 302.164063 142.730469 C 298.433594 142.8125 294.722656 143.042969 291.039063 143.429688 C 291.367188 146.730469 291.574219 150.039063 291.664063 153.355469 Z M 291.664063 153.355469 "/>
<path style=" stroke:none;fill-rule:evenodd;fill:rgb(62.304688%,62.304688%,63.084412%);fill-opacity:1;" d="M 291.820313 170.703125 C 292.105469 167.722656 292.289063 164.730469 292.378906 161.742188 C 295.539063 162.097656 298.683594 162.546875 301.800781 163.085938 C 301.425781 166.292969 300.949219 169.492188 300.378906 172.6875 C 297.550781 171.933594 294.695313 171.277344 291.820313 170.703125 Z M 291.820313 170.703125 "/>
<path style=" stroke:none;fill-rule:evenodd;fill:rgb(58.006287%,74.804688%,4.315186%);fill-opacity:1;" d="M 278.496094 168.71875 C 278.335938 166.066406 278.070313 163.410156 277.714844 160.75 C 280.441406 160.8125 283.15625 160.9375 285.859375 161.136719 C 285.980469 163.980469 285.996094 166.824219 285.921875 169.660156 C 283.460938 169.277344 280.984375 168.964844 278.496094 168.71875 Z M 278.496094 168.71875 "/>
<path style=" stroke:none;fill-rule:evenodd;fill:rgb(62.304688%,62.304688%,63.084412%);fill-opacity:1;" d="M 266.773438 168.726563 C 266.191406 166.660156 265.546875 164.601563 264.835938 162.5625 C 267.109375 162.164063 269.390625 161.824219 271.6875 161.558594 C 272.261719 163.800781 272.765625 166.058594 273.203125 168.328125 C 271.054688 168.394531 268.910156 168.53125 266.773438 168.726563 Z M 266.773438 168.726563 "/>
<path style=" stroke:none;fill-rule:evenodd;fill:rgb(0%,24.705505%,54.101563%);fill-opacity:1;" d="M 272.070313 139.640625 C 275.222656 138.640625 278.40625 137.753906 281.621094 136.976563 C 280.796875 133.375 279.816406 129.796875 278.683594 126.246094 C 275.289063 127.398438 271.929688 128.667969 268.601563 130.054688 C 269.894531 133.222656 271.050781 136.421875 272.070313 139.640625 Z M 272.070313 139.640625 "/>
<path style=" stroke:none;fill-rule:evenodd;fill:rgb(91.796875%,86.326599%,0%);fill-opacity:1;" d="M 193.460938 270.382813 C 193.96875 273.179688 194.578125 275.96875 195.289063 278.753906 C 192.28125 279.480469 189.242188 280.105469 186.171875 280.617188 C 185.652344 277.550781 185.246094 274.472656 184.953125 271.390625 C 187.816406 271.15625 190.65625 270.820313 193.460938 270.382813 Z M 193.460938 270.382813 "/>
<path style=" stroke:none;fill-rule:evenodd;fill:rgb(0%,69.726563%,90.625%);fill-opacity:1;" d="M 191.855469 257.160156 C 192.019531 259.8125 192.28125 262.46875 192.636719 265.128906 C 189.910156 265.066406 187.199219 264.9375 184.492188 264.742188 C 184.371094 261.898438 184.355469 259.054688 184.429688 256.21875 C 186.894531 256.597656 189.371094 256.914063 191.855469 257.160156 Z M 191.855469 257.160156 "/>
<path style=" stroke:none;fill-rule:evenodd;fill:rgb(0%,69.726563%,90.625%);fill-opacity:1;" d="M 179.636719 290.148438 C 180.257813 294.082031 181.054688 297.992188 182.011719 301.871094 C 177.765625 303.039063 173.492188 304.011719 169.191406 304.816406 C 168.539063 300.488281 168.066406 296.125 167.78125 291.734375 C 171.757813 291.371094 175.714844 290.847656 179.636719 290.148438 Z M 179.636719 290.148438 "/>
<path style=" stroke:none;fill-rule:evenodd;fill:rgb(35.693359%,76.5625%,80.46875%);fill-opacity:1;" d="M 197.324219 285.800781 C 198.355469 289.023438 199.523438 292.222656 200.828125 295.398438 C 197.492188 296.78125 194.121094 298.046875 190.714844 299.195313 C 189.574219 295.644531 188.578125 292.058594 187.742188 288.453125 C 190.96875 287.683594 194.164063 286.796875 197.324219 285.800781 Z M 197.324219 285.800781 "/>
<path style=" stroke:none;fill-rule:evenodd;fill:rgb(62.304688%,62.304688%,63.084412%);fill-opacity:1;" d="M 227.160156 273.265625 C 225.054688 274.523438 222.914063 275.714844 220.757813 276.855469 C 222.300781 279.105469 223.921875 281.3125 225.617188 283.464844 C 227.859375 282.054688 230.078125 280.585938 232.265625 279.058594 C 230.488281 277.175781 228.785156 275.246094 227.160156 273.265625 Z M 227.160156 273.265625 "/>
<path style=" stroke:none;fill-rule:evenodd;fill:rgb(62.304688%,62.304688%,63.084412%);fill-opacity:1;" d="M 220.289063 263.921875 C 218.3125 264.753906 216.300781 265.527344 214.257813 266.238281 C 215.359375 268.265625 216.515625 270.265625 217.730469 272.226563 C 219.84375 271.28125 221.925781 270.273438 223.980469 269.210938 C 222.691406 267.480469 221.46875 265.71875 220.289063 263.921875 Z M 220.289063 263.921875 "/>
<path style=" stroke:none;fill-rule:evenodd;fill:rgb(0%,24.705505%,54.101563%);fill-opacity:1;" d="M 207.539063 268.335938 C 204.980469 269.046875 202.382813 269.667969 199.757813 270.199219 C 200.703125 272.753906 201.710938 275.277344 202.78125 277.769531 C 205.507813 276.953125 208.203125 276.042969 210.859375 275.042969 C 209.695313 272.839844 208.585938 270.601563 207.539063 268.335938 Z M 207.539063 268.335938 "/>
<path style=" stroke:none;fill-rule:evenodd;fill:rgb(58.006287%,74.804688%,4.315186%);fill-opacity:1;" d="M 203.71875 257.25 C 201.574219 257.375 199.414063 257.4375 197.261719 257.433594 C 197.621094 259.710938 198.050781 261.980469 198.550781 264.238281 C 200.855469 264.046875 203.15625 263.785156 205.445313 263.460938 C 204.800781 261.40625 204.230469 259.335938 203.71875 257.25 Z M 203.71875 257.25 "/>
<path style=" stroke:none;fill-rule:evenodd;fill:rgb(58.006287%,74.804688%,4.315186%);fill-opacity:1;" d="M 177.960938 271.761719 C 178.039063 275.066406 178.246094 278.367188 178.5625 281.660156 C 174.890625 282.054688 171.1875 282.300781 167.464844 282.390625 C 167.441406 278.808594 167.539063 275.214844 167.765625 271.617188 C 171.183594 271.804688 174.585938 271.847656 177.960938 271.761719 Z M 177.960938 271.761719 "/>
<path style=" stroke:none;fill-rule:evenodd;fill:rgb(91.796875%,86.326599%,0%);fill-opacity:1;" d="M 302.3125 189.855469 C 304.835938 191.15625 307.328125 192.558594 309.78125 194.054688 C 311.355469 191.386719 312.84375 188.664063 314.230469 185.878906 C 311.449219 184.484375 308.621094 183.199219 305.761719 182.015625 C 304.699219 184.683594 303.546875 187.300781 302.3125 189.855469 Z M 302.3125 189.855469 "/>
<path style=" stroke:none;fill-rule:evenodd;fill:rgb(58.006287%,74.804688%,4.315186%);fill-opacity:1;" d="M 277.234375 180.503906 C 279.324219 181 281.40625 181.558594 283.472656 182.1875 C 283.777344 179.902344 284.023438 177.605469 284.195313 175.304688 C 281.929688 174.820313 279.652344 174.410156 277.367188 174.058594 C 277.390625 176.214844 277.34375 178.363281 277.234375 180.503906 Z M 277.234375 180.503906 "/>
<path style=" stroke:none;fill-rule:evenodd;fill:rgb(0%,69.726563%,90.625%);fill-opacity:1;" d="M 290.136719 184.449219 C 292.621094 185.382813 295.089844 186.410156 297.527344 187.527344 C 298.265625 184.90625 298.9375 182.273438 299.539063 179.628906 C 296.855469 178.683594 294.140625 177.832031 291.40625 177.074219 C 291.050781 179.539063 290.628906 182 290.136719 184.449219 Z M 290.136719 184.449219 "/>
<path style=" stroke:none;fill-rule:evenodd;fill:rgb(0%,24.705505%,54.101563%);fill-opacity:1;" d="M 325.257813 182.417969 C 328.835938 184.164063 332.34375 186.070313 335.769531 188.117188 C 338.128906 184.398438 340.3125 180.597656 342.335938 176.71875 C 338.390625 174.832031 334.359375 173.101563 330.242188 171.546875 C 328.730469 175.242188 327.070313 178.871094 325.257813 182.417969 Z M 325.257813 182.417969 "/>
<path style=" stroke:none;fill-rule:evenodd;fill:rgb(58.006287%,74.804688%,4.315186%);fill-opacity:1;" d="M 315.925781 198.058594 C 318.703125 199.988281 321.421875 202.042969 324.074219 204.21875 C 326.371094 201.433594 328.574219 198.578125 330.664063 195.660156 C 327.605469 193.527344 324.46875 191.527344 321.265625 189.671875 C 319.578125 192.53125 317.800781 195.328125 315.925781 198.058594 Z M 315.925781 198.058594 "/>
<path style=" stroke:none;fill-rule:evenodd;fill:rgb(35.693359%,76.5625%,80.46875%);fill-opacity:1;" d="M 308.164063 175.433594 C 311.300781 176.480469 314.398438 177.640625 317.453125 178.910156 C 318.90625 175.511719 320.222656 172.039063 321.398438 168.507813 C 317.980469 167.441406 314.515625 166.484375 311.007813 165.644531 C 310.1875 168.96875 309.234375 172.234375 308.164063 175.433594 Z M 308.164063 175.433594 "/>
<path style=" stroke:none;fill-rule:evenodd;fill:rgb(35.693359%,76.5625%,80.46875%);fill-opacity:1;" d="M 167.628906 234.792969 C 166.394531 237.347656 165.242188 239.964844 164.179688 242.632813 C 161.316406 241.449219 158.492188 240.160156 155.710938 238.769531 C 157.101563 235.984375 158.585938 233.257813 160.164063 230.597656 C 162.617188 232.089844 165.105469 233.492188 167.628906 234.792969 Z M 167.628906 234.792969 "/>
<path style=" stroke:none;fill-rule:evenodd;fill:rgb(58.006287%,74.804688%,4.315186%);fill-opacity:1;" d="M 182.070313 212.253906 C 180.695313 213.910156 179.367188 215.605469 178.089844 217.347656 C 176.476563 215.703125 174.902344 214.011719 173.378906 212.277344 C 174.902344 210.53125 176.476563 208.835938 178.09375 207.183594 C 179.367188 208.921875 180.695313 210.609375 182.070313 212.253906 Z M 182.070313 212.253906 "/>
<path style=" stroke:none;fill-rule:evenodd;fill:rgb(91.796875%,86.326599%,0%);fill-opacity:1;" d="M 174.121094 223.15625 C 172.691406 225.398438 171.335938 227.699219 170.058594 230.058594 C 167.890625 228.40625 165.773438 226.703125 163.703125 224.949219 C 165.285156 222.582031 166.945313 220.273438 168.675781 218.023438 C 170.441406 219.78125 172.257813 221.496094 174.121094 223.15625 Z M 174.121094 223.15625 "/>
<path style=" stroke:none;fill-rule:evenodd;fill:rgb(35.693359%,76.5625%,80.46875%);fill-opacity:1;" d="M 144.816406 242.621094 C 143.003906 246.167969 141.34375 249.796875 139.828125 253.492188 C 135.714844 251.9375 131.683594 250.207031 127.734375 248.320313 C 129.757813 244.441406 131.945313 240.636719 134.300781 236.921875 C 137.730469 238.96875 141.234375 240.875 144.816406 242.621094 Z M 144.816406 242.621094 "/>
<path style=" stroke:none;fill-rule:evenodd;fill:rgb(91.796875%,86.326599%,0%);fill-opacity:1;" d="M 161.671875 249.527344 C 160.609375 252.738281 159.664063 256.011719 158.851563 259.34375 C 155.339844 258.5 151.867188 257.535156 148.441406 256.457031 C 149.609375 252.914063 150.914063 249.433594 152.363281 246.027344 C 155.425781 247.300781 158.527344 248.46875 161.671875 249.527344 Z M 161.671875 249.527344 "/>
<path style=" stroke:none;fill-rule:evenodd;fill:rgb(62.304688%,62.304688%,63.084412%);fill-opacity:1;" d="M 193.121094 245.375 C 191.027344 244.878906 188.949219 244.316406 186.878906 243.691406 C 186.574219 245.976563 186.328125 248.273438 186.160156 250.574219 C 188.421875 251.058594 190.699219 251.46875 192.984375 251.820313 C 192.960938 249.664063 193.011719 247.515625 193.121094 245.375 Z M 193.121094 245.375 "/>
<path style=" stroke:none;fill-rule:evenodd;fill:rgb(62.304688%,62.304688%,63.084412%);fill-opacity:1;" d="M 178.214844 254.75 C 175.28125 254.148438 172.367188 253.453125 169.484375 252.660156 C 168.898438 255.789063 168.410156 258.925781 168.015625 262.066406 C 171.1875 262.644531 174.390625 263.125 177.609375 263.511719 C 177.71875 260.585938 177.925781 257.667969 178.214844 254.75 Z M 178.214844 254.75 "/>
<path style=" stroke:none;fill-rule:evenodd;fill:rgb(58.006287%,74.804688%,4.315186%);fill-opacity:1;" d="M 180.21875 241.429688 C 177.726563 240.496094 175.261719 239.46875 172.824219 238.351563 C 172.085938 240.972656 171.414063 243.605469 170.8125 246.25 C 173.496094 247.195313 176.210938 248.046875 178.945313 248.804688 C 179.300781 246.335938 179.726563 243.878906 180.21875 241.429688 Z M 180.21875 241.429688 "/>
<path style=" stroke:none;fill-rule:evenodd;fill:rgb(0%,24.705505%,54.101563%);fill-opacity:1;" d="M 183.65625 230.21875 C 181.847656 229.058594 180.070313 227.839844 178.328125 226.5625 C 177.28125 228.621094 176.289063 230.703125 175.363281 232.820313 C 177.339844 234.027344 179.351563 235.167969 181.390625 236.253906 C 182.078125 234.214844 182.839844 232.207031 183.65625 230.21875 Z M 183.65625 230.21875 "/>
<path style=" stroke:none;fill-rule:evenodd;fill:rgb(0%,69.726563%,90.625%);fill-opacity:1;" d="M 154.289063 226.773438 C 152.410156 229.496094 150.632813 232.28125 148.949219 235.128906 C 145.746094 233.285156 142.609375 231.300781 139.550781 229.179688 C 141.640625 226.273438 143.839844 223.429688 146.136719 220.652344 C 148.789063 222.816406 151.511719 224.855469 154.289063 226.773438 Z M 154.289063 226.773438 "/>
<path style=" stroke:none;fill-rule:evenodd;fill:rgb(0%,24.705505%,54.101563%);fill-opacity:1;" d="M 303.003906 233.898438 C 304.277344 236.4375 305.460938 239.039063 306.558594 241.691406 C 309.40625 240.472656 312.210938 239.148438 314.976563 237.714844 C 313.550781 234.953125 312.03125 232.246094 310.414063 229.605469 C 307.984375 231.132813 305.511719 232.5625 303.003906 233.898438 Z M 303.003906 233.898438 "/>
<path style=" stroke:none;fill-rule:evenodd;fill:rgb(62.304688%,62.304688%,63.084412%);fill-opacity:1;" d="M 295.074219 202.164063 C 296.910156 203.785156 298.699219 205.457031 300.445313 207.167969 C 302.117188 205.007813 303.722656 202.792969 305.253906 200.523438 C 303.226563 198.816406 301.152344 197.152344 299.03125 195.535156 C 297.78125 197.800781 296.464844 200.011719 295.074219 202.164063 Z M 295.074219 202.164063 "/>
<path style=" stroke:none;fill-rule:evenodd;fill:rgb(35.693359%,76.5625%,80.46875%);fill-opacity:1;" d="M 288.269531 211.554688 C 289.664063 213.1875 291.015625 214.867188 292.316406 216.59375 C 293.910156 214.929688 295.460938 213.21875 296.953125 211.460938 C 295.414063 209.738281 293.820313 208.0625 292.179688 206.429688 C 290.925781 208.183594 289.621094 209.890625 288.269531 211.554688 Z M 288.269531 211.554688 "/>
<path style=" stroke:none;fill-rule:evenodd;fill:rgb(91.796875%,86.326599%,0%);fill-opacity:1;" d="M 305.835938 212.773438 C 307.847656 214.992188 309.789063 217.273438 311.65625 219.613281 C 313.972656 217.429688 316.214844 215.1875 318.386719 212.882813 C 316.164063 210.546875 313.867188 208.269531 311.492188 206.054688 C 309.679688 208.355469 307.789063 210.589844 305.835938 212.773438 Z M 305.835938 212.773438 "/>
<path style=" stroke:none;fill-rule:evenodd;fill:rgb(0%,24.705505%,54.101563%);fill-opacity:1;" d="M 296.363281 222.351563 C 297.820313 224.574219 299.203125 226.855469 300.515625 229.195313 C 302.660156 227.515625 304.753906 225.785156 306.800781 224.003906 C 305.191406 221.65625 303.496094 219.371094 301.738281 217.148438 C 299.996094 218.925781 298.203125 220.664063 296.363281 222.351563 Z M 296.363281 222.351563 "/>
<path style=" stroke:none;fill-rule:evenodd;fill:rgb(0%,69.726563%,90.625%);fill-opacity:1;" d="M 325.921875 241.425781 C 327.78125 244.949219 329.488281 248.554688 331.050781 252.230469 C 335.144531 250.617188 339.152344 248.835938 343.074219 246.898438 C 340.996094 243.046875 338.765625 239.269531 336.359375 235.585938 C 332.953125 237.679688 329.476563 239.632813 325.921875 241.425781 Z M 325.921875 241.425781 "/>
<path style=" stroke:none;fill-rule:evenodd;fill:rgb(58.006287%,74.804688%,4.315186%);fill-opacity:1;" d="M 286.222656 196.097656 C 288.078125 197.167969 289.914063 198.300781 291.71875 199.488281 C 292.664063 197.386719 293.554688 195.253906 294.371094 193.097656 C 292.34375 191.988281 290.277344 190.945313 288.1875 189.957031 C 287.597656 192.03125 286.9375 194.074219 286.222656 196.097656 Z M 286.222656 196.097656 "/>
<path style=" stroke:none;fill-rule:evenodd;fill:rgb(35.693359%,76.5625%,80.46875%);fill-opacity:1;" d="M 309.15625 248.550781 C 310.261719 251.75 311.246094 255.011719 312.105469 258.332031 C 315.609375 257.441406 319.066406 256.433594 322.480469 255.308594 C 321.261719 251.78125 319.910156 248.316406 318.414063 244.929688 C 315.371094 246.246094 312.285156 247.453125 309.15625 248.550781 Z M 309.15625 248.550781 "/>
<path style=" stroke:none;fill-rule:evenodd;fill:rgb(35.693359%,76.5625%,80.46875%);fill-opacity:1;" d="M 316.238281 225.707031 C 318.152344 228.402344 319.96875 231.164063 321.691406 233.988281 C 324.867188 232.101563 327.976563 230.078125 331.011719 227.917969 C 328.878906 225.039063 326.644531 222.222656 324.308594 219.476563 C 321.683594 221.675781 318.988281 223.75 316.238281 225.707031 Z M 316.238281 225.707031 "/>
<path style=" stroke:none;fill-rule:evenodd;fill:rgb(0%,69.726563%,90.625%);fill-opacity:1;" d="M 167.742188 190.742188 C 165.234375 192.078125 162.761719 193.511719 160.328125 195.039063 C 158.71875 192.394531 157.199219 189.691406 155.773438 186.921875 C 158.535156 185.496094 161.34375 184.171875 164.1875 182.953125 C 165.285156 185.605469 166.472656 188.203125 167.742188 190.742188 Z M 167.742188 190.742188 "/>
<path style=" stroke:none;fill-rule:evenodd;fill:rgb(35.693359%,76.5625%,80.46875%);fill-opacity:1;" d="M 144.699219 183.609375 C 141.144531 185.402344 137.664063 187.355469 134.261719 189.445313 C 131.855469 185.761719 129.621094 181.988281 127.546875 178.136719 C 131.46875 176.199219 135.476563 174.414063 139.574219 172.804688 C 141.132813 176.480469 142.839844 180.085938 144.699219 183.609375 Z M 144.699219 183.609375 "/>
<path style=" stroke:none;fill-rule:evenodd;fill:rgb(58.006287%,74.804688%,4.315186%);fill-opacity:1;" d="M 154.238281 199.125 C 151.488281 201.09375 148.796875 203.179688 146.171875 205.390625 C 143.835938 202.636719 141.597656 199.8125 139.464844 196.921875 C 142.496094 194.746094 145.609375 192.707031 148.789063 190.808594 C 150.507813 193.644531 152.324219 196.417969 154.238281 199.125 Z M 154.238281 199.125 "/>
<path style=" stroke:none;fill-rule:evenodd;fill:rgb(0%,24.705505%,54.101563%);fill-opacity:1;" d="M 164.519531 213.101563 C 162.503906 210.886719 160.5625 208.605469 158.699219 206.265625 C 156.382813 208.449219 154.136719 210.691406 151.964844 212.992188 C 154.1875 215.332031 156.488281 217.609375 158.859375 219.824219 C 160.671875 217.523438 162.5625 215.289063 164.519531 213.101563 Z M 164.519531 213.101563 "/>
<path style=" stroke:none;fill-rule:evenodd;fill:rgb(35.693359%,76.5625%,80.46875%);fill-opacity:1;" d="M 173.992188 203.527344 C 172.53125 201.304688 171.148438 199.019531 169.839844 196.679688 C 167.695313 198.363281 165.597656 200.09375 163.554688 201.871094 C 165.164063 204.21875 166.855469 206.507813 168.617188 208.730469 C 170.355469 206.949219 172.148438 205.214844 173.992188 203.527344 Z M 173.992188 203.527344 "/>
<path style=" stroke:none;fill-rule:evenodd;fill:rgb(0%,24.705505%,54.101563%);fill-opacity:1;" d="M 161.699219 176.402344 C 158.578125 177.488281 155.496094 178.691406 152.453125 179.996094 C 150.960938 176.617188 149.597656 173.167969 148.371094 169.648438 C 151.78125 168.535156 155.234375 167.535156 158.726563 166.648438 C 159.59375 169.960938 160.585938 173.214844 161.699219 176.402344 Z M 161.699219 176.402344 "/>
<path style=" stroke:none;fill-rule:evenodd;fill:rgb(58.006287%,74.804688%,4.315186%);fill-opacity:1;" d="M 277.652344 269.765625 C 277.179688 272.566406 276.605469 275.363281 275.929688 278.15625 C 278.949219 278.847656 281.996094 279.429688 285.070313 279.902344 C 285.550781 276.832031 285.914063 273.75 286.164063 270.664063 C 283.304688 270.460938 280.460938 270.164063 277.652344 269.765625 Z M 277.652344 269.765625 "/>
<path style=" stroke:none;fill-rule:evenodd;fill:rgb(91.796875%,86.326599%,0%);fill-opacity:1;" d="M 289.945313 239.453125 C 290.476563 241.84375 290.933594 244.25 291.335938 246.65625 C 293.953125 245.902344 296.558594 245.058594 299.136719 244.125 C 298.503906 241.550781 297.808594 238.984375 297.046875 236.429688 C 294.703125 237.523438 292.335938 238.53125 289.945313 239.453125 Z M 289.945313 239.453125 "/>
<path style=" stroke:none;fill-rule:evenodd;fill:rgb(35.693359%,76.5625%,80.46875%);fill-opacity:1;" d="M 278.914063 243.027344 C 279.078125 245.171875 279.179688 247.324219 279.210938 249.484375 C 281.480469 249.078125 283.742188 248.609375 285.988281 248.074219 C 285.757813 245.773438 285.453125 243.476563 285.09375 241.191406 C 283.046875 241.871094 280.988281 242.480469 278.914063 243.027344 Z M 278.914063 243.027344 "/>
<path style=" stroke:none;fill-rule:evenodd;fill:rgb(58.006287%,74.804688%,4.315186%);fill-opacity:1;" d="M 292.382813 254.367188 C 292.703125 257.34375 292.933594 260.332031 293.058594 263.320313 C 296.214844 262.921875 299.351563 262.433594 302.460938 261.851563 C 302.039063 258.652344 301.527344 255.457031 300.914063 252.269531 C 298.097656 253.0625 295.253906 253.753906 292.382813 254.367188 Z M 292.382813 254.367188 "/>
<path style=" stroke:none;fill-rule:evenodd;fill:rgb(62.304688%,62.304688%,63.084412%);fill-opacity:1;" d="M 279.089844 256.519531 C 278.953125 259.175781 278.730469 261.835938 278.410156 264.5 C 281.132813 264.402344 283.84375 264.238281 286.546875 264.007813 C 286.628906 261.164063 286.609375 258.320313 286.496094 255.484375 C 284.039063 255.898438 281.570313 256.242188 279.089844 256.519531 Z M 279.089844 256.519531 "/>
<path style=" stroke:none;fill-rule:evenodd;fill:rgb(58.006287%,74.804688%,4.315186%);fill-opacity:1;" d="M 291.730469 289.351563 C 291.15625 293.292969 290.410156 297.210938 289.503906 301.101563 C 293.761719 302.214844 298.050781 303.136719 302.363281 303.878906 C 302.953125 299.546875 303.371094 295.179688 303.601563 290.785156 C 299.621094 290.472656 295.660156 289.996094 291.730469 289.351563 Z M 291.730469 289.351563 "/>
<path style=" stroke:none;fill-rule:evenodd;fill:rgb(62.304688%,62.304688%,63.084412%);fill-opacity:1;" d="M 286.367188 229.332031 C 287.238281 231.296875 288.054688 233.292969 288.8125 235.316406 C 290.816406 234.171875 292.789063 232.976563 294.722656 231.714844 C 293.734375 229.625 292.679688 227.5625 291.574219 225.53125 C 289.871094 226.859375 288.136719 228.121094 286.367188 229.332031 Z M 286.367188 229.332031 "/>
<path style=" stroke:none;fill-rule:evenodd;fill:rgb(35.693359%,76.5625%,80.46875%);fill-opacity:1;" d="M 273.984375 285.230469 C 272.996094 288.464844 271.867188 291.679688 270.605469 294.871094 C 273.953125 296.210938 277.347656 297.433594 280.765625 298.539063 C 281.863281 294.972656 282.8125 291.375 283.601563 287.761719 C 280.367188 287.03125 277.160156 286.183594 273.984375 285.230469 Z M 273.984375 285.230469 "/>
<path style=" stroke:none;fill-rule:evenodd;fill:rgb(91.796875%,86.326599%,0%);fill-opacity:1;" d="M 243.992188 273.078125 C 246.113281 274.308594 248.265625 275.472656 250.441406 276.585938 C 248.925781 278.855469 247.328125 281.082031 245.664063 283.253906 C 243.40625 281.875 241.164063 280.433594 238.960938 278.933594 C 240.714844 277.03125 242.390625 275.082031 243.992188 273.078125 Z M 243.992188 273.078125 "/>
<path style=" stroke:none;fill-rule:evenodd;fill:rgb(62.304688%,62.304688%,63.084412%);fill-opacity:1;" d="M 250.738281 263.648438 C 252.730469 264.453125 254.753906 265.199219 256.800781 265.886719 C 255.726563 267.925781 254.597656 269.941406 253.40625 271.917969 C 251.28125 271 249.1875 270.019531 247.117188 268.980469 C 248.386719 267.238281 249.589844 265.457031 250.738281 263.648438 Z M 250.738281 263.648438 "/>
<path style=" stroke:none;fill-rule:evenodd;fill:rgb(62.304688%,62.304688%,63.084412%);fill-opacity:1;" d="M 257.46875 279.917969 C 260.210938 281.125 262.988281 282.242188 265.800781 283.269531 C 264.464844 286.15625 263.050781 288.996094 261.558594 291.789063 C 258.632813 290.421875 255.746094 288.964844 252.890625 287.414063 C 254.496094 284.96875 256.019531 282.464844 257.46875 279.917969 Z M 257.46875 279.917969 "/>
<path style=" stroke:none;fill-rule:evenodd;fill:rgb(58.006287%,74.804688%,4.315186%);fill-opacity:1;" d="M 263.539063 267.894531 C 266.113281 268.574219 268.71875 269.160156 271.355469 269.660156 C 270.441406 272.226563 269.464844 274.765625 268.425781 277.269531 C 265.691406 276.488281 262.984375 275.609375 260.316406 274.644531 C 261.453125 272.429688 262.527344 270.175781 263.539063 267.894531 Z M 263.539063 267.894531 "/>
<path style=" stroke:none;fill-rule:evenodd;fill:rgb(0%,24.705505%,54.101563%);fill-opacity:1;" d="M 235.429688 266.609375 C 237.039063 268.035156 238.691406 269.417969 240.394531 270.75 C 238.695313 272.3125 236.953125 273.832031 235.171875 275.296875 C 233.476563 273.71875 231.828125 272.09375 230.230469 270.421875 C 232.007813 269.203125 233.738281 267.929688 235.429688 266.609375 Z M 235.429688 266.609375 "/>
<path style=" stroke:none;fill-rule:evenodd;fill:rgb(62.304688%,62.304688%,63.084412%);fill-opacity:1;" d="M 267.226563 256.761719 C 269.371094 256.863281 271.527344 256.894531 273.6875 256.863281 C 273.351563 259.148438 272.953125 261.421875 272.484375 263.683594 C 270.175781 263.523438 267.871094 263.289063 265.578125 262.996094 C 266.195313 260.933594 266.742188 258.855469 267.226563 256.761719 Z M 267.226563 256.761719 "/>
<path style=" stroke:none;fill-rule:evenodd;fill:rgb(0%,24.705505%,54.101563%);fill-opacity:1;" d="M 293.171875 270.945313 C 293.128906 274.25 292.96875 277.554688 292.691406 280.847656 C 296.371094 281.199219 300.078125 281.394531 303.800781 281.433594 C 303.777344 277.855469 303.628906 274.261719 303.359375 270.667969 C 299.945313 270.898438 296.539063 270.988281 293.171875 270.945313 Z M 293.171875 270.945313 "/>
<path style=" stroke:none;fill-rule:evenodd;fill:rgb(91.796875%,86.326599%,0%);fill-opacity:1;" d="M 193.800781 155.1875 C 190.988281 154.789063 188.148438 154.488281 185.28125 154.292969 C 185.539063 151.207031 185.902344 148.125 186.382813 145.046875 C 189.453125 145.523438 192.503906 146.105469 195.523438 146.796875 C 194.847656 149.589844 194.273438 152.386719 193.800781 155.1875 Z M 193.800781 155.1875 "/>
<path style=" stroke:none;fill-rule:evenodd;fill:rgb(91.796875%,86.326599%,0%);fill-opacity:1;" d="M 226.414063 152.640625 C 224.289063 151.410156 222.140625 150.246094 219.964844 149.132813 C 221.480469 146.863281 223.070313 144.636719 224.738281 142.464844 C 226.996094 143.84375 229.234375 145.285156 231.441406 146.785156 C 229.691406 148.6875 228.015625 150.636719 226.414063 152.640625 Z M 226.414063 152.640625 "/>
<path style=" stroke:none;fill-rule:evenodd;fill:rgb(62.304688%,62.304688%,63.084412%);fill-opacity:1;" d="M 219.664063 162.070313 C 217.675781 161.265625 215.652344 160.519531 213.605469 159.835938 C 214.679688 157.792969 215.808594 155.777344 216.996094 153.800781 C 219.121094 154.71875 221.21875 155.699219 223.285156 156.738281 C 222.019531 158.480469 220.816406 160.261719 219.664063 162.070313 Z M 219.664063 162.070313 "/>
<path style=" stroke:none;fill-rule:evenodd;fill:rgb(0%,69.726563%,90.625%);fill-opacity:1;" d="M 212.933594 145.800781 C 210.195313 144.597656 207.414063 143.476563 204.605469 142.453125 C 205.9375 139.5625 207.351563 136.722656 208.847656 133.933594 C 211.769531 135.296875 214.660156 136.757813 217.511719 138.304688 C 215.90625 140.753906 214.386719 143.253906 212.933594 145.800781 Z M 212.933594 145.800781 "/>
<path style=" stroke:none;fill-rule:evenodd;fill:rgb(58.006287%,74.804688%,4.315186%);fill-opacity:1;" d="M 206.863281 157.824219 C 204.289063 157.144531 201.683594 156.558594 199.050781 156.058594 C 199.964844 153.492188 200.941406 150.957031 201.980469 148.449219 C 204.714844 149.230469 207.421875 150.109375 210.089844 151.074219 C 208.953125 153.289063 207.871094 155.542969 206.863281 157.824219 Z M 206.863281 157.824219 "/>
<path style=" stroke:none;fill-rule:evenodd;fill:rgb(58.006287%,74.804688%,4.315186%);fill-opacity:1;" d="M 179.390625 135.84375 C 175.460938 135.199219 171.496094 134.726563 167.519531 134.410156 C 167.746094 130.015625 168.164063 125.648438 168.757813 121.316406 C 173.066406 122.0625 177.359375 122.980469 181.613281 124.09375 C 180.710938 127.984375 179.964844 131.902344 179.390625 135.84375 Z M 179.390625 135.84375 "/>
<path style=" stroke:none;fill-rule:evenodd;fill:rgb(58.006287%,74.804688%,4.315186%);fill-opacity:1;" d="M 234.976563 159.109375 C 233.367188 157.683594 231.714844 156.300781 230.011719 154.96875 C 231.703125 153.40625 233.445313 151.886719 235.230469 150.425781 C 236.925781 152 238.574219 153.625 240.171875 155.296875 C 238.394531 156.515625 236.664063 157.789063 234.976563 159.109375 Z M 234.976563 159.109375 "/>
<path style=" stroke:none;fill-rule:evenodd;fill:rgb(62.304688%,62.304688%,63.084412%);fill-opacity:1;" d="M 177.953125 154.003906 C 174.570313 153.96875 171.164063 154.070313 167.742188 154.3125 C 167.476563 150.707031 167.335938 147.109375 167.316406 143.515625 C 171.050781 143.550781 174.761719 143.730469 178.449219 144.074219 C 178.164063 147.378906 178.003906 150.6875 177.953125 154.003906 Z M 177.953125 154.003906 "/>
<path style=" stroke:none;fill-rule:evenodd;fill:rgb(91.796875%,86.326599%,0%);fill-opacity:1;" d="M 180.460938 186.269531 C 179.929688 183.875 179.472656 181.472656 179.070313 179.0625 C 176.449219 179.816406 173.84375 180.664063 171.269531 181.59375 C 171.902344 184.167969 172.597656 186.734375 173.359375 189.289063 C 175.703125 188.195313 178.070313 187.1875 180.460938 186.269531 Z M 180.460938 186.269531 "/>
<path style=" stroke:none;fill-rule:evenodd;fill:rgb(58.006287%,74.804688%,4.315186%);fill-opacity:1;" d="M 191.492188 182.691406 C 191.328125 180.546875 191.226563 178.394531 191.195313 176.234375 C 188.921875 176.640625 186.660156 177.109375 184.414063 177.644531 C 184.648438 179.949219 184.949219 182.242188 185.3125 184.527344 C 187.359375 183.847656 189.414063 183.238281 191.492188 182.691406 Z M 191.492188 182.691406 "/>
<path style=" stroke:none;fill-rule:evenodd;fill:rgb(58.006287%,74.804688%,4.315186%);fill-opacity:1;" d="M 178.019531 171.351563 C 177.699219 168.375 177.472656 165.386719 177.347656 162.398438 C 174.1875 162.796875 171.054688 163.285156 167.941406 163.867188 C 168.359375 167.066406 168.878906 170.261719 169.488281 173.449219 C 172.308594 172.660156 175.152344 171.964844 178.019531 171.351563 Z M 178.019531 171.351563 "/>
<path style=" stroke:none;fill-rule:evenodd;fill:rgb(35.693359%,76.5625%,80.46875%);fill-opacity:1;" d="M 191.316406 169.199219 C 191.445313 166.542969 191.675781 163.882813 191.996094 161.21875 C 189.273438 161.316406 186.558594 161.480469 183.859375 161.710938 C 183.773438 164.554688 183.789063 167.398438 183.90625 170.234375 C 186.363281 169.824219 188.835938 169.476563 191.316406 169.199219 Z M 191.316406 169.199219 "/>
<path style=" stroke:none;fill-rule:evenodd;fill:rgb(62.304688%,62.304688%,63.084412%);fill-opacity:1;" d="M 184.039063 196.386719 C 183.164063 194.421875 182.347656 192.429688 181.59375 190.402344 C 179.589844 191.546875 177.617188 192.746094 175.683594 194.003906 C 176.671875 196.09375 177.722656 198.15625 178.828125 200.1875 C 180.53125 198.859375 182.269531 197.597656 184.039063 196.386719 Z M 184.039063 196.386719 "/>
<path style=" stroke:none;fill-rule:evenodd;fill:rgb(0%,24.705505%,54.101563%);fill-opacity:1;" d="M 203.039063 169.058594 C 203.597656 166.980469 204.214844 164.917969 204.898438 162.867188 C 202.621094 162.5 200.335938 162.1875 198.035156 161.953125 C 197.488281 164.203125 197.015625 166.46875 196.601563 168.738281 C 198.753906 168.777344 200.902344 168.886719 203.039063 169.058594 Z M 203.039063 169.058594 "/>
<path style=" stroke:none;fill-rule:evenodd;fill:rgb(35.693359%,76.5625%,80.46875%);fill-opacity:1;" d="M 197.371094 140.039063 C 194.203125 139.078125 191.011719 138.234375 187.785156 137.5 C 188.566406 133.886719 189.496094 130.292969 190.585938 126.734375 C 193.992188 127.839844 197.371094 129.066406 200.71875 130.410156 C 199.464844 133.597656 198.351563 136.808594 197.371094 140.039063 Z M 197.371094 140.039063 "/>
<g clip-path="url(#clip1)" clip-rule="nonzero">
<path style=" stroke:none;fill-rule:evenodd;fill:rgb(62.304688%,62.304688%,63.084412%);fill-opacity:1;" d="M 3.394531 429.125 L 3.394531 395.992188 L 7.785156 395.992188 L 7.785156 412.421875 L 24.238281 395.992188 L 30.171875 395.992188 L 16.277344 409.414063 L 30.785156 429.125 L 24.996094 429.125 L 13.207031 412.355469 L 7.785156 417.644531 L 7.785156 429.125 Z M 601.71875 429.125 L 614.449219 395.992188 L 619.164063 395.992188 L 632.730469 429.125 L 627.730469 429.125 L 623.867188 419.089844 L 610.011719 419.089844 L 606.378906 429.125 Z M 611.277344 415.515625 L 622.515625 415.515625 L 619.054688 406.34375 C 618.003906 403.558594 617.21875 401.269531 616.703125 399.472656 C 616.285156 401.601563 615.6875 403.707031 614.914063 405.804688 Z M 593.246094 395.992188 L 597.628906 395.992188 L 597.628906 429.125 L 593.246094 429.125 Z M 561.445313 429.125 L 561.445313 395.992188 L 573.878906 395.992188 C 576.410156 395.992188 578.4375 396.332031 579.964844 396.996094 C 581.496094 397.667969 582.695313 398.699219 583.5625 400.097656 C 584.425781 401.484375 584.863281 402.945313 584.863281 404.472656 C 584.863281 405.882813 584.480469 407.214844 583.703125 408.464844 C 582.945313 409.714844 581.777344 410.726563 580.230469 411.496094 C 582.234375 412.085938 583.769531 413.085938 584.847656 414.5 C 585.929688 415.917969 586.46875 417.59375 586.46875 419.519531 C 586.46875 421.070313 586.136719 422.511719 585.480469 423.847656 C 584.824219 425.183594 584.015625 426.207031 583.050781 426.933594 C 582.085938 427.660156 580.871094 428.199219 579.425781 428.570313 C 577.976563 428.9375 576.195313 429.125 574.078125 429.125 Z M 565.835938 409.917969 L 572.996094 409.917969 C 574.9375 409.917969 576.328125 409.785156 577.183594 409.53125 C 578.289063 409.199219 579.132813 408.652344 579.695313 407.878906 C 580.257813 407.109375 580.539063 406.144531 580.539063 404.988281 C 580.539063 403.890625 580.28125 402.921875 579.757813 402.085938 C 579.226563 401.246094 578.46875 400.675781 577.496094 400.367188 C 576.519531 400.058594 574.835938 399.902344 572.453125 399.902344 L 565.835938 399.902344 Z M 565.835938 425.214844 L 574.078125 425.214844 C 575.496094 425.214844 576.496094 425.160156 577.066406 425.058594 C 578.078125 424.875 578.914063 424.574219 579.597656 424.148438 C 580.273438 423.730469 580.828125 423.117188 581.269531 422.3125 C 581.703125 421.503906 581.925781 420.578125 581.925781 419.519531 C 581.925781 418.285156 581.609375 417.214844 580.976563 416.296875 C 580.34375 415.386719 579.464844 414.746094 578.339844 414.375 C 577.21875 414.011719 575.601563 413.828125 573.496094 413.828125 L 565.835938 413.828125 Z M 527.117188 429.125 L 539.847656 395.992188 L 544.566406 395.992188 L 558.128906 429.125 L 553.128906 429.125 L 549.265625 419.089844 L 535.410156 419.089844 L 531.777344 429.125 Z M 536.675781 415.515625 L 547.914063 415.515625 L 544.453125 406.34375 C 543.402344 403.558594 542.617188 401.269531 542.105469 399.472656 C 541.683594 401.601563 541.085938 403.707031 540.316406 405.804688 Z M 497.402344 429.125 L 497.402344 395.992188 L 512.089844 395.992188 C 515.046875 395.992188 517.289063 396.292969 518.824219 396.886719 C 520.359375 397.480469 521.585938 398.53125 522.511719 400.035156 C 523.429688 401.546875 523.886719 403.214844 523.886719 405.035156 C 523.886719 407.386719 523.128906 409.363281 521.601563 410.972656 C 520.078125 412.585938 517.730469 413.613281 514.550781 414.050781 C 515.714844 414.605469 516.597656 415.15625 517.199219 415.703125 C 518.476563 416.875 519.6875 418.347656 520.839844 420.105469 L 526.601563 429.125 L 521.085938 429.125 L 516.703125 422.226563 C 515.421875 420.246094 514.367188 418.71875 513.535156 417.667969 C 512.703125 416.613281 511.96875 415.871094 511.3125 415.457031 C 510.65625 415.03125 509.992188 414.738281 509.3125 414.566406 C 508.8125 414.46875 508.003906 414.414063 506.867188 414.414063 L 501.785156 414.414063 L 501.785156 429.125 Z M 501.785156 410.617188 L 511.210938 410.617188 C 513.210938 410.617188 514.78125 410.410156 515.910156 409.992188 C 517.039063 409.578125 517.898438 408.914063 518.484375 408.003906 C 519.070313 407.09375 519.367188 406.105469 519.367188 405.035156 C 519.367188 403.46875 518.800781 402.179688 517.660156 401.167969 C 516.527344 400.160156 514.730469 399.65625 512.269531 399.65625 L 501.785156 399.65625 Z M 462.820313 429.125 L 475.550781 395.992188 L 480.269531 395.992188 L 493.828125 429.125 L 488.828125 429.125 L 484.96875 419.089844 L 471.113281 419.089844 L 467.480469 429.125 Z M 472.378906 415.515625 L 483.617188 415.515625 L 480.15625 406.34375 C 479.105469 403.558594 478.320313 401.269531 477.808594 399.472656 C 477.386719 401.601563 476.789063 403.707031 476.019531 405.804688 Z M 444.046875 395.992188 L 448.429688 395.992188 L 448.429688 429.125 L 444.046875 429.125 Z M 409.871094 429.125 L 409.871094 395.992188 L 421.28125 395.992188 C 423.859375 395.992188 425.824219 396.15625 427.183594 396.472656 C 429.078125 396.902344 430.703125 397.699219 432.039063 398.839844 C 433.785156 400.320313 435.097656 402.203125 435.960938 404.5 C 436.828125 406.800781 437.265625 409.421875 437.265625 412.378906 C 437.265625 414.890625 436.972656 417.121094 436.378906 419.066406 C 435.789063 421.007813 435.039063 422.621094 434.117188 423.894531 C 433.199219 425.167969 432.199219 426.167969 431.101563 426.894531 C 430.015625 427.628906 428.695313 428.183594 427.152344 428.5625 C 425.601563 428.9375 423.828125 429.125 421.828125 429.125 Z M 414.253906 425.214844 L 421.328125 425.214844 C 423.511719 425.214844 425.230469 425.011719 426.472656 424.605469 C 427.714844 424.195313 428.703125 423.625 429.445313 422.882813 C 430.484375 421.851563 431.296875 420.445313 431.871094 418.695313 C 432.453125 416.9375 432.746094 414.816406 432.746094 412.308594 C 432.746094 408.84375 432.175781 406.183594 431.039063 404.324219 C 429.898438 402.457031 428.519531 401.214844 426.890625 400.582031 C 425.71875 400.128906 423.820313 399.902344 421.21875 399.902344 L 414.253906 399.902344 Z M 398.1875 395.992188 L 402.574219 395.992188 L 402.574219 415.140625 C 402.574219 418.464844 402.199219 421.109375 401.441406 423.070313 C 400.6875 425.027344 399.328125 426.617188 397.363281 427.84375 C 395.394531 429.078125 392.816406 429.6875 389.621094 429.6875 C 386.523438 429.6875 383.976563 429.15625 382.011719 428.082031 C 380.035156 427.019531 378.621094 425.46875 377.78125 423.4375 C 376.933594 421.410156 376.519531 418.648438 376.519531 415.140625 L 376.519531 395.992188 L 380.898438 395.992188 L 380.898438 415.117188 C 380.898438 417.992188 381.164063 420.113281 381.703125 421.472656 C 382.234375 422.835938 383.160156 423.886719 384.453125 424.628906 C 385.757813 425.367188 387.355469 425.738281 389.238281 425.738281 C 392.460938 425.738281 394.761719 425.003906 396.132813 423.539063 C 397.496094 422.082031 398.1875 419.273438 398.1875 415.117188 Z M 341.9375 429.125 L 354.664063 395.992188 L 359.386719 395.992188 L 372.945313 429.125 L 367.949219 429.125 L 364.078125 419.089844 L 350.230469 419.089844 L 346.59375 429.125 Z M 351.492188 415.515625 L 362.734375 415.515625 L 359.269531 406.34375 C 358.21875 403.558594 357.433594 401.269531 356.925781 399.472656 C 356.496094 401.601563 355.90625 403.707031 355.136719 405.804688 Z M 313.21875 418.480469 L 317.351563 418.117188 C 317.539063 419.773438 317.996094 421.132813 318.71875 422.195313 C 319.433594 423.261719 320.546875 424.117188 322.050781 424.773438 C 323.554688 425.429688 325.246094 425.753906 327.132813 425.753906 C 328.808594 425.753906 330.28125 425.507813 331.5625 425.011719 C 332.839844 424.511719 333.796875 423.832031 334.421875 422.96875 C 335.046875 422.097656 335.363281 421.15625 335.363281 420.128906 C 335.363281 419.089844 335.0625 418.1875 334.453125 417.40625 C 333.851563 416.628906 332.855469 415.980469 331.476563 415.457031 C 330.578125 415.109375 328.621094 414.566406 325.574219 413.835938 C 322.535156 413.101563 320.398438 412.417969 319.179688 411.769531 C 317.597656 410.941406 316.414063 409.910156 315.640625 408.683594 C 314.867188 407.457031 314.480469 406.082031 314.480469 404.554688 C 314.480469 402.890625 314.953125 401.324219 315.902344 399.871094 C 316.851563 398.414063 318.238281 397.3125 320.058594 396.554688 C 321.886719 395.808594 323.910156 395.429688 326.136719 395.429688 C 328.597656 395.429688 330.757813 395.824219 332.640625 396.617188 C 334.515625 397.40625 335.953125 398.570313 336.96875 400.105469 C 337.972656 401.640625 338.519531 403.382813 338.597656 405.328125 L 334.390625 405.644531 C 334.160156 403.550781 333.398438 401.964844 332.09375 400.898438 C 330.789063 399.828125 328.867188 399.292969 326.324219 399.292969 C 323.664063 399.292969 321.742188 399.78125 320.523438 400.753906 C 319.3125 401.722656 318.703125 402.898438 318.703125 404.261719 C 318.703125 405.457031 319.132813 406.4375 319.992188 407.203125 C 320.839844 407.972656 323.039063 408.757813 326.601563 409.5625 C 330.164063 410.371094 332.609375 411.074219 333.9375 411.675781 C 335.867188 412.570313 337.289063 413.695313 338.210938 415.054688 C 339.128906 416.417969 339.578125 417.992188 339.578125 419.769531 C 339.578125 421.535156 339.078125 423.191406 338.070313 424.75 C 337.0625 426.308594 335.609375 427.519531 333.722656 428.390625 C 331.828125 429.253906 329.703125 429.6875 327.34375 429.6875 C 324.339844 429.6875 321.824219 429.253906 319.804688 428.375 C 317.777344 427.503906 316.1875 426.191406 315.03125 424.433594 C 313.878906 422.683594 313.273438 420.691406 313.21875 418.480469 Z M 273.800781 429.125 L 273.800781 395.992188 L 296.152344 395.992188 L 296.152344 399.902344 L 278.1875 399.902344 L 278.1875 410.164063 L 293.730469 410.164063 L 293.730469 414.074219 L 278.1875 414.074219 L 278.1875 429.125 Z M 236.238281 412.988281 C 236.238281 407.488281 237.714844 403.183594 240.664063 400.074219 C 243.621094 396.964844 247.433594 395.40625 252.109375 395.40625 C 255.164063 395.40625 257.925781 396.140625 260.378906 397.597656 C 262.828125 399.0625 264.703125 401.101563 265.992188 403.714844 C 267.28125 406.320313 267.921875 409.292969 267.921875 412.601563 C 267.921875 415.964844 267.246094 418.972656 265.894531 421.617188 C 264.535156 424.273438 262.613281 426.277344 260.128906 427.644531 C 257.640625 429.007813 254.960938 429.6875 252.085938 429.6875 C 248.960938 429.6875 246.175781 428.9375 243.722656 427.425781 C 241.261719 425.921875 239.402344 423.863281 238.136719 421.257813 C 236.871094 418.65625 236.238281 415.894531 236.238281 412.988281 Z M 240.761719 413.054688 C 240.761719 417.050781 241.828125 420.191406 243.976563 422.492188 C 246.128906 424.789063 248.820313 425.9375 252.0625 425.9375 C 255.363281 425.9375 258.078125 424.78125 260.203125 422.460938 C 262.335938 420.136719 263.410156 416.84375 263.410156 412.578125 C 263.410156 409.886719 262.945313 407.53125 262.035156 405.519531 C 261.121094 403.507813 259.789063 401.949219 258.039063 400.835938 C 256.28125 399.734375 254.3125 399.179688 252.132813 399.179688 C 249.023438 399.179688 246.351563 400.242188 244.117188 402.378906 C 241.878906 404.507813 240.761719 408.074219 240.761719 413.054688 Z M 186.023438 429.125 L 186.023438 395.992188 L 192.621094 395.992188 L 200.460938 419.449219 C 201.1875 421.632813 201.71875 423.269531 202.039063 424.355469 C 202.421875 423.152344 203.007813 421.378906 203.8125 419.042969 L 211.742188 395.992188 L 217.640625 395.992188 L 217.640625 429.125 L 213.414063 429.125 L 213.414063 401.394531 L 203.789063 429.125 L 199.828125 429.125 L 190.246094 400.921875 L 190.246094 429.125 Z M 148.824219 412.988281 C 148.824219 407.488281 150.296875 403.183594 153.253906 400.074219 C 156.203125 396.964844 160.019531 395.40625 164.691406 395.40625 C 167.746094 395.40625 170.507813 396.140625 172.960938 397.597656 C 175.414063 399.0625 177.289063 401.101563 178.578125 403.714844 C 179.867188 406.320313 180.507813 409.292969 180.507813 412.601563 C 180.507813 415.964844 179.835938 418.972656 178.476563 421.617188 C 177.121094 424.273438 175.199219 426.277344 172.714844 427.644531 C 170.222656 429.007813 167.546875 429.6875 164.671875 429.6875 C 161.546875 429.6875 158.761719 428.9375 156.308594 427.425781 C 153.847656 425.921875 151.988281 423.863281 150.722656 421.257813 C 149.453125 418.65625 148.824219 415.894531 148.824219 412.988281 Z M 153.347656 413.054688 C 153.347656 417.050781 154.414063 420.191406 156.5625 422.492188 C 158.714844 424.789063 161.40625 425.9375 164.648438 425.9375 C 167.949219 425.9375 170.664063 424.78125 172.789063 422.460938 C 174.921875 420.136719 175.992188 416.84375 175.992188 412.578125 C 175.992188 409.886719 175.53125 407.53125 174.621094 405.519531 C 173.710938 403.507813 172.371094 401.949219 170.621094 400.835938 C 168.867188 399.734375 166.898438 399.179688 164.714844 399.179688 C 161.609375 399.179688 158.9375 400.242188 156.703125 402.378906 C 154.464844 404.507813 153.347656 408.074219 153.347656 413.054688 Z M 116.734375 429.125 L 116.734375 395.992188 L 128.144531 395.992188 C 130.71875 395.992188 132.6875 396.15625 134.046875 396.472656 C 135.941406 396.902344 137.5625 397.699219 138.90625 398.839844 C 140.648438 400.320313 141.960938 402.203125 142.824219 404.5 C 143.695313 406.800781 144.128906 409.421875 144.128906 412.378906 C 144.128906 414.890625 143.835938 417.121094 143.242188 419.066406 C 142.652344 421.007813 141.90625 422.621094 140.980469 423.894531 C 140.0625 425.167969 139.058594 426.167969 137.964844 426.894531 C 136.871094 427.628906 135.558594 428.183594 134.015625 428.5625 C 132.464844 428.9375 130.691406 429.125 128.691406 429.125 Z M 121.117188 425.214844 L 128.191406 425.214844 C 130.371094 425.214844 132.09375 425.011719 133.335938 424.605469 C 134.578125 424.195313 135.566406 423.625 136.304688 422.882813 C 137.347656 421.851563 138.15625 420.445313 138.734375 418.695313 C 139.3125 416.9375 139.605469 414.816406 139.605469 412.308594 C 139.605469 408.84375 139.035156 406.183594 137.902344 404.324219 C 136.761719 402.457031 135.378906 401.214844 133.753906 400.582031 C 132.578125 400.128906 130.683594 399.902344 128.078125 399.902344 L 121.117188 399.902344 Z M 96.238281 416.125 L 96.238281 412.246094 L 110.269531 412.222656 L 110.269531 424.511719 C 108.117188 426.230469 105.898438 427.519531 103.605469 428.390625 C 101.316406 429.253906 98.960938 429.6875 96.554688 429.6875 C 93.296875 429.6875 90.339844 428.992188 87.683594 427.597656 C 85.023438 426.207031 83.015625 424.1875 81.660156 421.558594 C 80.296875 418.917969 79.621094 415.972656 79.621094 412.714844 C 79.621094 409.492188 80.296875 406.484375 81.652344 403.691406 C 82.996094 400.890625 84.9375 398.816406 87.46875 397.457031 C 89.996094 396.109375 92.914063 395.429688 96.214844 395.429688 C 98.605469 395.429688 100.773438 395.816406 102.710938 396.59375 C 104.648438 397.367188 106.164063 398.445313 107.261719 399.835938 C 108.367188 401.222656 109.199219 403.027344 109.777344 405.257813 L 105.820313 406.34375 C 105.320313 404.65625 104.703125 403.328125 103.96875 402.363281 C 103.226563 401.398438 102.171875 400.628906 100.796875 400.050781 C 99.433594 399.472656 97.90625 399.179688 96.238281 399.179688 C 94.234375 399.179688 92.496094 399.488281 91.039063 400.097656 C 89.574219 400.707031 88.402344 401.507813 87.496094 402.503906 C 86.605469 403.5 85.910156 404.585938 85.410156 405.78125 C 84.566406 407.828125 84.144531 410.046875 84.144531 412.445313 C 84.144531 415.402344 84.652344 417.871094 85.667969 419.859375 C 86.6875 421.851563 88.167969 423.324219 90.113281 424.289063 C 92.058594 425.253906 94.117188 425.738281 96.296875 425.738281 C 98.207031 425.738281 100.058594 425.367188 101.863281 424.636719 C 103.675781 423.910156 105.039063 423.128906 105.972656 422.296875 L 105.972656 416.125 Z M 47.261719 429.125 L 47.261719 395.992188 L 51.761719 395.992188 L 69.164063 422.003906 L 69.164063 395.992188 L 73.367188 395.992188 L 73.367188 429.125 L 68.871094 429.125 L 51.46875 403.089844 L 51.46875 429.125 Z M 35.199219 395.992188 L 39.578125 395.992188 L 39.578125 429.125 L 35.199219 429.125 Z M 35.199219 395.992188 "/>
</g>
<path style=" stroke:none;fill-rule:evenodd;fill:rgb(62.304688%,62.304688%,63.084412%);fill-opacity:1;" d="M 235.085938 167.46875 C 235.746094 168.667969 237.414063 171.753906 237.226563 174.683594 C 237.226563 174.683594 241.703125 167.355469 250.988281 173.464844 C 250.988281 173.464844 243.089844 172.40625 241.214844 176.476563 C 241.214844 176.476563 253.351563 173.300781 255.953125 184.539063 C 255.953125 184.539063 250.335938 178.269531 245.203125 179.410156 C 245.203125 179.410156 256.855469 183.480469 253.59375 195.453125 C 253.59375 195.453125 252.617188 184.703125 244.800781 183.398438 C 244.800781 183.398438 252.046875 189.347656 249.277344 201.320313 C 249.277344 201.320313 249.441406 192.441406 243.742188 188.207031 C 243.742188 188.207031 247.570313 197.492188 241.378906 205.714844 C 241.378906 205.714844 244.554688 195.046875 239.425781 191.136719 C 239.425781 191.136719 237.304688 189.835938 237.386719 193.742188 C 237.386719 193.742188 236.78125 216.125 237.886719 227.042969 C 237.886719 227.042969 260.300781 208.078125 279.476563 220.6875 C 279.476563 220.6875 260.488281 211.417969 238.621094 231.832031 L 253.21875 244.652344 C 253.867188 243.617188 255.019531 242.925781 256.328125 242.925781 C 258.34375 242.925781 259.988281 244.570313 259.988281 246.585938 C 259.988281 251.511719 253.070313 251.164063 250.539063 248.207031 L 235.203125 234.113281 L 235.09375 233.78125 L 234.980469 234.113281 L 219.644531 248.207031 C 217.117188 251.164063 210.195313 251.511719 210.195313 246.585938 C 210.195313 244.570313 211.839844 242.925781 213.855469 242.925781 C 215.164063 242.925781 216.316406 243.617188 216.964844 244.652344 L 231.5625 231.832031 C 209.695313 211.417969 190.703125 220.6875 190.703125 220.6875 C 209.886719 208.078125 232.296875 227.042969 232.296875 227.042969 C 233.40625 216.125 232.796875 193.742188 232.796875 193.742188 C 232.878906 189.835938 230.761719 191.136719 230.761719 191.136719 C 225.628906 195.046875 228.804688 205.714844 228.804688 205.714844 C 222.617188 197.492188 226.445313 188.207031 226.445313 188.207031 C 220.742188 192.441406 220.90625 201.320313 220.90625 201.320313 C 218.136719 189.347656 225.386719 183.398438 225.386719 183.398438 C 217.566406 184.703125 216.589844 195.453125 216.589844 195.453125 C 213.328125 183.480469 224.976563 179.410156 224.976563 179.410156 C 219.847656 178.269531 214.226563 184.539063 214.226563 184.539063 C 216.828125 173.300781 228.96875 176.476563 228.96875 176.476563 C 227.097656 172.40625 219.195313 173.464844 219.195313 173.464844 C 228.480469 167.355469 232.960938 174.683594 232.960938 174.683594 C 232.769531 171.75 234.421875 168.667969 235.085938 167.46875 Z M 235.085938 167.46875 "/>
<path style=" stroke:none;fill-rule:evenodd;fill:rgb(62.304688%,62.304688%,63.084412%);fill-opacity:1;" d="M 33.59375 382.378906 L 37.859375 382.378906 L 37.859375 378.113281 L 33.59375 378.113281 Z M 23.605469 336.132813 L 19.335938 336.132813 L 19.335938 340.398438 L 23.605469 340.398438 Z M 40.78125 382.378906 L 45.042969 382.378906 L 45.042969 378.113281 L 40.78125 378.113281 Z M 16.417969 336.132813 L 12.15625 336.132813 L 12.15625 340.398438 L 16.417969 340.398438 Z M 70.972656 348.816406 C 69.851563 347.582031 68.617188 346.683594 67.269531 346.125 C 65.917969 345.449219 64.238281 345.226563 62.332031 345.226563 C 59.1875 345.226563 59.1875 345.226563 59.1875 345.226563 C 59.1875 349.265625 59.1875 349.265625 59.1875 349.265625 C 62.890625 349.265625 62.890625 349.265625 62.890625 349.265625 C 63.902344 349.265625 64.796875 349.492188 65.699219 349.941406 C 66.597656 350.390625 67.382813 350.949219 67.941406 351.625 C 68.503906 352.410156 68.953125 353.195313 69.171875 353.980469 C 69.402344 354.878906 69.515625 355.890625 69.515625 357.125 C 69.515625 369.132813 69.515625 369.132813 69.515625 369.132813 C 50.097656 369.132813 50.097656 369.132813 50.097656 369.132813 C 50.097656 373.285156 50.097656 373.285156 50.097656 373.285156 C 73.664063 373.285156 73.664063 373.285156 73.664063 373.285156 C 73.664063 357.011719 73.664063 357.011719 73.664063 357.011719 C 73.664063 355.328125 73.441406 353.867188 72.992188 352.410156 C 72.539063 350.949219 71.871094 349.828125 70.972656 348.816406 Z M 231.257813 373.285156 L 235.410156 373.285156 L 235.410156 336.132813 L 231.257813 336.132813 Z M 215.09375 369.132813 C 215.039063 369.132813 214.988281 369.132813 214.933594 369.132813 C 208.246094 369.132813 208.246094 369.132813 208.246094 369.132813 C 205.890625 369.132813 203.980469 368.796875 202.523438 368.125 C 201.175781 367.449219 200.054688 366.328125 199.269531 364.980469 C 199.605469 363.859375 199.714844 362.625 199.714844 361.050781 C 199.714844 347.808594 199.714844 347.808594 199.714844 347.808594 C 195.5625 347.808594 195.5625 347.808594 195.5625 347.808594 C 195.5625 361.726563 195.5625 361.726563 195.5625 361.726563 C 195.5625 364.195313 194.890625 366.101563 193.65625 367.449219 C 192.308594 368.910156 190.402344 369.582031 187.820313 369.582031 C 186.585938 369.582031 185.460938 369.472656 184.453125 369.023438 C 183.441406 368.683594 182.65625 368.125 181.871094 367.5625 C 181.195313 366.890625 180.636719 366.101563 180.1875 365.207031 C 179.738281 364.308594 179.511719 363.410156 179.511719 362.398438 C 179.511719 347.808594 179.511719 347.808594 179.511719 347.808594 C 175.359375 347.808594 175.359375 347.808594 175.359375 347.808594 C 175.359375 362.0625 175.359375 362.0625 175.359375 362.0625 C 175.359375 363.410156 175.136719 364.417969 174.796875 365.316406 C 174.460938 366.214844 173.902344 366.890625 173.226563 367.449219 C 172.554688 368.011719 171.878906 368.460938 170.980469 368.683594 C 170.195313 369.023438 169.296875 369.132813 168.402344 369.132813 C 160.320313 369.132813 160.320313 369.132813 160.320313 369.132813 C 160.320313 347.808594 160.320313 347.808594 160.320313 347.808594 C 156.164063 347.808594 156.164063 347.808594 156.164063 347.808594 C 156.164063 369.132813 156.164063 369.132813 156.164063 369.132813 C 134.503906 369.132813 134.503906 369.132813 134.503906 369.132813 C 141.6875 351.847656 141.6875 351.847656 141.6875 351.847656 C 140.5625 350.839844 139.441406 349.941406 138.203125 349.042969 C 136.972656 348.257813 135.621094 347.472656 134.390625 346.910156 C 133.039063 346.234375 131.695313 345.675781 130.351563 345.339844 C 129.003906 345 127.65625 344.777344 126.421875 344.777344 C 125.074219 344.777344 123.726563 345 122.378906 345.339844 C 121.035156 345.675781 119.6875 346.234375 118.339844 346.796875 C 116.992188 347.472656 115.757813 348.144531 114.523438 349.042969 C 113.289063 349.941406 112.054688 350.839844 111.039063 351.847656 C 118.339844 369.132813 118.339844 369.132813 118.339844 369.132813 C 103.972656 369.132813 103.972656 369.132813 103.972656 369.132813 C 103.972656 345.226563 103.972656 345.226563 103.972656 345.226563 C 97.351563 345.226563 97.351563 345.226563 97.351563 345.226563 C 94.769531 345.226563 92.523438 345.5625 90.390625 346.234375 C 88.257813 347.023438 86.460938 348.03125 85.003906 349.265625 C 83.433594 350.5 82.308594 351.960938 81.410156 353.757813 C 80.621094 355.441406 80.171875 357.347656 80.171875 359.367188 C 80.171875 361.839844 80.621094 363.972656 81.636719 365.65625 C 82.535156 367.449219 83.769531 368.796875 85.339844 369.917969 C 86.910156 371.042969 88.707031 371.941406 90.839844 372.5 C 92.859375 372.949219 95.105469 373.285156 97.351563 373.285156 C 99.820313 373.285156 99.820313 373.285156 99.820313 373.285156 C 99.820313 374.410156 99.820313 374.410156 99.820313 374.410156 C 99.820313 376.65625 99.257813 378.113281 98.023438 379.125 C 96.789063 380.023438 94.992188 380.46875 92.746094 380.46875 C 91.511719 380.46875 90.277344 380.359375 89.269531 380.132813 C 88.257813 379.910156 87.136719 379.460938 85.789063 378.898438 C 84.554688 382.828125 84.554688 382.828125 84.554688 382.828125 C 86.121094 383.5 87.472656 383.835938 88.707031 384.175781 C 89.941406 384.511719 91.171875 384.625 92.410156 384.625 C 96.453125 384.625 99.371094 383.613281 101.277344 381.707031 C 103.074219 379.796875 103.972656 377.214844 103.972656 374.074219 C 103.972656 373.285156 103.972656 373.285156 103.972656 373.285156 C 168.402344 373.285156 168.402344 373.285156 168.402344 373.285156 C 170.421875 373.285156 172.21875 372.839844 173.789063 371.941406 C 175.359375 371.042969 176.59375 369.917969 177.605469 368.460938 C 178.503906 370.144531 179.960938 371.492188 181.644531 372.390625 C 183.328125 373.285156 185.460938 373.734375 187.820313 373.734375 C 190.289063 373.734375 192.421875 373.285156 194.105469 372.5 C 195.902344 371.601563 197.246094 370.257813 198.144531 368.460938 C 198.480469 369.132813 198.929688 369.695313 199.492188 370.257813 C 199.941406 370.816406 200.613281 371.265625 201.402344 371.714844 C 202.1875 372.164063 203.078125 372.613281 204.203125 372.839844 C 205.105469 373.0625 206.113281 373.175781 207.238281 373.175781 C 207.238281 373.285156 207.238281 373.285156 207.238281 373.285156 C 219.246094 373.285156 219.246094 373.285156 219.246094 373.285156 C 219.246094 336.132813 219.246094 336.132813 219.246094 336.132813 C 215.09375 336.132813 215.09375 336.132813 215.09375 336.132813 Z M 315.269531 382.476563 L 319.535156 382.476563 L 319.535156 378.210938 L 315.269531 378.210938 Z M 355.789063 369.230469 C 349.390625 353.292969 349.390625 353.292969 349.390625 353.292969 C 350.964844 351.945313 352.535156 350.933594 354.21875 350.371094 C 355.902344 349.699219 357.699219 349.476563 359.496094 349.476563 C 361.402344 349.476563 363.199219 349.8125 364.996094 350.597656 C 366.902344 351.269531 368.472656 352.167969 369.703125 353.292969 C 363.199219 369.230469 363.199219 369.230469 363.199219 369.230469 Z M 385.199219 369.230469 C 367.574219 369.230469 367.574219 369.230469 367.574219 369.230469 C 374.871094 351.832031 374.871094 351.832031 374.871094 351.832031 C 373.746094 350.933594 372.515625 350.035156 371.28125 349.136719 C 370.039063 348.351563 368.808594 347.566406 367.464844 346.894531 C 366.117188 346.332031 364.882813 345.769531 363.535156 345.433594 C 362.1875 345.097656 360.839844 344.875 359.496094 344.875 C 358.148438 344.875 356.800781 345.097656 355.453125 345.433594 C 354.105469 345.769531 352.757813 346.332031 351.414063 346.894531 C 350.066406 347.566406 348.828125 348.242188 347.597656 349.136719 C 346.363281 350.035156 345.238281 350.933594 344.117188 351.832031 C 351.410156 368.957031 351.523438 369.226563 351.523438 369.230469 C 336.035156 369.230469 336.035156 369.230469 336.035156 369.230469 C 336.035156 345.210938 336.035156 345.210938 336.035156 345.210938 C 331.882813 345.210938 331.882813 345.210938 331.882813 345.210938 C 331.882813 374.167969 331.882813 374.167969 331.882813 374.167969 C 331.882813 375.402344 331.882813 376.414063 331.65625 377.199219 C 331.546875 377.984375 331.433594 378.65625 331.097656 379.105469 C 330.757813 379.667969 330.421875 380.003906 329.863281 380.230469 C 329.414063 380.453125 328.738281 380.566406 327.953125 380.566406 C 327.617188 380.566406 327.28125 380.566406 326.945313 380.453125 C 326.71875 380.453125 326.269531 380.34375 325.820313 380.230469 C 324.699219 384.269531 324.699219 384.269531 324.699219 384.269531 C 325.933594 384.496094 327.054688 384.71875 328.066406 384.71875 C 329.636719 384.71875 330.871094 384.496094 331.882813 383.933594 C 332.890625 383.484375 333.679688 382.8125 334.351563 381.914063 C 334.914063 381.015625 335.363281 379.894531 335.699219 378.546875 C 335.921875 377.3125 336.035156 375.851563 336.035156 374.167969 C 336.035156 373.269531 336.035156 373.269531 336.035156 373.269531 C 389.351563 373.269531 389.351563 373.269531 389.351563 373.269531 C 389.351563 336.230469 389.351563 336.230469 389.351563 336.230469 C 385.199219 336.230469 385.199219 336.230469 385.199219 336.230469 Z M 300.117188 382.476563 L 304.378906 382.476563 L 304.378906 378.210938 L 300.117188 378.210938 Z M 274.972656 369.230469 C 270.820313 369.230469 270.820313 369.230469 270.820313 369.230469 C 269.363281 369.230469 267.902344 369.003906 266.445313 368.554688 C 265.097656 368.109375 263.976563 367.433594 262.964844 366.535156 C 261.953125 365.75 261.054688 364.738281 260.496094 363.503906 C 259.933594 362.269531 259.597656 360.8125 259.597656 359.351563 C 259.597656 357.78125 259.933594 356.433594 260.609375 355.199219 C 261.28125 354.078125 262.066406 352.953125 263.078125 352.054688 C 264.199219 351.269531 265.433594 350.597656 266.78125 350.035156 C 268.128906 349.585938 269.476563 349.363281 270.820313 349.363281 C 274.972656 349.363281 274.972656 349.363281 274.972656 349.363281 Z M 319.535156 345.210938 C 315.382813 345.210938 315.382813 345.210938 315.382813 345.210938 C 315.382813 369.230469 315.382813 369.230469 315.382813 369.230469 C 299.78125 369.230469 299.78125 369.230469 299.78125 369.230469 C 299.78125 345.210938 299.78125 345.210938 299.78125 345.210938 C 295.628906 345.210938 295.628906 345.210938 295.628906 345.210938 C 295.628906 369.230469 295.628906 369.230469 295.628906 369.230469 C 279.128906 369.230469 279.128906 369.230469 279.128906 369.230469 C 279.128906 345.210938 279.128906 345.210938 279.128906 345.210938 C 272.617188 345.210938 272.617188 345.210938 272.617188 345.210938 C 270.035156 345.210938 267.679688 345.660156 265.546875 346.332031 C 263.414063 347.003906 261.617188 348.015625 260.160156 349.25 C 258.699219 350.484375 257.464844 352.054688 256.679688 353.742188 C 255.894531 355.421875 255.445313 357.332031 255.445313 359.351563 C 255.445313 361.710938 256.003906 363.84375 256.902344 365.636719 C 257.800781 367.320313 259.035156 368.78125 260.609375 370.015625 C 262.179688 371.136719 263.976563 371.921875 266.105469 372.484375 C 268.128906 373.046875 270.261719 373.269531 272.617188 373.269531 C 319.535156 373.269531 319.535156 373.269531 319.535156 373.269531 Z M 292.933594 382.476563 L 297.199219 382.476563 L 297.199219 378.210938 L 292.933594 378.210938 Z M 279.128906 336.230469 L 274.863281 336.230469 L 274.863281 340.496094 L 279.128906 340.496094 Z M 271.828125 336.230469 L 267.566406 336.230469 L 267.566406 340.496094 L 271.828125 340.496094 Z M 401.359375 373.269531 L 405.515625 373.269531 L 405.515625 336.230469 L 401.359375 336.230469 Z M 586.652344 369.65625 C 586.089844 371.003906 585.304688 372.125 584.296875 373.136719 C 583.398438 374.03125 582.164063 374.820313 580.929688 375.378906 C 579.578125 375.941406 578.121094 376.164063 576.550781 376.164063 C 574.980469 376.164063 573.632813 375.941406 572.285156 375.265625 C 571.050781 374.707031 569.929688 373.921875 568.914063 373.023438 C 568.019531 372.011719 567.234375 370.890625 566.785156 369.542969 C 566.226563 368.195313 565.886719 366.847656 565.886719 365.390625 C 565.886719 363.929688 566.226563 362.472656 566.785156 361.125 C 567.234375 359.777344 568.019531 358.65625 568.914063 357.644531 C 569.816406 356.746094 570.9375 355.960938 572.285156 355.289063 C 573.519531 354.726563 574.980469 354.503906 576.550781 354.503906 C 578.121094 354.503906 579.578125 354.726563 580.929688 355.289063 C 582.277344 355.847656 583.398438 356.636719 584.410156 357.53125 C 585.414063 358.542969 586.203125 359.664063 586.652344 361.011719 C 587.214844 362.359375 587.550781 363.820313 587.550781 365.390625 C 587.550781 366.960938 587.214844 368.308594 586.652344 369.65625 Z M 546.46875 369.65625 C 545.910156 371.003906 545.121094 372.125 544.113281 373.136719 C 543.214844 374.03125 541.980469 374.820313 540.632813 375.378906 C 539.398438 375.941406 537.9375 376.164063 536.367188 376.164063 C 534.796875 376.164063 533.449219 375.941406 532.101563 375.265625 C 530.867188 374.707031 529.746094 373.921875 528.734375 373.023438 C 527.835938 372.011719 527.050781 370.890625 526.492188 369.542969 C 526.039063 368.195313 525.703125 366.847656 525.703125 365.390625 C 525.703125 363.929688 526.039063 362.472656 526.492188 361.125 C 527.050781 359.777344 527.835938 358.65625 528.734375 357.644531 C 529.632813 356.746094 530.757813 355.960938 532.101563 355.289063 C 533.335938 354.726563 534.796875 354.503906 536.367188 354.503906 C 537.9375 354.503906 539.398438 354.726563 540.746094 355.289063 C 542.09375 355.847656 543.214844 356.636719 544.226563 357.53125 C 545.234375 358.542969 545.910156 359.664063 546.46875 361.011719 C 547.03125 362.359375 547.367188 363.820313 547.367188 365.390625 C 547.367188 366.960938 547.03125 368.308594 546.46875 369.65625 Z M 445.675781 371.5625 C 441.632813 371.5625 441.632813 371.5625 441.632813 371.5625 C 440.0625 371.5625 438.605469 371.339844 437.257813 370.890625 C 435.910156 370.441406 434.675781 369.769531 433.664063 368.871094 C 432.65625 368.082031 431.867188 367.074219 431.308594 365.839844 C 430.632813 364.605469 430.410156 363.144531 430.410156 361.6875 C 430.410156 360.113281 430.746094 358.769531 431.308594 357.53125 C 431.980469 356.410156 432.765625 355.289063 433.890625 354.390625 C 434.898438 353.605469 436.132813 352.929688 437.480469 352.371094 C 438.828125 351.921875 440.175781 351.695313 441.632813 351.695313 C 445.675781 351.695313 445.675781 351.695313 445.675781 351.695313 Z M 604.613281 371.5625 C 590.355469 371.5625 590.355469 371.5625 590.355469 371.5625 C 591.253906 369.65625 591.703125 367.636719 591.703125 365.390625 C 591.703125 363.257813 591.253906 361.347656 590.46875 359.441406 C 589.683594 357.644531 588.671875 355.960938 587.328125 354.613281 C 585.980469 353.269531 584.410156 352.257813 582.496094 351.472656 C 580.703125 350.6875 578.683594 350.347656 576.550781 350.347656 C 574.53125 350.347656 572.511719 350.6875 570.714844 351.472656 C 568.914063 352.257813 567.347656 353.378906 566.113281 354.726563 C 564.765625 356.074219 563.644531 357.644531 562.96875 359.554688 C 562.183594 361.347656 561.734375 363.371094 561.734375 365.390625 C 561.734375 366.511719 561.847656 367.636719 562.070313 368.644531 C 562.296875 369.65625 562.632813 370.554688 563.078125 371.5625 C 550.171875 371.5625 550.171875 371.5625 550.171875 371.5625 C 551.070313 369.65625 551.519531 367.636719 551.519531 365.390625 C 551.519531 363.257813 551.070313 361.347656 550.285156 359.441406 C 549.496094 357.644531 548.492188 355.960938 547.144531 354.613281 C 545.796875 353.269531 544.226563 352.257813 542.316406 351.472656 C 540.519531 350.6875 538.496094 350.347656 536.367188 350.347656 C 534.234375 350.347656 532.328125 350.6875 530.53125 351.472656 C 528.734375 352.257813 527.164063 353.378906 525.816406 354.726563 C 524.578125 356.074219 523.460938 357.644531 522.675781 359.554688 C 521.996094 361.347656 521.550781 363.371094 521.550781 365.390625 C 521.550781 366.511719 521.664063 367.636719 521.886719 368.644531 C 522.113281 369.65625 522.449219 370.554688 522.785156 371.5625 C 509.652344 371.5625 509.652344 371.5625 509.652344 371.5625 C 509.652344 338.5625 509.652344 338.5625 509.652344 338.5625 C 505.496094 338.5625 505.496094 338.5625 505.496094 338.5625 C 505.496094 371.5625 505.496094 371.5625 505.496094 371.5625 C 492.367188 371.5625 492.367188 371.5625 492.367188 371.5625 C 492.367188 365.164063 492.367188 365.164063 492.367188 365.164063 C 492.367188 363.59375 492.144531 362.136719 491.695313 360.675781 C 491.246094 359.214844 490.683594 357.980469 489.785156 356.972656 C 488.664063 355.847656 487.429688 354.953125 486.078125 354.277344 C 484.734375 353.714844 483.050781 353.492188 481.03125 353.492188 C 462.621094 353.492188 462.621094 353.492188 462.621094 353.492188 C 470.480469 338.5625 470.480469 338.5625 470.480469 338.5625 C 465.992188 338.5625 465.992188 338.5625 465.992188 338.5625 C 458.023438 353.378906 458.023438 353.378906 458.023438 353.378906 C 458.132813 354.277344 458.359375 355.0625 458.578125 355.738281 C 458.914063 356.410156 459.367188 356.972656 459.816406 357.53125 C 481.03125 357.53125 481.03125 357.53125 481.03125 357.53125 C 482.265625 357.53125 483.390625 357.757813 484.398438 358.207031 C 485.296875 358.542969 486.078125 359.105469 486.644531 359.777344 C 487.316406 360.453125 487.652344 361.238281 487.878906 362.136719 C 488.101563 363.03125 488.214844 364.042969 488.214844 365.164063 C 488.214844 371.5625 488.214844 371.5625 488.214844 371.5625 C 449.828125 371.5625 449.828125 371.5625 449.828125 371.5625 C 449.828125 347.542969 449.828125 347.542969 449.828125 347.542969 C 443.316406 347.542969 443.316406 347.542969 443.316406 347.542969 C 440.738281 347.542969 438.378906 347.992188 436.246094 348.664063 C 434.226563 349.339844 432.316406 350.347656 430.859375 351.585938 C 429.398438 352.820313 428.277344 354.390625 427.492188 356.074219 C 426.59375 357.757813 426.257813 359.664063 426.257813 361.6875 C 426.257813 364.042969 426.703125 366.175781 427.605469 367.972656 C 428.613281 369.65625 429.847656 371.113281 431.308594 372.347656 C 432.878906 373.472656 434.675781 374.257813 436.808594 374.820313 C 438.828125 375.378906 441.074219 375.605469 443.316406 375.605469 C 525.480469 375.605469 525.480469 375.605469 525.480469 375.605469 C 526.828125 377.0625 528.511719 378.296875 530.304688 379.085938 C 532.214844 379.980469 534.234375 380.320313 536.367188 380.320313 C 538.613281 380.320313 540.632813 379.980469 542.539063 379.085938 C 544.449219 378.296875 546.132813 377.175781 547.480469 375.605469 C 565.777344 375.605469 565.777344 375.605469 565.777344 375.605469 C 567.121094 377.0625 568.695313 378.296875 570.488281 379.085938 C 572.398438 379.980469 574.414063 380.320313 576.550781 380.320313 C 578.796875 380.320313 580.816406 379.980469 582.722656 379.085938 C 584.632813 378.296875 586.316406 377.175781 587.664063 375.605469 C 608.765625 375.605469 608.765625 375.605469 608.765625 375.605469 C 608.765625 338.5625 608.765625 338.5625 608.765625 338.5625 C 604.613281 338.5625 604.613281 338.5625 604.613281 338.5625 Z M 620.886719 375.605469 L 625.039063 375.605469 L 625.039063 338.5625 L 620.886719 338.5625 Z M 442.53125 338.5625 L 438.265625 338.5625 L 438.265625 342.828125 L 442.53125 342.828125 Z M 449.828125 338.5625 L 445.5625 338.5625 L 445.5625 342.828125 L 449.828125 342.828125 Z M 44.257813 345.226563 C 40.105469 345.226563 40.105469 345.226563 40.105469 345.226563 C 40.105469 369.132813 40.105469 369.132813 40.105469 369.132813 C 23.605469 369.132813 23.605469 369.132813 23.605469 369.132813 C 23.605469 345.226563 23.605469 345.226563 23.605469 345.226563 C 17.097656 345.226563 17.097656 345.226563 17.097656 345.226563 C 14.515625 345.226563 12.15625 345.5625 10.023438 346.234375 C 8 346.910156 6.207031 347.917969 4.636719 349.15625 C 3.179688 350.390625 2.054688 351.960938 1.269531 353.644531 C 0.484375 355.328125 0.0351563 357.234375 0.0351563 359.257813 C 0.0351563 361.726563 0.484375 363.746094 1.382813 365.542969 C 2.390625 367.339844 3.625 368.796875 5.199219 369.917969 C 6.65625 371.042969 8.566406 371.828125 10.585938 372.390625 C 12.71875 372.949219 14.851563 373.285156 17.097656 373.285156 C 44.257813 373.285156 44.257813 373.285156 44.257813 373.285156 Z M 19.453125 369.132813 C 15.414063 369.132813 15.414063 369.132813 15.414063 369.132813 C 13.839844 369.132813 12.382813 368.910156 11.035156 368.460938 C 9.6875 368.011719 8.453125 367.339844 7.441406 366.550781 C 6.433594 365.65625 5.648438 364.644531 5.082031 363.410156 C 4.414063 362.175781 4.1875 360.828125 4.1875 359.257813 C 4.1875 357.796875 4.523438 356.449219 5.082031 355.214844 C 5.757813 353.980469 6.65625 352.859375 7.667969 352.074219 C 8.679688 351.175781 9.914063 350.5 11.257813 350.050781 C 12.605469 349.605469 13.953125 349.265625 15.414063 349.265625 C 19.453125 349.265625 19.453125 349.265625 19.453125 349.265625 Z M 99.820313 369.132813 C 95.664063 369.132813 95.664063 369.132813 95.664063 369.132813 C 94.09375 369.132813 92.636719 368.910156 91.289063 368.460938 C 89.941406 368.011719 88.707031 367.449219 87.699219 366.550781 C 86.6875 365.765625 85.789063 364.757813 85.226563 363.523438 C 84.664063 362.289063 84.332031 360.941406 84.332031 359.367188 C 84.332031 357.910156 84.664063 356.5625 85.339844 355.328125 C 86.011719 354.09375 86.796875 352.972656 87.808594 352.183594 C 88.933594 351.285156 90.054688 350.613281 91.402344 350.050781 C 92.859375 349.605469 94.207031 349.378906 95.664063 349.378906 C 99.820313 349.378906 99.820313 349.378906 99.820313 349.378906 Z M 122.71875 369.132813 C 116.203125 353.195313 116.203125 353.195313 116.203125 353.195313 C 117.777344 351.847656 119.460938 350.949219 121.144531 350.277344 C 122.828125 349.714844 124.511719 349.378906 126.421875 349.378906 C 128.21875 349.378906 130.121094 349.714844 131.921875 350.5 C 133.71875 351.175781 135.289063 352.183594 136.523438 353.195313 C 130.121094 369.132813 130.121094 369.132813 130.121094 369.132813 Z M 122.71875 369.132813 "/>
<path style=" stroke:none;fill-rule:evenodd;fill:rgb(62.304688%,62.304688%,63.084412%);fill-opacity:1;" d="M 512.058594 96.664063 L 519.226563 96.664063 L 519.226563 103.835938 L 512.058594 103.835938 Z M 526.398438 96.664063 L 533.570313 96.664063 L 533.570313 103.835938 L 526.398438 103.835938 Z M 384.914063 15.09375 L 377.746094 15.09375 L 377.746094 7.921875 L 384.914063 7.921875 Z M 556.578125 64.992188 C 559.265625 66.933594 562.40625 68.277344 565.988281 69.324219 C 569.574219 70.222656 573.308594 70.667969 577.34375 70.667969 C 579.136719 70.667969 579.136719 70.667969 579.136719 70.667969 C 581.675781 65.589844 581.675781 65.589844 581.675781 65.589844 C 581.675781 72.613281 581.675781 72.613281 581.675781 72.613281 C 581.675781 76.496094 580.480469 79.035156 578.390625 80.679688 C 576.296875 82.324219 573.308594 83.070313 569.425781 83.070313 C 567.183594 83.070313 565.242188 82.921875 563.449219 82.472656 C 561.65625 82.023438 559.714844 81.425781 557.324219 80.378906 C 555.078125 87.253906 555.078125 87.253906 555.078125 87.253906 C 557.921875 88.296875 560.3125 89.046875 562.40625 89.492188 C 564.496094 89.941406 566.738281 90.242188 568.828125 90.242188 C 575.851563 90.242188 580.929688 88.597656 584.066406 85.308594 C 587.203125 82.023438 588.699219 77.542969 588.699219 72.015625 C 588.699219 22.265625 588.699219 22.265625 588.699219 22.265625 C 577.34375 22.265625 577.34375 22.265625 577.34375 22.265625 C 572.863281 22.265625 568.828125 22.863281 565.242188 24.058594 C 561.65625 25.25 558.519531 27.042969 555.980469 29.136719 C 553.289063 31.378906 551.347656 33.917969 549.855469 36.90625 C 548.511719 39.894531 547.761719 43.179688 547.761719 46.765625 C 547.761719 50.949219 548.511719 54.535156 550.152344 57.523438 C 551.648438 60.511719 553.886719 63.050781 556.578125 64.992188 Z M 556.578125 39.742188 C 557.621094 37.503906 559.117188 35.710938 560.910156 34.214844 C 562.703125 32.722656 564.789063 31.527344 567.183594 30.628906 C 569.425781 29.882813 571.664063 29.433594 574.203125 29.433594 C 585.710938 29.433594 585.710938 29.433594 585.710938 29.433594 C 581.675781 31.527344 581.675781 31.527344 581.675781 31.527344 C 581.675781 63.5 581.675781 63.5 581.675781 63.5 C 574.355469 63.5 574.355469 63.5 574.355469 63.5 C 571.664063 63.5 569.128906 63.199219 566.886719 62.453125 C 564.496094 61.707031 562.40625 60.511719 560.613281 59.167969 C 558.820313 57.671875 557.472656 55.878906 556.429688 53.9375 C 555.382813 51.84375 554.933594 49.453125 554.933594 46.765625 C 554.933594 44.226563 555.382813 41.835938 556.578125 39.742188 Z M 399.109375 15.09375 L 392.085938 15.09375 L 392.085938 7.921875 L 399.109375 7.921875 Z M 606.925781 90.242188 C 604.984375 90.242188 603.039063 89.941406 601.097656 89.492188 C 602.890625 82.621094 602.890625 82.621094 602.890625 82.621094 C 603.789063 82.769531 604.386719 82.921875 604.828125 83.070313 C 605.429688 83.070313 605.878906 83.070313 606.621094 83.070313 C 607.972656 83.070313 609.015625 82.921875 609.914063 82.472656 C 610.808594 82.171875 611.558594 81.574219 612.003906 80.679688 C 612.453125 79.78125 612.902344 78.738281 613.050781 77.242188 C 613.347656 75.898438 613.347656 74.105469 613.347656 72.164063 C 613.347656 22.265625 613.347656 22.265625 613.347656 22.265625 C 620.519531 22.265625 620.519531 22.265625 620.519531 22.265625 C 620.519531 72.164063 620.519531 72.164063 620.519531 72.164063 C 620.519531 75.003906 620.371094 77.390625 619.921875 79.632813 C 619.472656 81.875 618.726563 83.816406 617.53125 85.460938 C 616.488281 86.953125 615.140625 88.148438 613.347656 89.046875 C 611.558594 89.792969 609.464844 90.242188 606.925781 90.242188 Z M 379.6875 89.34375 C 394.480469 89.34375 394.480469 89.34375 394.480469 89.34375 C 394.480469 83.964844 394.480469 83.964844 394.480469 83.964844 C 394.628906 84.117188 394.777344 84.414063 394.925781 84.714844 C 395.972656 86.207031 397.46875 87.402344 399.261719 88.296875 C 400.902344 89.046875 403.144531 89.492188 405.683594 89.492188 C 536.109375 89.492188 536.109375 89.492188 536.109375 89.492188 C 536.109375 22.265625 536.109375 22.265625 536.109375 22.265625 C 528.9375 22.265625 528.9375 22.265625 528.9375 22.265625 C 528.9375 82.324219 528.9375 82.324219 528.9375 82.324219 C 521.46875 82.324219 521.46875 82.324219 521.46875 82.324219 C 405.984375 82.324219 405.984375 82.324219 405.984375 82.324219 C 404.636719 82.324219 403.445313 82.171875 402.546875 81.875 C 401.800781 81.425781 401.054688 80.828125 400.605469 79.933594 C 400.007813 79.035156 399.703125 77.988281 399.410156 76.496094 C 399.261719 75.152344 399.109375 73.507813 399.109375 71.417969 C 399.109375 22.265625 399.109375 22.265625 399.109375 22.265625 C 379.839844 22.265625 379.839844 22.265625 379.839844 22.265625 C 360.117188 22.265625 346.671875 37.800781 346.671875 55.730469 C 346.671875 55.878906 346.671875 55.878906 346.671875 55.878906 C 346.671875 73.808594 359.820313 89.34375 379.6875 89.34375 Z M 354.289063 55.582031 C 354.289063 40.789063 364.746094 28.988281 379.6875 28.988281 C 396.421875 28.988281 396.421875 28.988281 396.421875 28.988281 C 392.089844 31.078125 392.089844 31.078125 392.089844 31.078125 C 392.089844 71.417969 392.089844 71.417969 392.089844 71.417969 C 392.089844 74.253906 392.238281 76.796875 392.6875 78.886719 C 392.984375 80.230469 393.285156 81.425781 393.734375 82.472656 C 379.839844 82.472656 379.839844 82.472656 379.839844 82.472656 C 365.046875 82.472656 354.289063 70.519531 354.289063 55.730469 Z M 580.71875 -0.0117188 L 586.566406 -0.0117188 L 586.566406 5.242188 L 581.203125 5.242188 C 580.054688 5.242188 579.109375 6.183594 579.109375 7.339844 L 579.109375 9.4375 L 588.289063 9.4375 L 588.289063 15.125 L 573.152344 15.125 L 573.152344 7.554688 C 573.152344 3.390625 576.558594 -0.0117188 580.71875 -0.0117188 Z M 580.71875 -0.0117188 "/>
<path style=" stroke:none;fill-rule:evenodd;fill:rgb(62.304688%,62.304688%,63.084412%);fill-opacity:1;" d="M 309.328125 21.773438 L 316.644531 21.773438 L 316.644531 88.625 L 310.675781 88.625 L 263.070313 28.488281 L 267.246094 38.1875 L 267.246094 88.625 L 259.9375 88.625 L 259.9375 21.773438 L 266.949219 21.773438 L 312.316406 79.375 L 309.328125 71.167969 Z M 30.726563 89.222656 L 1.925781 21.773438 L 10.28125 21.773438 L 14.460938 31.769531 L 34.160156 79.375 L 36.097656 84 L 35.351563 76.6875 L 58.183594 21.773438 L 66.242188 21.773438 L 37.441406 89.222656 Z M 158.464844 21.773438 L 166.074219 21.773438 L 166.074219 88.625 L 158.464844 88.625 Z M 239.644531 55.347656 C 239.644531 70.570313 228.746094 82.808594 213.378906 82.808594 C 198.15625 82.808594 186.964844 70.421875 186.964844 55.199219 C 186.964844 55.050781 186.964844 55.050781 186.964844 55.050781 C 186.964844 39.828125 197.859375 27.59375 213.230469 27.59375 C 228.601563 27.59375 239.644531 39.980469 239.644531 55.199219 Z M 213.378906 20.578125 C 193.085938 20.578125 179.203125 36.84375 179.203125 55.199219 C 179.203125 55.347656 179.203125 55.347656 179.203125 55.347656 C 179.203125 73.851563 192.785156 89.820313 213.230469 89.820313 C 233.671875 89.820313 247.550781 73.703125 247.550781 55.199219 C 247.550781 55.050781 247.550781 55.050781 247.550781 55.050781 C 247.550781 36.546875 233.824219 20.578125 213.378906 20.578125 Z M 146.078125 70.570313 C 146.078125 70.71875 146.078125 70.71875 146.078125 70.71875 C 146.078125 82.210938 136.378906 89.671875 123.097656 89.671875 C 112.503906 89.671875 103.847656 86.089844 95.789063 78.925781 C 100.414063 73.40625 100.414063 73.40625 100.414063 73.40625 C 107.429688 79.671875 114.144531 82.808594 123.394531 82.808594 C 132.496094 82.808594 138.316406 78.03125 138.316406 71.464844 C 138.316406 71.316406 138.316406 71.316406 138.316406 71.316406 C 138.316406 65.046875 135.035156 61.46875 120.859375 58.632813 C 105.488281 55.199219 98.476563 50.277344 98.476563 39.234375 C 98.476563 39.082031 98.476563 39.082031 98.476563 39.082031 C 98.476563 28.488281 107.726563 20.730469 120.410156 20.730469 C 130.261719 20.730469 137.273438 23.5625 143.988281 29.085938 C 139.660156 34.90625 139.660156 34.90625 139.660156 34.90625 C 133.394531 29.832031 127.121094 27.59375 120.261719 27.59375 C 111.605469 27.59375 105.9375 32.367188 105.9375 38.335938 C 105.9375 38.636719 105.9375 38.636719 105.9375 38.636719 C 105.9375 44.902344 109.367188 48.484375 124.140625 51.617188 C 139.066406 54.902344 146.078125 60.273438 146.078125 70.570313 Z M 84.148438 88.625 L 76.539063 88.625 L 76.539063 21.773438 L 84.148438 21.773438 Z M 84.148438 88.625 "/>
</g>
</svg>
