<?xml version="1.0" encoding="utf-8"?>
<!-- Generator: Adobe Illustrator 24.2.3, SVG Export Plug-In . SVG Version: 6.00 Build 0)  -->
<svg version="1.1" id="Layer_1" xmlns="http://www.w3.org/2000/svg" xmlns:xlink="http://www.w3.org/1999/xlink" x="0px" y="0px"
	 viewBox="0 0 500 500" style="enable-background:new 0 0 500 500;" xml:space="preserve">
<style type="text/css">
	.st0{fill-rule:evenodd;clip-rule:evenodd;fill:#EADC00;}
	.st1{fill-rule:evenodd;clip-rule:evenodd;fill:#9F9FA1;}
	.st2{fill-rule:evenodd;clip-rule:evenodd;fill:#94BF0B;}
	.st3{fill-rule:evenodd;clip-rule:evenodd;fill:#5BC3CD;}
	.st4{fill-rule:evenodd;clip-rule:evenodd;fill:#003F8A;}
	.st5{fill-rule:evenodd;clip-rule:evenodd;fill:#00B2E7;}
	.st6{clip-path:url(#SVGID_2_);}
</style>
<g id="surface1">
	<path class="st0" d="M205.8,390.5c-5.7,2.6-11.4,5-17.2,7.2c2.8,6,5.9,11.8,9,17.6c6-2.9,12-6,17.9-9.3
		C212.1,401,208.9,395.8,205.8,390.5z"/>
	<path class="st0" d="M248.9,103c4.2-4.1,8.6-8.1,13.2-12c-4.2-4.9-8.6-9.6-13.2-14.2c-4.6,4.6-9,9.3-13.2,14.2
		C240.3,94.9,244.7,98.9,248.9,103z"/>
	<path class="st2" d="M249.3,52.8c5.8-5.9,11.9-11.6,18.1-17c-5.8-7.1-11.8-13.9-18.1-20.4c-6.3,6.5-12.4,13.4-18.1,20.4
		C237.5,41.3,243.5,46.9,249.3,52.8z"/>
	<path class="st1" d="M274,81.5c5.6-4.2,11.5-8.2,17.5-12c-4-6.4-8.2-12.6-12.5-18.6c-6.2,4.6-12.2,9.5-18,14.6
		C265.5,70.7,269.9,76,274,81.5z"/>
	<path class="st3" d="M309.4,138.7c-2-4.7-4.2-9.3-6.5-13.8c5.3-2,10.7-3.7,16.2-5.3c2.1,5.1,4.1,10.3,5.9,15.5
		C319.7,136.1,314.5,137.3,309.4,138.7z"/>
	<path class="st2" d="M286.5,146.3c-2.4-3.8-4.8-7.5-7.4-11.2c4.3-2.1,8.7-4.1,13.1-6c2.4,4.1,4.7,8.4,6.9,12.6
		C294.9,143.1,290.6,144.6,286.5,146.3z"/>
	<path class="st2" d="M295.2,110.7c-3.1-5.4-6.4-10.7-9.8-15.9c5.8-3.2,11.6-6.2,17.6-9.1c3.2,5.9,6.3,11.9,9.2,18
		C306.4,105.9,300.7,108.2,295.2,110.7z"/>
	<path class="st3" d="M270.3,123.4c-3.5-4.3-7.1-8.5-10.9-12.6c4.7-3.2,9.4-6.2,14.2-9.2c3.6,4.7,7.1,9.5,10.4,14.4
		C279.3,118.4,274.7,120.8,270.3,123.4z"/>
	<path class="st4" d="M224.3,81.9c4.1-5.5,8.4-10.8,13-16c-5.7-5.1-11.7-10-17.9-14.6c-4.3,6-8.5,12.2-12.5,18.6
		C212.9,73.7,218.7,77.7,224.3,81.9z"/>
	<path class="st5" d="M248.9,398.1c4.2,4.1,8.6,8.1,13.2,12c-4.2,4.9-8.6,9.6-13.2,14.2c-4.6-4.6-9-9.3-13.2-14.2
		C240.3,406.2,244.7,402.2,248.9,398.1z"/>
	<path class="st0" d="M249.3,448.3c5.8,5.9,11.9,11.6,18.1,17c-5.8,7.1-11.8,13.9-18.1,20.4c-6.3-6.5-12.4-13.4-18.1-20.4
		C237.5,459.8,243.5,454.2,249.3,448.3z"/>
	<path class="st3" d="M274,419.6c5.6,4.2,11.5,8.2,17.5,12c-4,6.4-8.2,12.6-12.5,18.6c-6.2-4.6-12.2-9.5-18-14.6
		C265.5,430.4,269.9,425.1,274,419.6z"/>
	<path class="st2" d="M224.3,419.2c4.1,5.5,8.4,10.8,13,16c-5.7,5.1-11.7,10-17.9,14.6c-4.3-6-8.5-12.2-12.5-18.6
		C212.9,427.4,218.7,423.4,224.3,419.2z"/>
	<path class="st0" d="M334.7,129.6c5.8-0.9,11.7-1.6,17.7-2.1c-0.6-6.4-1.5-12.8-2.5-19.2c-6.4,1.1-12.7,2.4-18.9,3.9
		C332.4,118,333.6,123.8,334.7,129.6z"/>
	<path class="st5" d="M364.1,89c8.1-1.4,16.4-2.5,24.6-3.3c-0.6-9.1-1.6-18.2-2.9-27.2c-8.9,1.7-17.8,3.7-26.6,6.1
		C361.2,72.7,362.8,80.8,364.1,89z"/>
	<path class="st3" d="M367.6,126.7c7-0.2,14.1,0,21.2,0.4c0.5-7.5,0.7-15,0.6-22.5c-7.7,0.2-15.5,0.6-23.1,1.5
		C367,112.9,367.4,119.8,367.6,126.7z"/>
	<path class="st1" d="M367.9,162.8c0.6-6.2,1-12.4,1.2-18.6c6.6,0.7,13.1,1.7,19.6,2.8c-0.8,6.7-1.8,13.3-3,20
		C379.8,165.3,373.9,163.9,367.9,162.8z"/>
	<path class="st2" d="M340.2,158.6c-0.3-5.5-0.9-11-1.6-16.6c5.7,0.1,11.3,0.4,16.9,0.8c0.3,5.9,0.3,11.8,0.1,17.7
		C350.5,159.8,345.4,159.1,340.2,158.6z"/>
	<path class="st1" d="M315.9,158.6c-1.2-4.3-2.5-8.6-4-12.8c4.7-0.8,9.5-1.5,14.2-2.1c1.2,4.7,2.2,9.4,3.1,14.1
		C324.8,158,320.3,158.2,315.9,158.6z"/>
	<path class="st4" d="M326.9,98.2c6.5-2.1,13.2-3.9,19.8-5.5c-1.7-7.5-3.7-14.9-6.1-22.3c-7.1,2.4-14,5-20.9,7.9
		C322.4,84.8,324.8,91.5,326.9,98.2z"/>
	<path class="st0" d="M163.6,370c1.1,5.8,2.3,11.6,3.8,17.4c-6.2,1.5-12.6,2.8-18.9,3.9c-1.1-6.4-1.9-12.8-2.5-19.2
		C151.9,371.6,157.8,370.9,163.6,370z"/>
	<path class="st5" d="M160.3,342.5c0.3,5.5,0.9,11,1.6,16.6c-5.7-0.1-11.3-0.4-16.9-0.8c-0.3-5.9-0.3-11.8-0.1-17.7
		C150,341.3,155.1,342,160.3,342.5z"/>
	<path class="st5" d="M134.9,411.1c1.3,8.2,2.9,16.3,4.9,24.4c-8.8,2.4-17.7,4.5-26.6,6.1c-1.4-9-2.3-18.1-2.9-27.2
		C118.5,413.6,126.7,412.5,134.9,411.1z"/>
	<path class="st3" d="M171.6,402c2.1,6.7,4.6,13.4,7.3,20c-6.9,2.9-13.9,5.5-21,7.9c-2.4-7.4-4.4-14.8-6.2-22.3
		C158.4,405.9,165.1,404.1,171.6,402z"/>
	<path class="st1" d="M233.6,376c-4.4,2.6-8.8,5.1-13.3,7.5c3.2,4.7,6.6,9.3,10.1,13.7c4.7-2.9,9.3-6,13.8-9.2
		C240.5,384.1,237,380.1,233.6,376z"/>
	<path class="st1" d="M219.3,356.5c-4.1,1.7-8.3,3.3-12.5,4.8c2.3,4.2,4.7,8.4,7.2,12.4c4.4-2,8.7-4.1,13-6.3
		C224.3,363.9,221.8,360.3,219.3,356.5z"/>
	<path class="st4" d="M192.8,365.7c-5.3,1.5-10.7,2.8-16.2,3.9c2,5.3,4.1,10.6,6.3,15.7c5.7-1.7,11.3-3.6,16.8-5.7
		C197.3,375.1,195,370.4,192.8,365.7z"/>
	<path class="st2" d="M184.9,342.7c-4.5,0.3-8.9,0.4-13.4,0.4c0.7,4.7,1.6,9.5,2.7,14.1c4.8-0.4,9.6-0.9,14.3-1.6
		C187.2,351.3,186,347,184.9,342.7z"/>
	<path class="st2" d="M131.4,372.8c0.2,6.9,0.6,13.7,1.2,20.6c-7.6,0.8-15.3,1.3-23.1,1.5c0-7.4,0.2-14.9,0.6-22.4
		C117.3,372.9,124.4,373,131.4,372.8z"/>
	<path class="st0" d="M389.7,202.6c5.2,2.7,10.4,5.6,15.5,8.7c3.3-5.5,6.4-11.2,9.2-17c-5.8-2.9-11.7-5.6-17.6-8
		C394.6,191.8,392.3,197.3,389.7,202.6z"/>
	<path class="st2" d="M337.6,183.1c4.3,1,8.7,2.2,13,3.5c0.6-4.8,1.1-9.5,1.5-14.3c-4.7-1-9.4-1.9-14.2-2.6
		C337.9,174.2,337.8,178.7,337.6,183.1z"/>
	<path class="st5" d="M364.4,191.3c5.2,1.9,10.3,4.1,15.4,6.4c1.5-5.4,2.9-10.9,4.2-16.4c-5.6-2-11.2-3.7-16.9-5.3
		C366.3,181.1,365.4,186.2,364.4,191.3z"/>
	<path class="st4" d="M437.3,187.1c7.4,3.6,14.7,7.6,21.8,11.8c4.9-7.7,9.4-15.6,13.6-23.7c-8.2-3.9-16.6-7.5-25.1-10.8
		C444.6,172.2,441.1,179.7,437.3,187.1z"/>
	<path class="st2" d="M418,219.6c5.8,4,11.4,8.3,16.9,12.8c4.8-5.8,9.3-11.7,13.7-17.8c-6.4-4.4-12.9-8.6-19.5-12.4
		C425.6,208.1,421.9,213.9,418,219.6z"/>
	<path class="st3" d="M401.8,172.6c6.5,2.2,12.9,4.6,19.3,7.2c3-7.1,5.8-14.3,8.2-21.6c-7.1-2.2-14.3-4.2-21.6-6
		C406,159.1,404.1,165.9,401.8,172.6z"/>
	<path class="st3" d="M109.9,296c-2.6,5.3-5,10.8-7.2,16.3c-5.9-2.5-11.8-5.1-17.6-8c2.9-5.8,6-11.5,9.2-17
		C99.5,290.4,104.7,293.3,109.9,296z"/>
	<path class="st2" d="M139.9,249.1c-2.9,3.4-5.6,7-8.3,10.6c-3.4-3.4-6.6-6.9-9.8-10.5c3.2-3.6,6.4-7.2,9.8-10.6
		C134.3,242.2,137.1,245.7,139.9,249.1z"/>
	<path class="st0" d="M123.4,271.8c-3,4.7-5.8,9.4-8.4,14.3c-4.5-3.4-8.9-7-13.2-10.6c3.3-4.9,6.7-9.7,10.3-14.4
		C115.8,264.8,119.6,268.3,123.4,271.8z"/>
	<path class="st3" d="M62.6,312.3c-3.8,7.4-7.2,14.9-10.4,22.6c-8.5-3.2-16.9-6.8-25.1-10.8c4.2-8.1,8.7-16,13.6-23.7
		C47.8,304.7,55.1,308.6,62.6,312.3z"/>
	<path class="st0" d="M97.6,326.6c-2.2,6.7-4.2,13.5-5.9,20.4c-7.3-1.8-14.5-3.8-21.6-6c2.4-7.4,5.1-14.6,8.1-21.7
		C84.6,322,91,324.4,97.6,326.6z"/>
	<path class="st1" d="M162.9,318c-4.3-1-8.7-2.2-13-3.5c-0.6,4.8-1.1,9.5-1.5,14.3c4.7,1,9.4,1.9,14.2,2.6
		C162.6,326.9,162.7,322.4,162.9,318z"/>
	<path class="st1" d="M131.9,337.5c-6.1-1.3-12.1-2.7-18.1-4.3c-1.2,6.5-2.2,13-3.1,19.6c6.6,1.2,13.2,2.2,19.9,3
		C130.9,349.6,131.3,343.5,131.9,337.5z"/>
	<path class="st2" d="M136.1,309.8c-5.2-1.9-10.3-4.1-15.4-6.4c-1.5,5.4-2.9,10.9-4.2,16.4c5.6,2,11.2,3.7,16.9,5.3
		C134.2,320,135.1,314.9,136.1,309.8z"/>
	<path class="st4" d="M143.2,286.5c-3.8-2.4-7.4-4.9-11.1-7.6c-2.2,4.3-4.2,8.6-6.2,13c4.1,2.5,8.3,4.9,12.5,7.1
		C140,294.8,141.5,290.6,143.2,286.5z"/>
	<path class="st5" d="M82.2,279.3c-3.9,5.7-7.6,11.4-11.1,17.4c-6.7-3.8-13.2-8-19.5-12.4c4.3-6,8.9-12,13.7-17.7
		C70.8,271.1,76.5,275.3,82.2,279.3z"/>
	<path class="st4" d="M391.1,294.1c2.6,5.3,5.1,10.7,7.4,16.2c5.9-2.5,11.7-5.3,17.5-8.3c-3-5.7-6.1-11.4-9.5-16.9
		C401.5,288.4,396.3,291.3,391.1,294.1z"/>
	<path class="st1" d="M374.7,228.2c3.8,3.4,7.5,6.8,11.2,10.4c3.5-4.5,6.8-9.1,10-13.8c-4.2-3.5-8.5-7-12.9-10.4
		C380.3,219.1,377.5,223.7,374.7,228.2z"/>
	<path class="st3" d="M360.5,247.7c2.9,3.4,5.7,6.9,8.4,10.5c3.3-3.5,6.5-7,9.6-10.7c-3.2-3.6-6.5-7.1-9.9-10.5
		C366,240.7,363.3,244.2,360.5,247.7z"/>
	<path class="st0" d="M397,250.2c4.2,4.6,8.2,9.4,12.1,14.2c4.8-4.5,9.5-9.2,14-14c-4.6-4.9-9.4-9.6-14.3-14.2
		C405,241,401.1,245.7,397,250.2z"/>
	<path class="st4" d="M377.3,270.1c3,4.6,5.9,9.4,8.6,14.2c4.5-3.5,8.8-7.1,13.1-10.8c-3.3-4.9-6.9-9.6-10.5-14.3
		C384.9,263,381.2,266.6,377.3,270.1z"/>
	<path class="st5" d="M438.7,309.8c3.9,7.3,7.4,14.8,10.7,22.5c8.5-3.4,16.8-7.1,25-11.1c-4.3-8-8.9-15.9-13.9-23.5
		C453.3,302,446.1,306,438.7,309.8z"/>
	<path class="st2" d="M356.3,215.5c3.9,2.2,7.7,4.6,11.4,7c2-4.4,3.8-8.8,5.5-13.3c-4.2-2.3-8.5-4.5-12.8-6.5
		C359.1,207.1,357.8,211.3,356.3,215.5z"/>
	<path class="st3" d="M403.9,324.6c2.3,6.7,4.3,13.4,6.1,20.3c7.3-1.9,14.5-3.9,21.5-6.3c-2.5-7.3-5.3-14.5-8.4-21.6
		C416.8,319.8,410.4,322.3,403.9,324.6z"/>
	<path class="st3" d="M418.6,277.1c4,5.6,7.7,11.3,11.3,17.2c6.6-3.9,13.1-8.1,19.4-12.6c-4.4-6-9.1-11.8-13.9-17.5
		C429.9,268.7,424.3,273,418.6,277.1z"/>
	<path class="st5" d="M110.2,204.4c-5.2,2.8-10.3,5.8-15.4,8.9c-3.3-5.5-6.5-11.1-9.5-16.9c5.7-3,11.6-5.7,17.5-8.3
		C105.1,193.7,107.5,199.1,110.2,204.4z"/>
	<path class="st3" d="M62.3,189.6c-7.4,3.7-14.6,7.8-21.7,12.1c-5-7.7-9.6-15.5-13.9-23.5c8.1-4,16.5-7.7,25-11.1
		C54.9,174.8,58.5,182.3,62.3,189.6z"/>
	<path class="st2" d="M82.1,221.8c-5.7,4.1-11.3,8.4-16.8,13c-4.9-5.7-9.5-11.6-13.9-17.6c6.3-4.5,12.8-8.8,19.4-12.7
		C74.4,210.4,78.2,216.2,82.1,221.8z"/>
	<path class="st4" d="M103.5,250.9c-4.2-4.6-8.2-9.3-12.1-14.2c-4.8,4.5-9.5,9.2-14,14c4.6,4.9,9.4,9.6,14.3,14.2
		C95.5,260.1,99.4,255.4,103.5,250.9z"/>
	<path class="st3" d="M123.2,231c-3-4.6-5.9-9.4-8.6-14.2c-4.5,3.5-8.8,7.1-13.1,10.8c3.3,4.9,6.9,9.6,10.5,14.3
		C115.6,238.1,119.3,234.5,123.2,231z"/>
	<path class="st4" d="M97.6,174.6c-6.5,2.3-12.9,4.8-19.2,7.5c-3.1-7-5.9-14.2-8.5-21.5c7.1-2.3,14.3-4.4,21.5-6.2
		C93.3,161.2,95.3,168,97.6,174.6z"/>
	<path class="st2" d="M338.5,368.7c-1,5.8-2.2,11.6-3.6,17.4c6.3,1.4,12.6,2.6,19,3.6c1-6.4,1.8-12.8,2.3-19.2
		C350.2,370.1,344.3,369.5,338.5,368.7z"/>
	<path class="st0" d="M364,305.7c1.1,5,2.1,10,2.9,15c5.4-1.6,10.8-3.3,16.2-5.3c-1.3-5.4-2.8-10.7-4.3-16
		C373.9,301.7,369,303.8,364,305.7z"/>
	<path class="st3" d="M341.1,313.1c0.3,4.5,0.6,8.9,0.6,13.4c4.7-0.8,9.4-1.8,14.1-2.9c-0.5-4.8-1.1-9.6-1.9-14.3
		C349.7,310.7,345.4,312,341.1,313.1z"/>
	<path class="st2" d="M369.1,336.7c0.7,6.2,1.1,12.4,1.4,18.6c6.6-0.8,13.1-1.8,19.5-3.1c-0.9-6.7-1.9-13.3-3.2-19.9
		C380.9,334,375,335.4,369.1,336.7z"/>
	<path class="st1" d="M341.5,341.1c-0.3,5.5-0.7,11.1-1.4,16.6c5.7-0.2,11.3-0.5,16.9-1c0.2-5.9,0.1-11.8-0.1-17.7
		C351.7,339.9,346.6,340.6,341.5,341.1z"/>
	<path class="st2" d="M367.7,409.4c-1.2,8.2-2.7,16.3-4.6,24.4c8.8,2.3,17.8,4.2,26.7,5.8c1.2-9,2.1-18.1,2.6-27.2
		C384.1,411.7,375.9,410.7,367.7,409.4z"/>
	<path class="st1" d="M356.6,284.6c1.8,4.1,3.5,8.2,5.1,12.4c4.2-2.4,8.3-4.9,12.3-7.5c-2.1-4.3-4.2-8.6-6.5-12.9
		C363.8,279.5,360.2,282.1,356.6,284.6z"/>
	<path class="st3" d="M330.9,400.8c-2.1,6.7-4.4,13.4-7,20c7,2.8,14,5.3,21.1,7.6c2.3-7.4,4.3-14.9,5.9-22.4
		C344.1,404.6,337.4,402.8,330.9,400.8z"/>
	<path class="st0" d="M268.6,375.6c4.4,2.6,8.9,5,13.4,7.3c-3.1,4.7-6.5,9.3-9.9,13.9c-4.7-2.9-9.3-5.9-13.9-9
		C261.7,383.8,265.2,379.7,268.6,375.6z"/>
	<path class="st1" d="M282.6,356c4.1,1.7,8.3,3.2,12.6,4.7c-2.2,4.2-4.6,8.4-7.1,12.5c-4.4-1.9-8.8-3.9-13.1-6.1
		C277.7,363.4,280.2,359.7,282.6,356z"/>
	<path class="st1" d="M296.5,389.8c5.7,2.5,11.5,4.8,17.3,7c-2.8,6-5.7,11.9-8.8,17.7c-6.1-2.8-12.1-5.9-18-9.1
		C290.4,400.3,293.5,395.1,296.5,389.8z"/>
	<path class="st2" d="M309.2,364.8c5.3,1.4,10.8,2.6,16.2,3.7c-1.9,5.3-3.9,10.6-6.1,15.8c-5.7-1.6-11.3-3.5-16.8-5.5
		C304.8,374.2,307.1,369.5,309.2,364.8z"/>
	<path class="st4" d="M250.8,362.1c3.3,3,6.8,5.8,10.3,8.6c-3.5,3.2-7.1,6.4-10.8,9.5c-3.5-3.3-6.9-6.7-10.3-10.1
		C243.7,367.5,247.3,364.9,250.8,362.1z"/>
	<path class="st1" d="M316.8,341.7c4.5,0.2,8.9,0.3,13.4,0.2c-0.7,4.8-1.5,9.5-2.5,14.2c-4.8-0.3-9.6-0.8-14.3-1.4
		C314.7,350.3,315.8,346,316.8,341.7z"/>
	<path class="st4" d="M370.7,371.1c-0.1,6.9-0.4,13.7-1,20.6c7.6,0.7,15.3,1.1,23.1,1.2c0-7.4-0.4-14.9-0.9-22.4
		C384.8,371,377.7,371.2,370.7,371.1z"/>
	<path class="st0" d="M164.3,130.5c-5.8-0.8-11.7-1.5-17.7-1.9c0.5-6.4,1.3-12.8,2.3-19.2c6.4,1,12.7,2.2,19,3.6
		C166.5,118.9,165.3,124.7,164.3,130.5z"/>
	<path class="st0" d="M232,125.2c-4.4-2.6-8.9-5-13.4-7.3c3.1-4.7,6.5-9.3,9.9-13.9c4.7,2.9,9.3,5.9,13.9,9
		C238.9,117,235.4,121,232,125.2z"/>
	<path class="st1" d="M218,144.8c-4.1-1.7-8.3-3.2-12.6-4.6c2.2-4.2,4.6-8.4,7-12.5c4.4,1.9,8.8,3.9,13.1,6.1
		C222.9,137.3,220.4,141,218,144.8z"/>
	<path class="st5" d="M204,111c-5.7-2.5-11.5-4.8-17.3-7c2.8-6,5.7-11.9,8.8-17.7c6.1,2.8,12.1,5.9,18,9.1
		C210.2,100.5,207.1,105.7,204,111z"/>
	<path class="st2" d="M191.4,136c-5.3-1.4-10.8-2.6-16.2-3.7c1.9-5.3,3.9-10.6,6.1-15.8c5.7,1.6,11.3,3.5,16.8,5.5
		C195.8,126.5,193.5,131.2,191.4,136z"/>
	<path class="st2" d="M134.4,90.3c-8.2-1.3-16.4-2.3-24.7-3c0.5-9.1,1.3-18.2,2.6-27.2c8.9,1.6,17.9,3.5,26.7,5.8
		C137.1,73.9,135.6,82.1,134.4,90.3z"/>
	<path class="st2" d="M249.8,138.6c-3.3-3-6.8-5.8-10.3-8.6c3.5-3.2,7.1-6.4,10.8-9.4c3.5,3.3,6.9,6.7,10.3,10.1
		C256.9,133.3,253.3,135.9,249.8,138.6z"/>
	<path class="st1" d="M131.4,128c-7-0.1-14.1,0.1-21.2,0.6c-0.6-7.5-0.8-15-0.9-22.4c7.8,0.1,15.5,0.4,23.1,1.2
		C131.8,114.3,131.5,121.1,131.4,128z"/>
	<path class="st0" d="M136.6,195.1c-1.1-5-2.1-10-2.9-15c-5.4,1.6-10.9,3.3-16.2,5.3c1.3,5.4,2.8,10.7,4.3,16
		C126.7,199.1,131.6,197,136.6,195.1z"/>
	<path class="st2" d="M159.5,187.7c-0.3-4.5-0.6-8.9-0.6-13.4c-4.7,0.8-9.4,1.8-14.1,2.9c0.5,4.8,1.1,9.6,1.9,14.3
		C150.9,190.1,155.2,188.8,159.5,187.7z"/>
	<path class="st2" d="M131.5,164.1c-0.7-6.2-1.1-12.4-1.4-18.6c-6.6,0.8-13.1,1.8-19.5,3.1c0.9,6.7,1.9,13.3,3.2,19.9
		C119.7,166.8,125.6,165.4,131.5,164.1z"/>
	<path class="st3" d="M159.1,159.6c0.3-5.5,0.7-11.1,1.4-16.6c-5.7,0.2-11.3,0.5-16.9,1c-0.2,5.9-0.1,11.8,0.1,17.7
		C148.9,160.9,154,160.2,159.1,159.6z"/>
	<path class="st1" d="M144,216.1c-1.8-4.1-3.5-8.2-5.1-12.4c-4.2,2.4-8.3,4.9-12.3,7.5c2.1,4.3,4.2,8.6,6.5,12.9
		C136.7,221.3,140.4,218.7,144,216.1z"/>
	<path class="st4" d="M183.5,159.3c1.2-4.3,2.4-8.6,3.9-12.9c-4.7-0.8-9.5-1.4-14.3-1.9c-1.1,4.7-2.1,9.4-3,14.1
		C174.6,158.7,179.1,159,183.5,159.3z"/>
	<path class="st3" d="M171.7,99c-6.6-2-13.2-3.8-19.9-5.3c1.6-7.5,3.6-15,5.8-22.4c7.1,2.3,14.1,4.8,21,7.6
		C176.1,85.6,173.8,92.3,171.7,99z"/>
	<path class="st1" d="M250.1,156c1.4,2.5,4.8,8.9,4.4,15c0,0,9.3-15.2,28.6-2.5c0,0-16.4-2.2-20.3,6.3c0,0,25.2-6.6,30.6,16.8
		c0,0-11.7-13-22.3-10.7c0,0,24.2,8.5,17.4,33.4c0,0-2-22.3-18.3-25.1c0,0,15.1,12.4,9.3,37.3c0,0,0.3-18.5-11.5-27.3
		c0,0,8,19.3-4.9,36.4c0,0,6.6-22.2-4.1-30.3c0,0-4.4-2.7-4.2,5.4c0,0-1.3,46.5,1,69.2c0,0,46.6-39.4,86.4-13.2
		c0,0-39.4-19.3-84.9,23.2l30.3,26.7c1.3-2.2,3.7-3.6,6.5-3.6c4.2,0,7.6,3.4,7.6,7.6c0,10.2-14.4,9.5-19.6,3.4l-31.9-29.3l-0.2-0.7
		l-0.2,0.7L218,323.9c-5.2,6.1-19.6,6.9-19.6-3.4c0-4.2,3.4-7.6,7.6-7.6c2.7,0,5.1,1.4,6.5,3.6l30.3-26.7
		c-45.4-42.4-84.9-23.2-84.9-23.2c39.8-26.2,86.4,13.2,86.4,13.2c2.3-22.7,1-69.2,1-69.2c0.2-8.1-4.2-5.4-4.2-5.4
		c-10.7,8.1-4.1,30.3-4.1,30.3c-12.9-17.1-4.9-36.4-4.9-36.4c-11.8,8.8-11.5,27.3-11.5,27.3c-5.8-24.9,9.3-37.3,9.3-37.3
		c-16.2,2.7-18.3,25.1-18.3,25.1c-6.8-24.9,17.4-33.4,17.4-33.4c-10.7-2.4-22.3,10.7-22.3,10.7c5.4-23.4,30.6-16.8,30.6-16.8
		c-3.9-8.5-20.3-6.3-20.3-6.3c19.3-12.7,28.6,2.5,28.6,2.5C245.2,164.9,248.7,158.5,250.1,156z"/>
</g>
</svg>
